<svg xmlns="http://www.w3.org/2000/svg" viewBox="0 0 159.5 286.76"><g data-name="Layer 2"><path d="M10.46 0H149a10.49 10.49 0 0 1 10.5 10.47V276.3a10.48 10.48 0 0 1-10.5 10.46H10.46A10.48 10.48 0 0 1 0 276.3V10.47A10.49 10.49 0 0 1 10.46 0zm132.17 20.72v220.77h-126V20.72zM69.39 252.6h20.72a1.46 1.46 0 0 1 1.49 1.49v18.37a1.43 1.43 0 0 1-1.49 1.28H69.39a1.43 1.43 0 0 1-1.49-1.28v-18.37a1.46 1.46 0 0 1 1.49-1.49zM79.64 94.38a36.73 36.73 0 1 1-36.72 36.73 36.9 36.9 0 0 1 36.72-36.73zM57.86 134.1l1.93-1.93a2.33 2.33 0 0 1 3.2 0l7.47 7.69 26.05-26.05a2 2 0 0 1 3.2 0l1.92 1.93a2 2 0 0 1 0 3l-27.54 27.74L72 148.4v.21h-.22v.22h-.42v.17H69.6v-.21h-.21l-.21-.22H69v-.21l-2-1.88-9.18-9.18a2.33 2.33 0 0 1 0-3.2z" fill="#333" fill-rule="evenodd" data-name="1"/></g></svg>