<svg xmlns="http://www.w3.org/2000/svg" viewBox="0 0 347.12 283.76"><g data-name="Layer 2"><path d="M17.86 130.24H33v-15.16a1.17 1.17 0 0 1 1.11-1.08h15.71a1.17 1.17 0 0 1 1.08 1.09v15.16h15.16v-15.17a1.17 1.17 0 0 1 1.08-1.08h15.44a1.17 1.17 0 0 1 1.08 1.09v15.16h17.61V.81c0-.54.53-.81 1.07-.81h14.08a.72.72 0 0 1 .82.81V11.1H127V.81a.86.86 0 0 1 .81-.81h14.36a.86.86 0 0 1 .81.81V11.1h9.75V.81a.72.72 0 0 1 .81-.81h14.07c.54 0 1.09.27 1.09.81V11.1h9.75V.81a.72.72 0 0 1 .81-.81h14.08c.55 0 1.08.27 1.08.81V11.1h9.76V.81A.71.71 0 0 1 205 0h14.09c.55 0 1.09.27 1.09.81V11.1h9.47V.81c0-.54.54-.81 1.08-.81h14.08a.72.72 0 0 1 .81.81v129.43h17.88v-15.16a1.16 1.16 0 0 1 1.07-1.09h15.72a1.17 1.17 0 0 1 1.08 1.09v15.16h15.15v-15.16a1 1 0 0 1 1.09-1.09H313a1.17 1.17 0 0 1 1.09 1.09v15.16h15.15v-15.16a1.17 1.17 0 0 1 1.1-1.09H346a1.17 1.17 0 0 1 1.08 1.09v159.48a9.13 9.13 0 0 1-9.21 9.2h-99.61v-16.24a11.49 11.49 0 0 0-11.37-11.64 11.56 11.56 0 0 0-11.64 11.64v16.24h-10.83v-42a30.85 30.85 0 0 0-30.87-30.87 31.09 31.09 0 0 0-31.13 30.87v42h-9.75v-16.24a11.5 11.5 0 0 0-11.37-11.64 11.55 11.55 0 0 0-11.64 11.64v16.24H8.93a9.06 9.06 0 0 1-8.93-9.2V139.45a4 4 0 0 1 .27-1.9v-22.47A1 1 0 0 1 1.35 114h15.43a1.17 1.17 0 0 1 1.08 1.09zm108.31-67.15h14.08a.72.72 0 0 1 .82.81v27.62a.72.72 0 0 1-.82.81h-14.08c-.54 0-1.08-.27-1.08-.81V63.9c0-.54.54-.81 1.08-.81zm40.35 0h14.08a.72.72 0 0 1 .81.81v27.62a.72.72 0 0 1-.81.81h-14.08c-.54 0-1.08-.27-1.08-.81V63.9c0-.54.54-.81 1.08-.81zm40.34 0H221a.71.71 0 0 1 .8.81v27.62a.71.71 0 0 1-.8.81h-14.14c-.54 0-1.08-.27-1.08-.81V63.9c0-.54.54-.81 1.08-.81z" fill="#333" fill-rule="evenodd" data-name="1"/></g></svg>