<svg xmlns="http://www.w3.org/2000/svg" viewBox="0 0 39.08 44.66"><defs><style>.cls-1{fill:#fff}</style></defs><g id="Layer_2" data-name="Layer 2"><g id="Layer_1-2" data-name="Layer 1"><path class="cls-1" d="M36.29 5.58H33.5V2.79A2.79 2.79 0 0 0 30.71 0H2.79A2.79 2.79 0 0 0 0 2.79v33.5a2.79 2.79 0 0 0 2.79 2.79h2.79v2.79a2.79 2.79 0 0 0 2.79 2.79h27.92a2.79 2.79 0 0 0 2.79-2.79V8.38a2.79 2.79 0 0 0-2.79-2.8zM2.79 36.29V2.79h27.92v33.5zm33.5 5.58H8.37v-2.79h22.34a2.79 2.79 0 0 0 2.79-2.79V8.38h2.79z"/><path class="cls-1" d="M26.52 8.38h-14a1.39 1.39 0 1 0 0 2.78h14a1.39 1.39 0 1 0 0-2.78zM26.52 16.75H7a1.4 1.4 0 1 0 0 2.79h19.52a1.4 1.4 0 0 0 0-2.79zM26.52 22.33H7a1.4 1.4 0 1 0 0 2.79h19.52a1.4 1.4 0 0 0 0-2.79zM26.52 27.91H7a1.4 1.4 0 0 0 0 2.8h19.52a1.4 1.4 0 0 0 0-2.8z"/></g></g></svg>