<?xml version="1.0" encoding="utf-8"?>
<svg xmlns="http://www.w3.org/2000/svg">
<symbol id="asset1" viewBox="0 0 60.86 50.17"><defs><style>.cls-1{fill:#fff;}</style></defs><title>Asset 1</title><g id="Layer_2" data-name="Layer 2"><g id="Layer_1-2" data-name="Layer 1"><path class="cls-1" d="M55.2,16.52A3.44,3.44,0,1,0,58.65,20,3.45,3.45,0,0,0,55.2,16.52Zm-49.53,0A3.44,3.44,0,1,0,9.11,20,3.45,3.45,0,0,0,5.67,16.52ZM45,10.25a5.13,5.13,0,1,0,5.13,5.13A5.12,5.12,0,0,0,45,10.25ZM60.86,41.43H55V30.68a10,10,0,0,0-1.42-5.06A5.58,5.58,0,0,1,60.86,31ZM15.91,10.25A5.13,5.13,0,1,0,21,15.38,5.13,5.13,0,0,0,15.91,10.25ZM5.67,25.36a5.69,5.69,0,0,1,1.59.26,9.92,9.92,0,0,0-1.42,5.06V41.43H0V31A5.67,5.67,0,0,1,5.67,25.36ZM30.43,0A7.59,7.59,0,1,0,38,7.58,7.6,7.6,0,0,0,30.43,0ZM53.14,45.43h-9V29.07a13.49,13.49,0,0,0-1.56-6.22,8.09,8.09,0,0,1,2.31-.37,8.2,8.2,0,0,1,8.2,8.2ZM16.66,29.07V45.43H7.72V30.68a8.2,8.2,0,0,1,8.2-8.2,7.84,7.84,0,0,1,2.29.37A13.6,13.6,0,0,0,16.66,29.07Zm1.88,21.1H42.31V29.07a11.89,11.89,0,1,0-23.77,0Z"/></g></g>
</symbol>
<symbol id="asset2" viewBox="0 0 52.37 50.01"><defs><style>.cls-1{fill:#fff;}</style></defs><title>Asset 2</title><g id="Layer_2" data-name="Layer 2"><g id="Layer_1-2" data-name="Layer 1"><path class="cls-1" d="M51.5,21.3,37.86,31.22l5.21,16a2.13,2.13,0,0,1-.76,2.36,2.11,2.11,0,0,1-1.24.4,2.08,2.08,0,0,1-1.24-.4L26.19,39.7,12.54,49.61a2.09,2.09,0,0,1-2.47,0,2.12,2.12,0,0,1-.77-2.36l5.21-16L.87,21.3A2.1,2.1,0,0,1,.1,19a2.13,2.13,0,0,1,2-1.46H19l5.21-16a2.11,2.11,0,0,1,4,0l5.21,16H50.26A2.1,2.1,0,0,1,51.5,21.3Z"/></g></g>
</symbol>
<symbol id="asset3" viewBox="0 0 39.08 44.66"><defs><style>.cls-1{fill:#fff;}</style></defs><title>Asset 3</title><g id="Layer_2" data-name="Layer 2"><g id="Layer_1-2" data-name="Layer 1"><path class="cls-1" d="M36.29,5.58H33.5V2.79A2.79,2.79,0,0,0,30.71,0H2.79A2.79,2.79,0,0,0,0,2.79v33.5a2.79,2.79,0,0,0,2.79,2.79H5.58v2.79a2.79,2.79,0,0,0,2.79,2.79H36.29a2.79,2.79,0,0,0,2.79-2.79V8.38A2.79,2.79,0,0,0,36.29,5.58ZM2.79,36.29V2.79H30.71v33.5Zm33.5,5.58H8.37V39.08H30.71a2.79,2.79,0,0,0,2.79-2.79V8.38h2.79Z"/><path class="cls-1" d="M26.52,8.38h-14a1.39,1.39,0,1,0,0,2.78h14a1.39,1.39,0,1,0,0-2.78Z"/><path class="cls-1" d="M26.52,16.75H7a1.4,1.4,0,1,0,0,2.79H26.52a1.4,1.4,0,0,0,0-2.79Z"/><path class="cls-1" d="M26.52,22.33H7a1.4,1.4,0,1,0,0,2.79H26.52a1.4,1.4,0,0,0,0-2.79Z"/><path class="cls-1" d="M26.52,27.91H7a1.4,1.4,0,0,0,0,2.8H26.52a1.4,1.4,0,0,0,0-2.8Z"/></g></g>
</symbol>
<symbol id="asset6" viewBox="0 0 268.49 268.48"><defs><style>.cls-1{fill:#333;}</style></defs><title>Asset 6</title><g id="Layer_2" data-name="Layer 2"><g id="Layer_1-2" data-name="Layer 1"><path class="cls-1" d="M134.24,0A134.24,134.24,0,1,0,268.49,134.24,134.24,134.24,0,0,0,134.24,0Zm0,234.92A100.68,100.68,0,1,1,234.92,134.24,100.79,100.79,0,0,1,134.24,234.92ZM201.36,151h-83.9V67.12H151v50.34h50.34Z"/></g></g>
</symbol>
<symbol id="asset7" viewBox="0 0 347.12 283.76"><defs><style>.cls-1{fill:#333;fill-rule:evenodd;}</style></defs><title>Asset 7</title><g id="Layer_2" data-name="Layer 2"><g id="_1" data-name="1"><path class="cls-1" d="M17.86,130.24H33V115.08A1.17,1.17,0,0,1,34.11,114H49.82a1.17,1.17,0,0,1,1.08,1.09v15.16H66.06V115.08A1.17,1.17,0,0,1,67.14,114H82.58a1.17,1.17,0,0,1,1.08,1.09v15.16h17.61V28.43h0V.81c0-.54.53-.81,1.07-.81h14.08a.72.72,0,0,1,.82.81V11.1H127V.81a.86.86,0,0,1,.81-.81h14.36a.86.86,0,0,1,.81.81V11.1h9.75V.81a.72.72,0,0,1,.81-.81h14.07c.54,0,1.09.27,1.09.81V11.1h9.75V.81a.72.72,0,0,1,.81-.81h14.08c.55,0,1.08.27,1.08.81V11.1h9.76V.81A.71.71,0,0,1,205,0h14.09c.55,0,1.09.27,1.09.81V11.1h9.47V.81c0-.54.54-.81,1.08-.81h14.08a.72.72,0,0,1,.81.81V28.43h0V130.24h17.88V115.08a1.16,1.16,0,0,1,1.07-1.09h15.72a1.17,1.17,0,0,1,1.08,1.09v15.16h15.15V115.08a1,1,0,0,1,1.09-1.09H313a1.17,1.17,0,0,1,1.09,1.09v15.16h15.15V115.08a1.17,1.17,0,0,1,1.1-1.09H346a1.17,1.17,0,0,1,1.08,1.09V274.56a9.13,9.13,0,0,1-9.21,9.2H238.26V267.52a11.49,11.49,0,0,0-11.37-11.64h0a11.56,11.56,0,0,0-11.64,11.64v16.24H204.42v-42a30.85,30.85,0,0,0-30.87-30.87h0a31.09,31.09,0,0,0-31.13,30.87v42h-9.75V267.52a11.5,11.5,0,0,0-11.37-11.64h0a11.55,11.55,0,0,0-11.64,11.64v16.24H8.93A9.06,9.06,0,0,1,0,274.56V139.45a4,4,0,0,1,.27-1.9V115.08A1,1,0,0,1,1.35,114H16.78a1.17,1.17,0,0,1,1.08,1.09ZM126.17,63.09h14.08a.72.72,0,0,1,.82.81V91.52a.72.72,0,0,1-.82.81H126.17c-.54,0-1.08-.27-1.08-.81V63.9c0-.54.54-.81,1.08-.81Zm40.35,0H180.6a.72.72,0,0,1,.81.81V91.52a.72.72,0,0,1-.81.81H166.52c-.54,0-1.08-.27-1.08-.81V63.9c0-.54.54-.81,1.08-.81Zm40.34,0H221a.71.71,0,0,1,.8.81V91.52a.71.71,0,0,1-.8.81H206.86c-.54,0-1.08-.27-1.08-.81V63.9c0-.54.54-.81,1.08-.81Z"/></g></g>
</symbol>
<symbol id="asset8" viewBox="0 0 380.94 259.25"><defs><style>.cls-1{fill:#333;fill-rule:evenodd;}</style></defs><title>Asset 8</title><g id="Layer_2" data-name="Layer 2"><g id="_1" data-name="1"><path class="cls-1" d="M29.62,142.14,172,0l63.53,63.54L93.15,206ZM0,173.64l29.62-31.5L41.19,154l11.58,11.58ZM169.07,130l50.07,50.08a30.81,30.81,0,0,0-13.74,13.72l-50.07-50.08Zm63.53,46.85a30.56,30.56,0,1,0,30.69,30.68,30.61,30.61,0,0,0-30.69-30.68Zm0,18.58a12,12,0,1,0,0,23.95,12,12,0,1,0,0-23.95Zm97.46,0H260.87a30.44,30.44,0,0,1,2.42,12.1,29.21,29.21,0,0,1-2.42,11.85h69.19Zm0-24.78h25.57v73.49H330.06Zm25.57-14.8h25.31V259.25H355.63Z"/></g></g>
</symbol>
<symbol id="asset9" viewBox="0 0 159.5 286.76"><defs><style>.cls-1{fill:#333;fill-rule:evenodd;}</style></defs><title>Asset 9</title><g id="Layer_2" data-name="Layer 2"><g id="_1" data-name="1"><path class="cls-1" d="M10.46,0H149A10.49,10.49,0,0,1,159.5,10.47V276.3A10.48,10.48,0,0,1,149,286.76H10.46A10.48,10.48,0,0,1,0,276.3V10.47A10.49,10.49,0,0,1,10.46,0ZM142.63,20.72V241.49h-126V20.72ZM69.39,252.6H90.11a1.46,1.46,0,0,1,1.49,1.49v18.37a1.43,1.43,0,0,1-1.49,1.28H69.39a1.43,1.43,0,0,1-1.49-1.28V254.09a1.46,1.46,0,0,1,1.49-1.49ZM79.64,94.38a36.73,36.73,0,1,1-36.72,36.73A36.9,36.9,0,0,1,79.64,94.38ZM57.86,134.1l1.93-1.93a2.33,2.33,0,0,1,3.2,0l7.47,7.69,26.05-26.05a2,2,0,0,1,3.2,0l1.92,1.93a2,2,0,0,1,0,3L74.09,146.48,72,148.4h0v.21h-.22v.22h-.42V149H69.6v-.21h-.21l-.21-.22H69v-.21h0L67,146.48l-9.18-9.18a2.33,2.33,0,0,1,0-3.2Z"/></g></g>
</symbol>
<symbol id="slide" viewBox="0 0 24 47">
<rect x="1" y="1" width="22" height="45" rx="11" stroke="white" stroke-width="2"/>
<ellipse cx="12" cy="11.1183" rx="6.26087" ry="6.06452" fill="white"/>

</symbol></svg>