<svg xmlns="http://www.w3.org/2000/svg" viewBox="0 0 60.86 50.17"><g data-name="Layer 2"><path d="M55.2 16.52A3.44 3.44 0 1 0 58.65 20a3.45 3.45 0 0 0-3.45-3.48zm-49.53 0A3.44 3.44 0 1 0 9.11 20a3.45 3.45 0 0 0-3.44-3.48zM45 10.25a5.13 5.13 0 1 0 5.13 5.13A5.12 5.12 0 0 0 45 10.25zm15.86 31.18H55V30.68a10 10 0 0 0-1.42-5.06A5.58 5.58 0 0 1 60.86 31zM15.91 10.25A5.13 5.13 0 1 0 21 15.38a5.13 5.13 0 0 0-5.09-5.13zM5.67 25.36a5.69 5.69 0 0 1 1.59.26 9.92 9.92 0 0 0-1.42 5.06v10.75H0V31a5.67 5.67 0 0 1 5.67-5.64zM30.43 0A7.59 7.59 0 1 0 38 7.58 7.6 7.6 0 0 0 30.43 0zm22.71 45.43h-9V29.07a13.49 13.49 0 0 0-1.56-6.22 8.09 8.09 0 0 1 2.31-.37 8.2 8.2 0 0 1 8.2 8.2zM16.66 29.07v16.36H7.72V30.68a8.2 8.2 0 0 1 8.2-8.2 7.84 7.84 0 0 1 2.29.37 13.6 13.6 0 0 0-1.55 6.22zm1.88 21.1h23.77v-21.1a11.89 11.89 0 1 0-23.77 0z" fill="#fff" data-name="Layer 1"/></g></svg>