<svg data-name="Layer 1" xmlns="http://www.w3.org/2000/svg" viewBox="0 0 500 500"><path d="M393.82 283.45H106a2.88 2.88 0 0 1-2.88-2.88V77.88A2.88 2.88 0 0 1 106 75h287.82a2.88 2.88 0 0 1 2.89 2.88v202.69a2.88 2.88 0 0 1-2.89 2.88zm-284.95-5.77h282.07V80.77H108.87z"/><path d="M393.82 284H106a3.39 3.39 0 0 1-3.38-3.38V77.88A3.39 3.39 0 0 1 106 74.5h287.82a3.39 3.39 0 0 1 3.39 3.38v202.69a3.39 3.39 0 0 1-3.39 3.43zM106 75.5a2.39 2.39 0 0 0-2.38 2.38v202.69A2.39 2.39 0 0 0 106 283h287.82a2.39 2.39 0 0 0 2.39-2.38V77.88a2.39 2.39 0 0 0-2.39-2.38zm285.44 202.68H108.37V80.27h283.07zm-282.07-1h281.07V81.27H109.37z"/><path d="M374.24 263.84H125.57a2.88 2.88 0 0 1-2.89-2.88V97.49a2.88 2.88 0 0 1 2.89-2.88h248.67a2.89 2.89 0 0 1 2.89 2.88V261a2.89 2.89 0 0 1-2.89 2.84zm-245.79-5.76h242.91v-157.7H128.45z"/><path d="M374.24 264.34H125.57a3.38 3.38 0 0 1-3.39-3.38V97.49a3.39 3.39 0 0 1 3.39-3.38h248.67a3.39 3.39 0 0 1 3.39 3.38V261a3.38 3.38 0 0 1-3.39 3.34zM125.57 95.11a2.39 2.39 0 0 0-2.39 2.38V261a2.38 2.38 0 0 0 2.39 2.38h248.67a2.38 2.38 0 0 0 2.39-2.38V97.49a2.39 2.39 0 0 0-2.39-2.38zm246.29 163.47H128V99.88h243.86zm-242.91-1h241.91v-156.7H129zM294.26 324.31h-88.65a2.88 2.88 0 0 1-2.74-3.77l13.07-40.85a2.88 2.88 0 0 1 2.75-2h62.4a2.87 2.87 0 0 1 2.74 2l12.88 40.22a2.8 2.8 0 0 1 .43 1.51 2.88 2.88 0 0 1-2.88 2.89zm-84.7-5.77h80.66L279 283.45h-58.21z"/><path d="M294.28 324.81h-88.67a3.39 3.39 0 0 1-3.22-4.42l13.07-40.85a3.38 3.38 0 0 1 3.23-2.36h62.4a3.37 3.37 0 0 1 3.22 2.36l12.86 40.16a3.34 3.34 0 0 1 .47 1.72 3.39 3.39 0 0 1-3.33 3.39zm-.06-1a2.39 2.39 0 0 0 2-3.64l-.05-.11-12.88-40.22a2.38 2.38 0 0 0-2.27-1.66h-62.4a2.36 2.36 0 0 0-2.27 1.66l-13.08 40.85a2.4 2.4 0 0 0 2.27 3.12zm-3.31-4.81h-82l11.52-36h58.92zm-80.66-1h79.29l-10.92-34h-57.46z"/><path d="M249.89 310.07A9.08 9.08 0 1 1 259 301a9.07 9.07 0 0 1-9.11 9.07zm0-12.38a3.31 3.31 0 1 0 3.3 3.31 3.3 3.3 0 0 0-3.3-3.31z"/><path d="M249.89 310.57a9.58 9.58 0 1 1 9.57-9.57 9.57 9.57 0 0 1-9.57 9.57zm0-18.15a8.58 8.58 0 1 0 8.57 8.58 8.58 8.58 0 0 0-8.57-8.58zm0 12.38a3.81 3.81 0 1 1 3.8-3.8 3.79 3.79 0 0 1-3.8 3.8zm0-6.61a2.81 2.81 0 1 0 2.8 2.81 2.8 2.8 0 0 0-2.8-2.81zM377.3 425.88H122.59a2.88 2.88 0 0 1-2.84-3.34l13.06-80.9a2.87 2.87 0 0 1 2.85-2.42h228.47a2.87 2.87 0 0 1 2.84 2.42l13 80.21a2.9 2.9 0 0 1-2.65 4zM126 420.11h247.83L361.67 345H138.11z"/><path d="M377.33 426.39H122.59a3.39 3.39 0 0 1-3.34-3.92l13.07-80.9a3.37 3.37 0 0 1 3.34-2.84h228.47a3.38 3.38 0 0 1 3.34 2.84l13 80.15a3.25 3.25 0 0 1 .25 1.28 3.39 3.39 0 0 1-3.31 3.39zm-.05-1a2.39 2.39 0 0 0 2.38-2.39 2.32 2.32 0 0 0-.19-.94v-.12l-13-80.21a2.37 2.37 0 0 0-2.35-2H135.66a2.38 2.38 0 0 0-2.36 2l-13.06 80.9a2.39 2.39 0 0 0 2.35 2.76h254.62zm-2.87-4.75h-249l12.3-76.12H362.1l.07.42zm-247.84-1h246.67l-12-74.12h-222.7z"/><path d="M345.76 361.78H154a2.88 2.88 0 1 1 0-5.76h191.76a2.88 2.88 0 1 1 0 5.76z"/><path d="M345.76 362.29H154a3.39 3.39 0 1 1 0-6.77h191.76a3.39 3.39 0 1 1 0 6.77zM154 356.52a2.39 2.39 0 1 0 0 4.77h191.76a2.39 2.39 0 1 0 0-4.77zM345.76 385.85H154a2.89 2.89 0 1 1 0-5.77h191.76a2.89 2.89 0 1 1 0 5.77z"/><path d="M345.76 386.35H154a3.39 3.39 0 1 1 0-6.77h191.76a3.39 3.39 0 1 1 0 6.77zM154 380.58a2.39 2.39 0 1 0 0 4.77h191.76a2.39 2.39 0 1 0 0-4.77zM341.18 408.29h-48.7a2.89 2.89 0 0 1 0-5.77h48.7a2.89 2.89 0 0 1 0 5.77zm-139.16 0H154a2.89 2.89 0 1 1 0-5.77h48a2.89 2.89 0 0 1 0 5.77z"/><path d="M341.18 408.79h-48.7a3.38 3.38 0 1 1 0-6.76h48.7a3.38 3.38 0 0 1 0 6.76zm-48.7-5.79a2.38 2.38 0 0 0 0 4.76h48.7a2.38 2.38 0 0 0 0-4.76zM202 408.79h-48a3.38 3.38 0 1 1 0-6.76h48a3.38 3.38 0 0 1 0 6.76zM154 403a2.38 2.38 0 1 0 0 4.76h48a2.38 2.38 0 0 0 0-4.76zM275.48 408.29h-62.92a2.89 2.89 0 0 1 0-5.77h62.92a2.89 2.89 0 0 1 0 5.77z"/><path d="M275.48 408.79h-62.92a3.38 3.38 0 0 1 0-6.76h62.92a3.38 3.38 0 0 1 0 6.76zM212.56 403a2.38 2.38 0 0 0 0 4.76h62.92a2.38 2.38 0 0 0 0-4.76zM246.24 155.14a1.46 1.46 0 0 1-.21 0H246a9.45 9.45 0 0 1-6.5-2.51 9.25 9.25 0 0 1-2.52-6.53v-.38c0-5.83 3.85-12.85 10.76-19.77a36 36 0 0 1 13-8.39 37.75 37.75 0 0 1 9.63-2.1 2.83 2.83 0 0 1 2.75 1.46 2.89 2.89 0 0 1-.19 3.12c-3 4.08-3.07 8.08-3.13 12.31-.05 4.05-.11 8.48-3.65 12-7.01 6.97-14.06 10.79-19.91 10.79zm-.1-5.8a2.56 2.56 0 0 1 .39 0c2.23-.09 7.66-1.24 15.5-9.07 1.8-1.79 1.91-4.16 2-7.89a32.13 32.13 0 0 1 1.35-10.26c-.9.24-1.79.52-2.67.83a30.12 30.12 0 0 0-10.91 7c-7.95 7.95-9 13.42-9.07 15.55v.32a3.87 3.87 0 0 0 .82 2.65 3.7 3.7 0 0 0 2.27.81z"/><path d="M246.17 155.64a1.31 1.31 0 0 1-.3 0 9.88 9.88 0 0 1-6.76-2.64 9.78 9.78 0 0 1-2.67-6.88 3.84 3.84 0 0 1 0-.39c0-6 3.9-13.11 10.91-20.12a36.57 36.57 0 0 1 13.2-8.51 38.34 38.34 0 0 1 9.76-2.13 3.38 3.38 0 0 1 3 5.38c-2.91 4-3 7.87-3 12s-.11 8.68-3.8 12.38c-7 7-14.23 10.9-20.2 10.9zm24.46-39.7a1 1 0 0 0-.24 0 37.12 37.12 0 0 0-9.52 2.07A35.46 35.46 0 0 0 248 126.3c-6.82 6.83-10.59 13.73-10.62 19.42a1.62 1.62 0 0 0 0 .31 8.83 8.83 0 0 0 2.38 6.25 8.92 8.92 0 0 0 6.15 2.36l.14.5v-.5h.11c5.72 0 12.65-3.77 19.52-10.61 3.4-3.41 3.45-7.61 3.5-11.68.06-4.32.12-8.39 3.23-12.6a2.41 2.41 0 0 0 .16-2.58 2.38 2.38 0 0 0-1.94-1.23zm-24.08 33.93a2.29 2.29 0 0 0-.69 0 4.18 4.18 0 0 1-2.68-1 4.33 4.33 0 0 1-1-3 2.46 2.46 0 0 0 0-.26c.06-2.13 1.07-7.81 9.22-16a30.52 30.52 0 0 1 11.09-7.17c.89-.32 1.8-.6 2.71-.84l.9-.23-.3.88a31.63 31.63 0 0 0-1.32 10.08c-.05 3.87-.18 6.33-2.1 8.26-7.8 7.85-13.27 9.18-15.83 9.28zm-.41-1h.46c1.86-.08 7.23-1.1 15.08-8.92 1.65-1.65 1.77-3.94 1.81-7.55a35 35 0 0 1 1.09-9.52c-.58.18-1.17.37-1.74.57a29.74 29.74 0 0 0-10.73 6.93c-7.89 7.9-8.87 13.27-8.92 15.22a2.36 2.36 0 0 1 0 .3 3.55 3.55 0 0 0 .67 2.3 3.23 3.23 0 0 0 2 .66z"/><path d="M240.23 165.09a2.89 2.89 0 0 1-2-4.94q2-2 4.07-4.06a4.48 4.48 0 0 0 1-1.43 11.19 11.19 0 0 1-3.53-2.33 11.39 11.39 0 0 1-2.36-3.53 4.14 4.14 0 0 0-1.4.95q-2.08 2.06-4 4.06a2.89 2.89 0 0 1-4.15-4c1.33-1.38 2.72-2.76 4.12-4.13a9.69 9.69 0 0 1 4.48-2.61 9.18 9.18 0 0 1 3.21-.37 2.87 2.87 0 0 1 2.71 2.46 5.49 5.49 0 0 0 1.52 3.11 5.61 5.61 0 0 0 3.1 1.48 2.88 2.88 0 0 1 2.44 2.72 10.6 10.6 0 0 1-.39 3.32 10.07 10.07 0 0 1-2.59 4.38c-1.38 1.39-2.76 2.76-4.1 4.09a2.87 2.87 0 0 1-2.13.83z"/><path d="M240.23 165.59a3.39 3.39 0 0 1-2.38-5.79c1.33-1.32 2.68-2.66 4.06-4.06a4.16 4.16 0 0 0 .65-.83 11.5 11.5 0 0 1-3.2-2.23 11.73 11.73 0 0 1-2.25-3.21 4 4 0 0 0-.81.64c-1.39 1.37-2.73 2.71-4 4a3.39 3.39 0 0 1-5.81-2.3 3.38 3.38 0 0 1 1-2.41c1.16-1.21 2.47-2.52 4.12-4.14a10.22 10.22 0 0 1 4.71-2.74 9.65 9.65 0 0 1 3.35-.38 3.37 3.37 0 0 1 3.18 2.88 4.91 4.91 0 0 0 1.39 2.83 5.13 5.13 0 0 0 2.82 1.35 3.4 3.4 0 0 1 2.86 3.19 11 11 0 0 1-.41 3.48 10.47 10.47 0 0 1-2.72 4.59c-1.38 1.4-2.75 2.76-4.1 4.1a3.37 3.37 0 0 1-2.46 1.03zm-2.61-17.44l.19.45a10.89 10.89 0 0 0 2.26 3.38 10.63 10.63 0 0 0 3.36 2.22l.46.19-.19.46a4.78 4.78 0 0 1-1.08 1.59c-1.38 1.4-2.73 2.75-4.07 4.07a2.37 2.37 0 0 0-.7 1.68 2.33 2.33 0 0 0 .69 1.69 2.42 2.42 0 0 0 3.36 0q2-2 4.1-4.09a9.53 9.53 0 0 0 2.47-4.17 10.18 10.18 0 0 0 .37-3.16 2.39 2.39 0 0 0-2-2.24 6.19 6.19 0 0 1-3.37-1.63 5.87 5.87 0 0 1-1.66-3.39 2.38 2.38 0 0 0-2.25-2 8.59 8.59 0 0 0-3 .35 9.21 9.21 0 0 0-4.28 2.48c-1.64 1.61-2.95 2.92-4.11 4.12a2.4 2.4 0 0 0-.67 1.7 2.34 2.34 0 0 0 .73 1.67 2.38 2.38 0 0 0 1.7.68 2.34 2.34 0 0 0 1.66-.73c1.31-1.35 2.66-2.69 4.06-4.06a4.78 4.78 0 0 1 1.56-1.07z"/><path d="M230.93 174.17a2.89 2.89 0 0 1-2-.85l-10.18-10.2a2.87 2.87 0 0 1 0-4.05l2-2c2.44-2.5 6.18-6.33 7.15-7.29a2.88 2.88 0 1 1 4.08 4.07c-1 1-4.65 4.74-7.08 7.22l6.15 6.17 2.86-2.79 4.39-4.29a2.89 2.89 0 0 1 4.06 4.11l-4.43 4.31-4.93 4.75a2.83 2.83 0 0 1-2.07.84z"/><path d="M230.93 174.67a3.33 3.33 0 0 1-2.4-1l-10.18-10.2a3.39 3.39 0 0 1 0-4.75l2-2c2.44-2.5 6.18-6.33 7.15-7.3a3.4 3.4 0 0 1 2.39-1 3.36 3.36 0 0 1 2.39 1 3.4 3.4 0 0 1 1 2.39 3.36 3.36 0 0 1-1 2.39c-.68.68-2.76 2.81-4.77 4.87l-2 2 5.46 5.46 6.89-6.73a3.39 3.39 0 1 1 4.76 4.82l-4.43 4.32c-2.07 2-4.2 4.09-4.87 4.76a3.39 3.39 0 0 1-2.39.97zm-1.09-25.25a2.37 2.37 0 0 0-1.68.7c-1 1-4.7 4.79-7.14 7.29l-2 2a2.39 2.39 0 0 0 0 3.35L229.24 173a2.44 2.44 0 0 0 3.36 0l4.88-4.76 4.43-4.32a2.39 2.39 0 1 0-3.36-3.39l-7.6 7.42-6.86-6.86 2.65-2.71c2-2.06 4.1-4.19 4.78-4.87a2.39 2.39 0 0 0-1.68-4.07z"/><path d="M179.54 215.53a3.29 3.29 0 0 1-2.16-.88c-1.82-2-.65-4.23 2-8.67 5.64-9.72 19.61-26.37 39.34-46.89a2.9 2.9 0 0 1 2.05-.89 2.54 2.54 0 0 1 2.07.85l10.16 10.2a2.9 2.9 0 0 1 .84 2.07 2.86 2.86 0 0 1-.89 2c-20.47 19.68-37.12 33.68-46.9 39.37-4.56 2.63-5.6 2.84-6.51 2.84zm41.25-50.32c-16.12 16.89-28.39 31.31-34.51 40.53 9.24-6.15 23.66-18.42 40.53-34.5z"/><path d="M179.54 216a3.72 3.72 0 0 1-2.51-1c-2.16-2.4-.56-5.13 1.87-9.28 5.66-9.75 19.66-26.44 39.41-47a3.4 3.4 0 0 1 2.41-1 3 3 0 0 1 2.42 1l10.18 10.2a3.37 3.37 0 0 1 0 4.82c-20.48 19.68-37.16 33.67-47 39.4-4.69 2.68-5.77 2.86-6.78 2.86zm41.37-57.33h-.16a2.46 2.46 0 0 0-1.72.73c-19.7 20.49-33.64 37.11-39.27 46.8-2.71 4.64-3.52 6.41-2 8.09a2.75 2.75 0 0 0 1.79.7c.8 0 1.82-.2 6.26-2.76 9.74-5.7 26.35-19.64 46.78-39.26a2.39 2.39 0 0 0 .73-1.69 2.42 2.42 0 0 0-.7-1.71l-10.18-10.2a2 2 0 0 0-1.53-.68zm-36.42 48.85l1.37-2.07c6.17-9.29 18.45-23.71 34.57-40.61l.35-.37 6.74 6.76-.37.35c-16.88 16.09-31.3 28.37-40.59 34.56zm36.31-41.62c-14.68 15.41-26.12 28.72-32.59 37.89 9.18-6.49 22.48-17.92 37.88-32.58zM209 243a2.89 2.89 0 0 1-2.69-3.94l10.37-26.48a3 3 0 0 1 .73-1.07l64.95-60a2.89 2.89 0 0 1 4.07.16L303.27 170a2.84 2.84 0 0 1 .73 2 2.87 2.87 0 0 1-.92 2l-65 60a2.83 2.83 0 0 1-1.13.64l-27.24 8.22a2.92 2.92 0 0 1-.71.14zm12.81-27.7l-8 20.34 20.92-6.3 62.35-57.58-13-14z"/><path d="M209 243.51a3.41 3.41 0 0 1-2.49-1.09 3.36 3.36 0 0 1-.66-3.53l10.37-26.48a3.47 3.47 0 0 1 .85-1.26l65-60a3.39 3.39 0 0 1 4.78.18l16.88 18.27a3.37 3.37 0 0 1-.19 4.78l-65 60a3.36 3.36 0 0 1-1.32.75l-27.24 8.21a3.27 3.27 0 0 1-.98.17zm75.32-92.23a2.4 2.4 0 0 0-1.62.63l-65 60a2.34 2.34 0 0 0-.6.88l-10.37 26.49a2.34 2.34 0 0 0 .47 2.48 2.36 2.36 0 0 0 2.44.67l27.23-8.21a2.54 2.54 0 0 0 .94-.54l64.95-60a2.42 2.42 0 0 0 .77-1.66 2.39 2.39 0 0 0-.63-1.71L286 152a2.4 2.4 0 0 0-1.72-.72zM213 236.43l8.35-21.43.08-.08L284.14 157l13.65 14.76-.37.34L235 229.79zm9.23-20.83l-7.54 19.28 19.82-6 61.9-57.16-12.28-13.3z"/><path d="M235.36 233a2.54 2.54 0 0 1-2.46-1.92l-.78-3-2-.15a2.55 2.55 0 0 1-2.33-2.14l-.51-3.18H225a2.54 2.54 0 0 1-2.54-2.56v-2.26l-3.17-.51a2.54 2.54 0 0 1 .8-5l5.32.84a2.53 2.53 0 0 1 2.15 2.52v1.89h1.91a2.56 2.56 0 0 1 2.52 2.14l.53 3.35 1.83.14a2.55 2.55 0 0 1 2.28 1.91l1.22 4.81a2.55 2.55 0 0 1-1.84 3.1 2.72 2.72 0 0 1-.65.02z"/><path d="M235.36 233.5a3 3 0 0 1-3-2.3l-.68-2.69-1.65-.12a3.05 3.05 0 0 1-2.78-2.56l-.44-2.76H225a3.06 3.06 0 0 1-3-3.06v-1.84l-2.75-.43a3.06 3.06 0 0 1-2.53-3.49 3 3 0 0 1 1.24-2 3 3 0 0 1 2.25-.53l5.32.84a3 3 0 0 1 2.57 3V217h1.41a3 3 0 0 1 3 2.56l.48 3 1.43.11a3 3 0 0 1 2.72 2.29l1.23 4.81a3.05 3.05 0 0 1-2.2 3.7 2.84 2.84 0 0 1-.81.03zm-15.7-20.82a2 2 0 0 0-1.17.38 2 2 0 0 0-.83 1.35 2 2 0 0 0 1.7 2.34l3.59.57V220a2 2 0 0 0 2 2.06h2.73l.58 3.6a2.05 2.05 0 0 0 1.87 1.72l2.36.17.86 3.4a2 2 0 0 0 4-1l-1.23-4.82a2 2 0 0 0-1.83-1.54l-2.22-.16-.6-3.74a2 2 0 0 0-2-1.72H227v-2.39a2 2 0 0 0-1.73-2l-5.32-.84a2 2 0 0 0-.29-.06zM302 173.66a2.89 2.89 0 0 1-2-.84l-17.6-17.58a2.9 2.9 0 0 1-.85-2 2.87 2.87 0 0 1 .85-2l4.6-4.59a9.55 9.55 0 0 1 13.18 0l8.47 8.45a9.3 9.3 0 0 1 2.73 6.67 9.17 9.17 0 0 1-2.74 6.55l-4.56 4.56a2.85 2.85 0 0 1-2.08.78zm-13.5-20.46l13.5 13.5 2.53-2.54a3.42 3.42 0 0 0 1-2.49 3.56 3.56 0 0 0-1-2.57l-8.47-8.45a3.64 3.64 0 0 0-5 0z"/><path d="M302 174.16a3.36 3.36 0 0 1-2.39-1L282 155.59a3.37 3.37 0 0 1 0-4.79l4.59-4.58a9.76 9.76 0 0 1 6.93-2.78 9.82 9.82 0 0 1 6.95 2.79l8.47 8.45a9.81 9.81 0 0 1 2.88 7 9.7 9.7 0 0 1-2.89 6.91l-4.56 4.56a3.32 3.32 0 0 1-2.37 1.01zm-8.46-29.72a8.8 8.8 0 0 0-6.23 2.49l-4.59 4.58a2.35 2.35 0 0 0 0 3.37l17.6 17.58a2.43 2.43 0 0 0 3.37 0l4.55-4.56a8.67 8.67 0 0 0 2.6-6.2 8.88 8.88 0 0 0-2.58-6.32l-8.47-8.44a8.83 8.83 0 0 0-6.23-2.5zm8.46 23l-14.21-14.24 2.92-2.91a4 4 0 0 1 2.84-1.15 4 4 0 0 1 2.87 1.16l8.47 8.45a4 4 0 0 1 1.19 2.92 4 4 0 0 1-1.18 2.85zm-12.79-14.24L302 166l2.18-2.19a3 3 0 0 0 .89-2.14 3.1 3.1 0 0 0-.89-2.22l-8.45-8.45a3.08 3.08 0 0 0-2.17-.87 3 3 0 0 0-2.13.85z"/></svg>