<?xml version="1.0" encoding="utf-8"?>
<svg xmlns="http://www.w3.org/2000/svg">
<symbol id="asset1" viewBox="0 0 60.86 50.17"><defs><style>.cls-1{fill:#fff;}</style></defs><title>Asset 1</title><g id="Layer_2" data-name="Layer 2"><g id="Layer_1-2" data-name="Layer 1"><path class="cls-1" d="M55.2,16.52A3.44,3.44,0,1,0,58.65,20,3.45,3.45,0,0,0,55.2,16.52Zm-49.53,0A3.44,3.44,0,1,0,9.11,20,3.45,3.45,0,0,0,5.67,16.52ZM45,10.25a5.13,5.13,0,1,0,5.13,5.13A5.12,5.12,0,0,0,45,10.25ZM60.86,41.43H55V30.68a10,10,0,0,0-1.42-5.06A5.58,5.58,0,0,1,60.86,31ZM15.91,10.25A5.13,5.13,0,1,0,21,15.38,5.13,5.13,0,0,0,15.91,10.25ZM5.67,25.36a5.69,5.69,0,0,1,1.59.26,9.92,9.92,0,0,0-1.42,5.06V41.43H0V31A5.67,5.67,0,0,1,5.67,25.36ZM30.43,0A7.59,7.59,0,1,0,38,7.58,7.6,7.6,0,0,0,30.43,0ZM53.14,45.43h-9V29.07a13.49,13.49,0,0,0-1.56-6.22,8.09,8.09,0,0,1,2.31-.37,8.2,8.2,0,0,1,8.2,8.2ZM16.66,29.07V45.43H7.72V30.68a8.2,8.2,0,0,1,8.2-8.2,7.84,7.84,0,0,1,2.29.37A13.6,13.6,0,0,0,16.66,29.07Zm1.88,21.1H42.31V29.07a11.89,11.89,0,1,0-23.77,0Z"/></g></g>
</symbol>
<symbol id="asset2" viewBox="0 0 52.37 50.01"><defs><style>.cls-1{fill:#fff;}</style></defs><title>Asset 2</title><g id="Layer_2" data-name="Layer 2"><g id="Layer_1-2" data-name="Layer 1"><path class="cls-1" d="M51.5,21.3,37.86,31.22l5.21,16a2.13,2.13,0,0,1-.76,2.36,2.11,2.11,0,0,1-1.24.4,2.08,2.08,0,0,1-1.24-.4L26.19,39.7,12.54,49.61a2.09,2.09,0,0,1-2.47,0,2.12,2.12,0,0,1-.77-2.36l5.21-16L.87,21.3A2.1,2.1,0,0,1,.1,19a2.13,2.13,0,0,1,2-1.46H19l5.21-16a2.11,2.11,0,0,1,4,0l5.21,16H50.26A2.1,2.1,0,0,1,51.5,21.3Z"/></g></g>
</symbol>
<symbol id="asset3" viewBox="0 0 39.08 44.66"><defs><style>.cls-1{fill:#fff;}</style></defs><title>Asset 3</title><g id="Layer_2" data-name="Layer 2"><g id="Layer_1-2" data-name="Layer 1"><path class="cls-1" d="M36.29,5.58H33.5V2.79A2.79,2.79,0,0,0,30.71,0H2.79A2.79,2.79,0,0,0,0,2.79v33.5a2.79,2.79,0,0,0,2.79,2.79H5.58v2.79a2.79,2.79,0,0,0,2.79,2.79H36.29a2.79,2.79,0,0,0,2.79-2.79V8.38A2.79,2.79,0,0,0,36.29,5.58ZM2.79,36.29V2.79H30.71v33.5Zm33.5,5.58H8.37V39.08H30.71a2.79,2.79,0,0,0,2.79-2.79V8.38h2.79Z"/><path class="cls-1" d="M26.52,8.38h-14a1.39,1.39,0,1,0,0,2.78h14a1.39,1.39,0,1,0,0-2.78Z"/><path class="cls-1" d="M26.52,16.75H7a1.4,1.4,0,1,0,0,2.79H26.52a1.4,1.4,0,0,0,0-2.79Z"/><path class="cls-1" d="M26.52,22.33H7a1.4,1.4,0,1,0,0,2.79H26.52a1.4,1.4,0,0,0,0-2.79Z"/><path class="cls-1" d="M26.52,27.91H7a1.4,1.4,0,0,0,0,2.8H26.52a1.4,1.4,0,0,0,0-2.8Z"/></g></g>
</symbol>
<symbol id="boxproject_string" viewBox="0 0 964.37 240.89"><title>Boxproject_string</title><path d="M326.45,149.71a135.76,135.76,0,0,1,25.61-2.25c14,0,23,2.41,29.81,7.89,5.64,4.19,9,10.63,9,19.17,0,10.47-6.93,19.65-18.37,23.84v.33c10.32,2.57,22.4,11.11,22.4,27.22a29.29,29.29,0,0,1-9.18,21.75c-7.58,6.93-19.82,10.15-37.54,10.15a162.79,162.79,0,0,1-21.75-1.29Zm14,44.46h12.72c14.82,0,23.52-7.73,23.52-18.2,0-12.73-9.66-17.72-23.84-17.72a59.48,59.48,0,0,0-12.4,1Zm0,52a75,75,0,0,0,11.76.65c14.5,0,27.87-5.32,27.87-21.11,0-14.82-12.73-20.94-28-20.94H340.47Z" transform="translate(-64.48 -74.87)"/><path d="M484.49,217.21c0,28.84-20,41.41-38.83,41.41-21.1,0-37.37-15.47-37.37-40.12,0-26.1,17.08-41.4,38.66-41.4C469.35,177.1,484.49,193.37,484.49,217.21Zm-61.86.81c0,17.07,9.82,30,23.68,30C459.84,248,470,235.26,470,217.7c0-13.21-6.6-30-23.36-30S422.63,203.2,422.63,218Z" transform="translate(-64.48 -74.87)"/><path d="M506.72,178.87l11.12,16.76c2.9,4.34,5.32,8.37,7.89,12.72h.49c2.57-4.67,5.15-8.7,7.73-12.89l10.95-16.59h15.31l-26.58,37.7L561,256.84H544.9l-11.43-17.56c-3.06-4.51-5.64-8.86-8.38-13.53h-.32c-2.58,4.67-5.32,8.86-8.22,13.53l-11.28,17.56H489.65l27.71-39.79-26.42-38.18Z" transform="translate(-64.48 -74.87)"/><path d="M575.19,149.55a162.32,162.32,0,0,1,26.9-2.09c13.86,0,24,3.22,30.45,9,6,5.15,9.51,13.05,9.51,22.71,0,9.83-2.9,17.56-8.38,23.2-7.41,7.9-19.49,11.92-33.19,11.92a48.54,48.54,0,0,1-11.27-1v43.49h-14Zm14,52.36a47.22,47.22,0,0,0,11.6,1.13c16.91,0,27.22-8.22,27.22-23.2,0-14.34-10.15-21.27-25.61-21.27a58.41,58.41,0,0,0-13.21,1.13Z" transform="translate(-64.48 -74.87)"/><path d="M657.84,203.2c0-9.19-.16-17.08-.65-24.33H669.6l.48,15.3h.65c3.54-10.47,12.08-17.07,21.58-17.07a15.47,15.47,0,0,1,4,.48V191a21.43,21.43,0,0,0-4.83-.48c-10,0-17.08,7.57-19,18.2a40.21,40.21,0,0,0-.65,6.61v41.56h-14Z" transform="translate(-64.48 -74.87)"/><path d="M779.47,217.21c0,28.84-20,41.41-38.82,41.41-21.11,0-37.38-15.47-37.38-40.12,0-26.1,17.08-41.4,38.66-41.4C764.33,177.1,779.47,193.37,779.47,217.21Zm-61.86.81c0,17.07,9.82,30,23.68,30C754.82,248,765,235.26,765,217.7c0-13.21-6.6-30-23.36-30S717.61,203.2,717.61,218Z" transform="translate(-64.48 -74.87)"/><path d="M778.34,279.4c6.45-.49,12.08-2.26,15.47-6,3.86-4.51,5.31-10.64,5.31-29.32V178.87H813.3v70.72c0,15.15-2.42,25-9.34,32.06-6.29,6.29-16.6,8.86-24.17,8.86ZM814.91,157c.16,4.67-3.22,8.7-8.86,8.7a8.47,8.47,0,0,1-8.7-8.7,8.68,8.68,0,0,1,9-8.86C811.53,148.1,814.91,152,814.91,157Z" transform="translate(-64.48 -74.87)"/><path d="M844.39,220.43c.33,19.18,12.57,27.07,26.75,27.07,10.15,0,16.27-1.77,21.58-4l2.42,10.15c-5,2.26-13.53,4.84-25.94,4.84-24,0-38.34-15.79-38.34-39.31s13.86-42.05,36.57-42.05c25.46,0,32.22,22.39,32.22,36.73a53.73,53.73,0,0,1-.48,6.6ZM886,210.29c.16-9-3.71-23-19.66-23-14.33,0-20.62,13.21-21.75,23Z" transform="translate(-64.48 -74.87)"/><path d="M972.79,253.94c-3.7,1.94-11.92,4.52-22.39,4.52-23.52,0-38.83-15.95-38.83-39.8,0-24,16.44-41.4,41.89-41.4,8.38,0,15.79,2.09,19.65,4l-3.22,11c-3.38-1.93-8.7-3.7-16.43-3.7-17.88,0-27.55,13.21-27.55,29.48,0,18,11.6,29.16,27.07,29.16a40.33,40.33,0,0,0,17.4-3.87Z" transform="translate(-64.48 -74.87)"/><path d="M1008.55,156.48v22.39h20.3v10.79h-20.3v42.05c0,9.67,2.74,15.15,10.64,15.15a31.62,31.62,0,0,0,8.21-1l.65,10.63a34.65,34.65,0,0,1-12.57,1.94c-6.6,0-11.92-2.1-15.3-6-4-4.19-5.48-11.11-5.48-20.29V189.66H982.62V178.87H994.7V160.18Z" transform="translate(-64.48 -74.87)"/><polygon points="99.17 126.09 99.17 240.44 0 183.19 0 68.48 99.17 126.09"/><polygon points="211.52 68.47 211.52 183.19 111.58 240.89 111.58 126.1 211.52 68.47"/><polygon points="205.53 57.61 105.39 115.34 5.98 57.61 105.76 0 205.53 57.61"/>
</symbol>
<symbol id="slide" viewBox="0 0 24 47">
<rect x="1" y="1" width="22" height="45" rx="11" stroke="white" stroke-width="2"/>
<ellipse cx="12" cy="11.1183" rx="6.26087" ry="6.06452" fill="white"/>

</symbol>
<symbol id="call-answer" viewBox="0 0 512 510.84"><defs><style>.cls-1{fill:#2bbb94;}</style></defs><title>call-answer</title><path class="cls-1" d="M500.52,404.63l-79.07-79.08c-15.75-15.68-41.83-15.21-58.13,1.1l-39.83,39.82c-2.52-1.38-5.13-2.83-7.86-4.37-25.16-13.94-59.59-33-95.82-69.3s-55.46-70.82-69.44-96c-1.48-2.67-2.89-5.24-4.29-7.68l26.74-26.7L186,149.27c16.32-16.32,16.78-42.4,1.06-58.13L108,12.05C92.24-3.66,66.15-3.18,49.82,13.15L27.54,35.56l.61.6A129.31,129.31,0,0,0,9.78,68.55a134,134,0,0,0-8.16,32.86C-8.83,188,30.73,267.07,138.07,374.41,286.45,522.78,406,511.58,411.19,511a133.45,133.45,0,0,0,32.94-8.28,128.29,128.29,0,0,0,32.27-18.28l.49.43,22.58-22.11C515.76,446.47,516.23,420.39,500.52,404.63Z" transform="translate(0 -0.58)"/>
</symbol>
<symbol id="cogwheel" viewBox="0 0 500 500"><title>&#x418;&#x43A;&#x43E;&#x43D;&#x43A;&#x438; &#x441;&#x430;&#x439;&#x442; &#x432;&#x438;&#x434;&#x435;&#x43E;&#x43D;&#x430;&#x431;&#x43B;&#x44E;&#x434;&#x435;&#x43D;&#x438;&#x435;</title><path d="M269.25,409.29H246.81a2.61,2.61,0,0,1-2.58-2.23L238,365.73a113.71,113.71,0,0,1-20.36-5.45l-26,32.71a2.62,2.62,0,0,1-3.35.64L168.83,382.4a2.61,2.61,0,0,1-1.13-3.22L183,340.25a117.1,117.1,0,0,1-14.89-14.9l-38.93,15.3a2.6,2.6,0,0,1-3.22-1.12l-11.22-19.44a2.64,2.64,0,0,1,.64-3.36l32.68-26a116.71,116.71,0,0,1-5.45-20.34l-41.33-6.22a2.61,2.61,0,0,1-2.22-2.58V239.11a2.63,2.63,0,0,1,2.22-2.59l41.33-6.22a118.83,118.83,0,0,1,5.45-20.38l-32.68-26a2.62,2.62,0,0,1-.64-3.35L126,161.12a2.62,2.62,0,0,1,3.22-1.12l38.93,15.31A115.81,115.81,0,0,1,183,160.41L167.7,121.47a2.62,2.62,0,0,1,1.13-3.22L188.27,107a2.63,2.63,0,0,1,3.35.63l26,32.69A116.49,116.49,0,0,1,238,134.91l6.21-41.32a2.6,2.6,0,0,1,2.58-2.22h22.44a2.6,2.6,0,0,1,2.58,2.22L278,134.91a116.21,116.21,0,0,1,20.37,5.45l26-32.7a2.62,2.62,0,0,1,3.35-.63l19.43,11.22a2.62,2.62,0,0,1,1.13,3.22l-15.31,38.94A117.25,117.25,0,0,1,348,175.31L386.87,160a2.59,2.59,0,0,1,3.21,1.12l11.24,19.45a2.61,2.61,0,0,1-.64,3.35L368,210a115.59,115.59,0,0,1,5.46,20.34l41.34,6.22a2.63,2.63,0,0,1,2.22,2.59v22.44a2.61,2.61,0,0,1-2.22,2.58l-41.34,6.22A116.22,116.22,0,0,1,368,290.69l32.7,26a2.63,2.63,0,0,1,.64,3.36l-11.24,19.44a2.58,2.58,0,0,1-3.21,1.12L348,325.35a117.25,117.25,0,0,1-14.91,14.9l15.31,38.93a2.63,2.63,0,0,1-1.13,3.23L327.8,393.59a2.62,2.62,0,0,1-3.35-.64l-26-32.65A116.14,116.14,0,0,1,278,365.73l-6.21,41.33A2.61,2.61,0,0,1,269.25,409.29Zm-20.19-5.23H267l6.15-41a2.61,2.61,0,0,1,2.19-2.19,110,110,0,0,0,23-6.12,2.61,2.61,0,0,1,3,.81l25.82,32.38L342.67,379l-15.18-38.61a2.62,2.62,0,0,1,.79-3,111.45,111.45,0,0,0,16.83-16.81,2.6,2.6,0,0,1,3-.79L386.69,335l9-15.55L363.24,293.6a2.62,2.62,0,0,1-.81-3,110.65,110.65,0,0,0,6.15-22.95,2.61,2.61,0,0,1,2.2-2.19l41-6.17V241.36l-41-6.17a2.62,2.62,0,0,1-2.2-2.19,110.9,110.9,0,0,0-6.15-23,2.63,2.63,0,0,1,.81-3l32.43-25.82-9-15.55L348.1,180.86a2.59,2.59,0,0,1-3-.78,111.06,111.06,0,0,0-16.83-16.82,2.61,2.61,0,0,1-.79-3l15.18-38.62-15.53-9L301.32,145.1a2.63,2.63,0,0,1-3,.81,110.75,110.75,0,0,0-23-6.15,2.63,2.63,0,0,1-2.19-2.2l-6.15-41H249.06l-6.16,41a2.61,2.61,0,0,1-2.18,2.2,110.78,110.78,0,0,0-23,6.15,2.61,2.61,0,0,1-3-.81l-25.82-32.42-15.55,9,15.18,38.62a2.6,2.6,0,0,1-.8,3A110.93,110.93,0,0,0,171,180.08a2.59,2.59,0,0,1-3,.78l-38.6-15.18-9,15.55L152.82,207a2.61,2.61,0,0,1,.81,3,111.92,111.92,0,0,0-6.16,23,2.63,2.63,0,0,1-2.19,2.18l-41,6.17V259.3l41,6.17a2.62,2.62,0,0,1,2.19,2.18,111.72,111.72,0,0,0,6.16,23,2.63,2.63,0,0,1-.81,3L120.4,319.42l9,15.55L168,319.79a2.59,2.59,0,0,1,3,.79,111.32,111.32,0,0,0,16.81,16.81,2.61,2.61,0,0,1,.8,3L173.39,379l15.54,9,25.83-32.44a2.59,2.59,0,0,1,3-.81,107.42,107.42,0,0,0,23,6.15,2.59,2.59,0,0,1,2.19,2.19Z"/><path d="M269.25,412.29H246.81a5.65,5.65,0,0,1-5.55-4.79l-5.88-39.2a116,116,0,0,1-16.71-4.47l-24.7,31a5.59,5.59,0,0,1-7.19,1.37L167.33,385a5.64,5.64,0,0,1-2.42-6.92l14.52-36.94a119.37,119.37,0,0,1-12.21-12.22l-36.93,14.53a5.62,5.62,0,0,1-6.91-2.41l-11.22-19.46a5.58,5.58,0,0,1,1.35-7.19l31-24.71A119.62,119.62,0,0,1,140.05,273l-39.2-5.9a5.65,5.65,0,0,1-4.78-5.55V239.11a5.64,5.64,0,0,1,4.78-5.55l39.2-5.9a121.67,121.67,0,0,1,4.48-16.72l-31-24.67a5.59,5.59,0,0,1-1.37-7.2l11.22-19.45a5.65,5.65,0,0,1,6.92-2.41l36.93,14.52a120.39,120.39,0,0,1,12.21-12.22l-14.52-36.94a5.65,5.65,0,0,1,2.42-6.92l19.44-11.22a5.66,5.66,0,0,1,7.19,1.36l24.71,31a119.35,119.35,0,0,1,16.71-4.47l5.88-39.19a5.64,5.64,0,0,1,5.55-4.78h22.44a5.64,5.64,0,0,1,5.55,4.78l5.88,39.19a119.48,119.48,0,0,1,16.72,4.47l24.71-31a5.56,5.56,0,0,1,7.2-1.36l19.42,11.22a5.64,5.64,0,0,1,2.42,6.91l-14.53,36.94a120.58,120.58,0,0,1,12.23,12.22l36.92-14.52a5.61,5.61,0,0,1,6.91,2.41l11.24,19.45a5.6,5.6,0,0,1-1.36,7.2l-31,24.7A117.47,117.47,0,0,1,376,227.66l39.22,5.9a5.64,5.64,0,0,1,4.78,5.55v22.44a5.65,5.65,0,0,1-4.78,5.55L376,273a118.05,118.05,0,0,1-4.47,16.68l31,24.71a5.57,5.57,0,0,1,1.37,7.19L392.68,341a5.62,5.62,0,0,1-6.94,2.41l-36.89-14.52a119.66,119.66,0,0,1-12.23,12.23l14.53,36.94a5.58,5.58,0,0,1-2.43,6.91l-19.43,11.19a5.58,5.58,0,0,1-7.18-1.36l-24.7-31a117.68,117.68,0,0,1-16.73,4.46l-5.88,39.21A5.65,5.65,0,0,1,269.25,412.29Zm-17.61-11.23h12.78l5.77-38.44a5.58,5.58,0,0,1,4.7-4.72A106.74,106.74,0,0,0,297.25,352a5.57,5.57,0,0,1,6.41,1.74l24.22,30.37,11.05-6.37-14.23-36.2a5.6,5.6,0,0,1,1.69-6.43,108.41,108.41,0,0,0,16.39-16.37,5.63,5.63,0,0,1,6.45-1.68l36.15,14.22,6.4-11.07-30.41-24.22a5.58,5.58,0,0,1-1.73-6.42,107.87,107.87,0,0,0,6-22.32,5.58,5.58,0,0,1,4.71-4.7l38.45-5.78V243.94l-38.45-5.79a5.57,5.57,0,0,1-4.71-4.69,107.45,107.45,0,0,0-6-22.34,5.59,5.59,0,0,1,1.74-6.41l30.41-24.21-6.4-11.08L349.2,183.66a5.65,5.65,0,0,1-6.43-1.7A108.21,108.21,0,0,0,326.4,165.6a5.59,5.59,0,0,1-1.7-6.43L338.93,123l-11.06-6.39L303.66,147a5.6,5.6,0,0,1-6.4,1.74,109,109,0,0,0-22.38-6,5.57,5.57,0,0,1-4.69-4.71l-5.77-38.42H251.64L245.87,138a5.58,5.58,0,0,1-4.68,4.71,107.66,107.66,0,0,0-22.36,6,5.62,5.62,0,0,1-6.42-1.74l-24.21-30.4L177.12,123l14.24,36.21a5.6,5.6,0,0,1-1.7,6.43A108.67,108.67,0,0,0,173.29,182a5.55,5.55,0,0,1-6.43,1.69l-36.18-14.23-6.39,11.07,30.39,24.18a5.58,5.58,0,0,1,1.74,6.41,110.05,110.05,0,0,0-6,22.39,5.57,5.57,0,0,1-4.71,4.68l-38.43,5.79v12.78l38.43,5.78a5.59,5.59,0,0,1,4.71,4.68,108.61,108.61,0,0,0,6,22.35,5.59,5.59,0,0,1-1.73,6.41l-30.4,24.22,6.39,11.07L166.88,317a5.62,5.62,0,0,1,6.42,1.7,108,108,0,0,0,16.35,16.35,5.61,5.61,0,0,1,1.71,6.44L177.12,377.7l11.08,6.38,24.21-30.42a5.57,5.57,0,0,1,6.44-1.73,103.78,103.78,0,0,0,22.32,6,5.58,5.58,0,0,1,4.7,4.72Z"/><path d="M258,328.17a77.85,77.85,0,1,1,77.85-77.84A77.93,77.93,0,0,1,258,328.17Zm0-150.46a72.62,72.62,0,1,0,72.63,72.62A72.7,72.7,0,0,0,258,177.71Z"/><path d="M258,331.17a80.85,80.85,0,1,1,80.85-80.84A80.93,80.93,0,0,1,258,331.17Zm0-150.46a69.62,69.62,0,1,0,69.63,69.62A69.7,69.7,0,0,0,258,180.71Z"/><path d="M258,201.32a7.82,7.82,0,1,1,7.81-7.81A7.82,7.82,0,0,1,258,201.32Zm0-9.63a1.84,1.84,0,0,0-1.82,1.82,1.82,1.82,0,0,0,3.63,0A1.82,1.82,0,0,0,258,191.69Z"/><path d="M286.39,208.93a7.71,7.71,0,0,1-3.84-1,7.83,7.83,0,0,1,1.88-14.36A7.83,7.83,0,0,1,293.22,205,7.9,7.9,0,0,1,286.39,208.93Zm0-9.63a1.89,1.89,0,0,0-.47.06A1.83,1.83,0,1,0,288,202a1.8,1.8,0,0,0-.68-2.46h0A1.76,1.76,0,0,0,286.43,199.3Z"/><path d="M307.25,229.74A7.82,7.82,0,1,1,314,218h0a7.8,7.8,0,0,1-6.75,11.71Zm0-9.63a1.73,1.73,0,0,0-.88.23,1.86,1.86,0,0,0-.67,2.52,1.84,1.84,0,0,0,2.49.64,1.8,1.8,0,0,0,.66-2.47A1.87,1.87,0,0,0,307.21,220.11Z"/><path d="M314.85,258.15a7.82,7.82,0,1,1,7.81-7.82A7.83,7.83,0,0,1,314.85,258.15Zm0-9.64a1.82,1.82,0,0,0,0,3.64,1.82,1.82,0,0,0,0-3.64Z"/><path d="M307.19,286.54a7.71,7.71,0,0,1-3.84-1,7.86,7.86,0,0,1-2.89-10.71A7.81,7.81,0,0,1,311.15,272,7.83,7.83,0,0,1,314,282.62h0A7.88,7.88,0,0,1,307.19,286.54Zm0-9.64a2,2,0,0,0-.48.06,1.82,1.82,0,0,0-1.09.85,1.82,1.82,0,1,0,3.15,1.81,1.8,1.8,0,0,0-.67-2.47A1.83,1.83,0,0,0,307.23,276.9Z"/><path d="M286.45,307.33a7.82,7.82,0,1,1,6.76-11.71,7.8,7.8,0,0,1-2.86,10.67h0A7.78,7.78,0,0,1,286.45,307.33Zm0-9.62a1.81,1.81,0,0,0-.9.24,1.82,1.82,0,1,0,2.69,2,1.78,1.78,0,0,0-.17-1.34A1.9,1.9,0,0,0,286.41,297.71Z"/><path d="M258,315a7.82,7.82,0,1,1,7.81-7.81A7.82,7.82,0,0,1,258,315Zm0-9.63a1.82,1.82,0,1,0,1.81,1.82A1.79,1.79,0,0,0,258,305.33Z"/><path d="M229.61,307.33a7.78,7.78,0,0,1-3.88-1h0a7.8,7.8,0,0,1-2.87-10.68,7.82,7.82,0,1,1,6.75,11.71Zm-.89-6.23a1.83,1.83,0,1,0,1.81-3.17,1.86,1.86,0,0,0-2.47.69,1.79,1.79,0,0,0-.19,1.37A1.86,1.86,0,0,0,228.72,301.1Z"/><path d="M208.88,286.54a7.87,7.87,0,0,1-6.82-3.91h0a7.83,7.83,0,1,1,10.7,2.89A7.77,7.77,0,0,1,208.88,286.54Zm-1.64-6.92a1.83,1.83,0,1,0,3.17-1.82,1.83,1.83,0,0,0-3.17,1.82Z"/><path d="M201.22,258.15a7.82,7.82,0,1,1,7.83-7.82A7.83,7.83,0,0,1,201.22,258.15Zm0-9.64a1.82,1.82,0,1,0,1.83,1.82A1.81,1.81,0,0,0,201.22,248.51Z"/><path d="M208.8,229.74a7.65,7.65,0,0,1-3.88-1.05A7.84,7.84,0,0,1,202.05,218h0a7.82,7.82,0,1,1,6.74,11.72ZM207.25,221a1.8,1.8,0,0,0,.68,2.47,1.82,1.82,0,1,0-.68-2.47Z"/><path d="M229.66,208.93a7.77,7.77,0,1,1,3.91-1A7.94,7.94,0,0,1,229.66,208.93Zm0-9.63a1.78,1.78,0,0,0-.89.24l0,0a1.78,1.78,0,0,0-.66,2.47,1.82,1.82,0,1,0,3.14-1.83,1.81,1.81,0,0,0-1.11-.84A1.76,1.76,0,0,0,229.63,199.3Z"/><path d="M258,260.27a9.95,9.95,0,1,1,9.94-9.94A10,10,0,0,1,258,260.27Zm0-14.66a4.72,4.72,0,1,0,4.72,4.72A4.73,4.73,0,0,0,258,245.61Z"/><path d="M258,263.27A12.95,12.95,0,1,1,271,250.33,12.95,12.95,0,0,1,258,263.27Zm0-14.66a1.72,1.72,0,1,0,1.72,1.72A1.72,1.72,0,0,0,258,248.61Z"/><path d="M296.78,256.15h-.22l-31.44-2.59a2.61,2.61,0,0,1-2.39-2.81,2.57,2.57,0,0,1,2.82-2.39L297,250.93a2.61,2.61,0,0,1-.21,5.22Zm-43.58-8.72a2.61,2.61,0,0,1-2-.89l-15.5-17.65a2.61,2.61,0,0,1,3.92-3.44l15.51,17.65a2.61,2.61,0,0,1-2,4.33Z"/><path d="M296.78,259.15l-.54,0-31.36-2.58a5.62,5.62,0,0,1-5.14-6.05,5.71,5.71,0,0,1,2-3.9,5.43,5.43,0,0,1,4.11-1.22l31.35,2.57a5.6,5.6,0,0,1,5.13,6.05A5.65,5.65,0,0,1,296.78,259.15Zm-31.47-7.81Zm-12.11-.9a5.59,5.59,0,0,1-4.22-1.92l-15.51-17.65a5.61,5.61,0,1,1,8.44-7.4l15.5,17.65a5.56,5.56,0,0,1,1.38,4.07,5.5,5.5,0,0,1-1.9,3.85A5.56,5.56,0,0,1,253.2,250.44Zm.29-5.88ZM237.4,227.42h0Z"/>
</symbol>
<symbol id="comp" viewBox="0 0 500 500"><title>&#x418;&#x43A;&#x43E;&#x43D;&#x43A;&#x438; &#x441;&#x430;&#x439;&#x442; &#x432;&#x438;&#x434;&#x435;&#x43E;&#x43D;&#x430;&#x431;&#x43B;&#x44E;&#x434;&#x435;&#x43D;&#x438;&#x435;</title><path d="M393.82,283.45H106a2.88,2.88,0,0,1-2.88-2.88V77.88A2.88,2.88,0,0,1,106,75H393.82a2.88,2.88,0,0,1,2.89,2.88V280.57A2.88,2.88,0,0,1,393.82,283.45Zm-284.95-5.77H390.94V80.77H108.87Z"/><path d="M393.82,284H106a3.39,3.39,0,0,1-3.38-3.38V77.88A3.39,3.39,0,0,1,106,74.5H393.82a3.39,3.39,0,0,1,3.39,3.38V280.57A3.39,3.39,0,0,1,393.82,284ZM106,75.5a2.39,2.39,0,0,0-2.38,2.38V280.57A2.39,2.39,0,0,0,106,283H393.82a2.39,2.39,0,0,0,2.39-2.38V77.88a2.39,2.39,0,0,0-2.39-2.38ZM391.44,278.18H108.37V80.27H391.44Zm-282.07-1H390.44V81.27H109.37Z"/><path d="M374.24,263.84H125.57a2.88,2.88,0,0,1-2.89-2.88V97.49a2.88,2.88,0,0,1,2.89-2.88H374.24a2.89,2.89,0,0,1,2.89,2.88V261A2.89,2.89,0,0,1,374.24,263.84Zm-245.79-5.76H371.36V100.38H128.45Z"/><path d="M374.24,264.34H125.57a3.38,3.38,0,0,1-3.39-3.38V97.49a3.39,3.39,0,0,1,3.39-3.38H374.24a3.39,3.39,0,0,1,3.39,3.38V261A3.38,3.38,0,0,1,374.24,264.34ZM125.57,95.11a2.39,2.39,0,0,0-2.39,2.38V261a2.38,2.38,0,0,0,2.39,2.38H374.24a2.38,2.38,0,0,0,2.39-2.38V97.49a2.39,2.39,0,0,0-2.39-2.38ZM371.86,258.58H128V99.88H371.86Zm-242.91-1H370.86V100.88H129Z"/><path d="M294.26,324.31H205.61a2.88,2.88,0,0,1-2.74-3.77l13.07-40.85a2.88,2.88,0,0,1,2.75-2h62.4a2.87,2.87,0,0,1,2.74,2l12.88,40.22a2.8,2.8,0,0,1,.43,1.51A2.88,2.88,0,0,1,294.26,324.31Zm-84.7-5.77h80.66L279,283.45H220.79Z"/><path d="M294.28,324.81H205.61a3.39,3.39,0,0,1-3.22-4.42l13.07-40.85a3.38,3.38,0,0,1,3.23-2.36h62.4a3.37,3.37,0,0,1,3.22,2.36l12.86,40.16a3.34,3.34,0,0,1,.47,1.72,3.39,3.39,0,0,1-3.33,3.39Zm-.06-1h0a2.39,2.39,0,0,0,2-3.64l-.05-.11-12.88-40.22a2.38,2.38,0,0,0-2.27-1.66h-62.4a2.36,2.36,0,0,0-2.27,1.66l-13.08,40.85a2.4,2.4,0,0,0,2.27,3.12ZM290.91,319h-82L220.43,283h58.92Zm-80.66-1h79.29L278.62,284H221.16Z"/><path d="M249.89,310.07A9.08,9.08,0,1,1,259,301,9.07,9.07,0,0,1,249.89,310.07Zm0-12.38a3.31,3.31,0,1,0,3.3,3.31A3.3,3.3,0,0,0,249.89,297.69Z"/><path d="M249.89,310.57a9.58,9.58,0,1,1,9.57-9.57A9.57,9.57,0,0,1,249.89,310.57Zm0-18.15a8.58,8.58,0,1,0,8.57,8.58A8.58,8.58,0,0,0,249.89,292.42Zm0,12.38a3.81,3.81,0,1,1,3.8-3.8A3.79,3.79,0,0,1,249.89,304.8Zm0-6.61a2.81,2.81,0,1,0,2.8,2.81A2.8,2.8,0,0,0,249.89,298.19Z"/><path d="M377.3,425.88H122.59a2.88,2.88,0,0,1-2.84-3.34l13.06-80.9a2.87,2.87,0,0,1,2.85-2.42H364.13a2.87,2.87,0,0,1,2.84,2.42l13,80.21a2.9,2.9,0,0,1-2.65,4ZM126,420.11H373.83L361.67,345H138.11Z"/><path d="M377.33,426.39l-.19,0H122.59a3.39,3.39,0,0,1-3.34-3.92l13.07-80.9a3.37,3.37,0,0,1,3.34-2.84H364.13a3.38,3.38,0,0,1,3.34,2.84l13,80.15a3.25,3.25,0,0,1,.25,1.28,3.39,3.39,0,0,1-3.31,3.39Zm-.05-1,0,0a2.39,2.39,0,0,0,2.38-2.39,2.32,2.32,0,0,0-.19-.94l0-.12-13-80.21a2.37,2.37,0,0,0-2.35-2H135.66a2.38,2.38,0,0,0-2.36,2l-13.06,80.9a2.39,2.39,0,0,0,2.35,2.76H377.21Zm-2.87-4.75h-249l12.3-76.12H362.1l.07.42Zm-247.84-1H373.24l-12-74.12H138.54Z"/><path d="M345.76,361.78H154a2.88,2.88,0,1,1,0-5.76H345.76a2.88,2.88,0,1,1,0,5.76Z"/><path d="M345.76,362.29H154a3.39,3.39,0,1,1,0-6.77H345.76a3.39,3.39,0,1,1,0,6.77ZM154,356.52a2.39,2.39,0,1,0,0,4.77H345.76a2.39,2.39,0,1,0,0-4.77Z"/><path d="M345.76,385.85H154a2.89,2.89,0,1,1,0-5.77H345.76a2.89,2.89,0,1,1,0,5.77Z"/><path d="M345.76,386.35H154a3.39,3.39,0,1,1,0-6.77H345.76a3.39,3.39,0,1,1,0,6.77ZM154,380.58a2.39,2.39,0,1,0,0,4.77H345.76a2.39,2.39,0,1,0,0-4.77Z"/><path d="M341.18,408.29h-48.7a2.89,2.89,0,0,1,0-5.77h48.7a2.89,2.89,0,0,1,0,5.77Zm-139.16,0H154a2.89,2.89,0,1,1,0-5.77h48a2.89,2.89,0,0,1,0,5.77Z"/><path d="M341.18,408.79h-48.7a3.38,3.38,0,1,1,0-6.76h48.7a3.38,3.38,0,0,1,0,6.76ZM292.48,403a2.38,2.38,0,0,0,0,4.76h48.7a2.38,2.38,0,0,0,0-4.76ZM202,408.79H154a3.38,3.38,0,1,1,0-6.76h48a3.38,3.38,0,0,1,0,6.76ZM154,403a2.38,2.38,0,1,0,0,4.76h48a2.38,2.38,0,0,0,0-4.76Z"/><path d="M275.48,408.29H212.56a2.89,2.89,0,0,1,0-5.77h62.92a2.89,2.89,0,0,1,0,5.77Z"/><path d="M275.48,408.79H212.56a3.38,3.38,0,0,1,0-6.76h62.92a3.38,3.38,0,0,1,0,6.76ZM212.56,403a2.38,2.38,0,0,0,0,4.76h62.92a2.38,2.38,0,0,0,0-4.76Z"/><path d="M246.24,155.14a1.46,1.46,0,0,1-.21,0H246a9.45,9.45,0,0,1-6.5-2.51,9.25,9.25,0,0,1-2.52-6.53c0-.13,0-.25,0-.38,0-5.83,3.85-12.85,10.76-19.77a36,36,0,0,1,13-8.39,37.75,37.75,0,0,1,9.63-2.1,2.83,2.83,0,0,1,2.75,1.46,2.89,2.89,0,0,1-.19,3.12c-3,4.08-3.07,8.08-3.13,12.31-.05,4.05-.11,8.48-3.65,12C259.14,151.32,252.09,155.14,246.24,155.14Zm-.1-5.8a2.56,2.56,0,0,1,.39,0c2.23-.09,7.66-1.24,15.5-9.07,1.8-1.79,1.91-4.16,2-7.89a32.13,32.13,0,0,1,1.35-10.26c-.9.24-1.79.52-2.67.83a30.12,30.12,0,0,0-10.91,7c-7.95,7.95-9,13.42-9.07,15.55,0,.12,0,.23,0,.32a3.87,3.87,0,0,0,.82,2.65,3.7,3.7,0,0,0,2.27.81Z"/><path d="M246.17,155.64a1.31,1.31,0,0,1-.3,0,9.88,9.88,0,0,1-6.76-2.64,9.78,9.78,0,0,1-2.67-6.88,3.84,3.84,0,0,1,0-.39c0-6,3.9-13.11,10.91-20.12a36.57,36.57,0,0,1,13.2-8.51,38.34,38.34,0,0,1,9.76-2.13,3.38,3.38,0,0,1,3,5.38c-2.91,4-3,7.87-3,12s-.11,8.68-3.8,12.38c-7,7-14.23,10.9-20.2,10.9Zm24.46-39.7a1,1,0,0,0-.24,0,37.12,37.12,0,0,0-9.52,2.07A35.46,35.46,0,0,0,248,126.3c-6.82,6.83-10.59,13.73-10.62,19.42a1.62,1.62,0,0,0,0,.31,8.83,8.83,0,0,0,2.38,6.25,8.92,8.92,0,0,0,6.15,2.36l.14.5,0-.5h.11c5.72,0,12.65-3.77,19.52-10.61,3.4-3.41,3.45-7.61,3.5-11.68.06-4.32.12-8.39,3.23-12.6a2.41,2.41,0,0,0,.16-2.58A2.38,2.38,0,0,0,270.63,115.94Zm-24.08,33.93a2.29,2.29,0,0,0-.69,0,4.18,4.18,0,0,1-2.68-1,4.33,4.33,0,0,1-1-3,2.46,2.46,0,0,0,0-.26c.06-2.13,1.07-7.81,9.22-16a30.52,30.52,0,0,1,11.09-7.17c.89-.32,1.8-.6,2.71-.84l.9-.23-.3.88a31.63,31.63,0,0,0-1.32,10.08c-.05,3.87-.18,6.33-2.1,8.26C254.58,148.44,249.11,149.77,246.55,149.87Zm-.41-1,.46,0c1.86-.08,7.23-1.1,15.08-8.92,1.65-1.65,1.77-3.94,1.81-7.55a35,35,0,0,1,1.09-9.52c-.58.18-1.17.37-1.74.57a29.74,29.74,0,0,0-10.73,6.93c-7.89,7.9-8.87,13.27-8.92,15.22a2.36,2.36,0,0,1,0,.3,3.55,3.55,0,0,0,.67,2.3,3.23,3.23,0,0,0,2,.66Z"/><path d="M240.23,165.09a2.89,2.89,0,0,1-2-4.94q2-2,4.07-4.06a4.48,4.48,0,0,0,1-1.43,11.19,11.19,0,0,1-3.53-2.33,11.39,11.39,0,0,1-2.36-3.53,4.14,4.14,0,0,0-1.4.95q-2.08,2.06-4,4.06a2.89,2.89,0,0,1-4.15-4c1.33-1.38,2.72-2.76,4.12-4.13a9.69,9.69,0,0,1,4.48-2.61,9.18,9.18,0,0,1,3.21-.37,2.87,2.87,0,0,1,2.71,2.46,5.49,5.49,0,0,0,1.52,3.11,5.61,5.61,0,0,0,3.1,1.48,2.88,2.88,0,0,1,2.44,2.72,10.6,10.6,0,0,1-.39,3.32,10.07,10.07,0,0,1-2.59,4.38c-1.38,1.39-2.76,2.76-4.1,4.09A2.87,2.87,0,0,1,240.23,165.09Z"/><path d="M240.23,165.59a3.39,3.39,0,0,1-2.38-5.79c1.33-1.32,2.68-2.66,4.06-4.06a4.16,4.16,0,0,0,.65-.83,11.5,11.5,0,0,1-3.2-2.23,11.73,11.73,0,0,1-2.25-3.21,4,4,0,0,0-.81.64c-1.39,1.37-2.73,2.71-4,4a3.39,3.39,0,0,1-5.81-2.3,3.38,3.38,0,0,1,1-2.41c1.16-1.21,2.47-2.52,4.12-4.14a10.22,10.22,0,0,1,4.71-2.74,9.65,9.65,0,0,1,3.35-.38,3.37,3.37,0,0,1,3.18,2.88,4.91,4.91,0,0,0,1.39,2.83,5.13,5.13,0,0,0,2.82,1.35,3.4,3.4,0,0,1,2.86,3.19,11,11,0,0,1-.41,3.48,10.47,10.47,0,0,1-2.72,4.59c-1.38,1.4-2.75,2.76-4.1,4.1A3.37,3.37,0,0,1,240.23,165.59Zm-2.61-17.44.19.45a10.89,10.89,0,0,0,2.26,3.38,10.63,10.63,0,0,0,3.36,2.22l.46.19-.19.46a4.78,4.78,0,0,1-1.08,1.59c-1.38,1.4-2.73,2.75-4.07,4.07a2.37,2.37,0,0,0-.7,1.68,2.33,2.33,0,0,0,.69,1.69,2.42,2.42,0,0,0,3.36,0q2-2,4.1-4.09a9.53,9.53,0,0,0,2.47-4.17,10.18,10.18,0,0,0,.37-3.16,2.39,2.39,0,0,0-2-2.24,6.19,6.19,0,0,1-3.37-1.63,5.87,5.87,0,0,1-1.66-3.39,2.38,2.38,0,0,0-2.25-2,8.59,8.59,0,0,0-3,.35,9.21,9.21,0,0,0-4.28,2.48c-1.64,1.61-2.95,2.92-4.11,4.12a2.4,2.4,0,0,0-.67,1.7,2.34,2.34,0,0,0,.73,1.67,2.38,2.38,0,0,0,1.7.68,2.34,2.34,0,0,0,1.66-.73c1.31-1.35,2.66-2.69,4.06-4.06a4.78,4.78,0,0,1,1.56-1.07Z"/><path d="M230.93,174.17a2.89,2.89,0,0,1-2-.85l-10.18-10.2a2.87,2.87,0,0,1,0-4.05l2-2c2.44-2.5,6.18-6.33,7.15-7.29a2.88,2.88,0,1,1,4.08,4.07c-1,1-4.65,4.74-7.08,7.22l6.15,6.17,2.86-2.79,4.39-4.29a2.89,2.89,0,0,1,4.06,4.11l-4.43,4.31L233,173.33A2.83,2.83,0,0,1,230.93,174.17Z"/><path d="M230.93,174.67a3.33,3.33,0,0,1-2.4-1l-10.18-10.2a3.39,3.39,0,0,1,0-4.75l2-2c2.44-2.5,6.18-6.33,7.15-7.3a3.4,3.4,0,0,1,2.39-1h0a3.36,3.36,0,0,1,2.39,1,3.4,3.4,0,0,1,1,2.39,3.36,3.36,0,0,1-1,2.39c-.68.68-2.76,2.81-4.77,4.87l-2,2,5.46,5.46,6.89-6.73a3.39,3.39,0,1,1,4.76,4.82l-4.43,4.32c-2.07,2-4.2,4.09-4.87,4.76A3.39,3.39,0,0,1,230.93,174.67Zm-1.09-25.25h0a2.37,2.37,0,0,0-1.68.7c-1,1-4.7,4.79-7.14,7.29l-2,2a2.39,2.39,0,0,0,0,3.35L229.24,173a2.44,2.44,0,0,0,3.36,0l4.88-4.76,4.43-4.32a2.39,2.39,0,1,0-3.36-3.39l-7.6,7.42-6.86-6.86,2.65-2.71c2-2.06,4.1-4.19,4.78-4.87a2.39,2.39,0,0,0-1.68-4.07Z"/><path d="M179.54,215.53a3.29,3.29,0,0,1-2.16-.88c-1.82-2-.65-4.23,2-8.67,5.64-9.72,19.61-26.37,39.34-46.89a2.9,2.9,0,0,1,2.05-.89,2.54,2.54,0,0,1,2.07.85L233,169.25a2.9,2.9,0,0,1,.84,2.07,2.86,2.86,0,0,1-.89,2C212.48,193,195.83,207,186.05,212.69,181.49,215.32,180.45,215.53,179.54,215.53Zm41.25-50.32c-16.12,16.89-28.39,31.31-34.51,40.53,9.24-6.15,23.66-18.42,40.53-34.5Z"/><path d="M179.54,216a3.72,3.72,0,0,1-2.51-1c-2.16-2.4-.56-5.13,1.87-9.28,5.66-9.75,19.66-26.44,39.41-47a3.4,3.4,0,0,1,2.41-1,3,3,0,0,1,2.42,1l10.18,10.2a3.37,3.37,0,0,1,0,4.82c-20.48,19.68-37.16,33.67-47,39.4C181.63,215.82,180.55,216,179.54,216Zm41.37-57.33h-.16a2.46,2.46,0,0,0-1.72.73c-19.7,20.49-33.64,37.11-39.27,46.8-2.71,4.64-3.52,6.41-2,8.09a2.75,2.75,0,0,0,1.79.7c.8,0,1.82-.2,6.26-2.76,9.74-5.7,26.35-19.64,46.78-39.26a2.39,2.39,0,0,0,.73-1.69,2.42,2.42,0,0,0-.7-1.71l-10.18-10.2A2,2,0,0,0,220.91,158.69Zm-36.42,48.85,1.37-2.07c6.17-9.29,18.45-23.71,34.57-40.61l.35-.37,6.74,6.76-.37.35c-16.88,16.09-31.3,28.37-40.59,34.56Zm36.31-41.62c-14.68,15.41-26.12,28.72-32.59,37.89,9.18-6.49,22.48-17.92,37.88-32.58Z"/><path d="M209,243a2.89,2.89,0,0,1-2.69-3.94l10.37-26.48a3,3,0,0,1,.73-1.07l64.95-60a2.89,2.89,0,0,1,4.07.16L303.27,170A2.84,2.84,0,0,1,304,172a2.87,2.87,0,0,1-.92,2l-65,60a2.83,2.83,0,0,1-1.13.64l-27.24,8.22A2.92,2.92,0,0,1,209,243Zm12.81-27.7-8,20.34,20.92-6.3,62.35-57.58-13-14Z"/><path d="M209,243.51a3.41,3.41,0,0,1-2.49-1.09,3.36,3.36,0,0,1-.66-3.53l10.37-26.48a3.47,3.47,0,0,1,.85-1.26l65-60a3.39,3.39,0,0,1,4.78.18l16.88,18.27a3.37,3.37,0,0,1-.19,4.78l-65,60a3.36,3.36,0,0,1-1.32.75l-27.24,8.21A3.27,3.27,0,0,1,209,243.51Zm75.32-92.23a2.4,2.4,0,0,0-1.62.63l-65,60a2.34,2.34,0,0,0-.6.88l-10.37,26.49a2.34,2.34,0,0,0,.47,2.48,2.36,2.36,0,0,0,2.44.67l27.23-8.21a2.54,2.54,0,0,0,.94-.54l64.95-60a2.42,2.42,0,0,0,.77-1.66,2.39,2.39,0,0,0-.63-1.71L286,152A2.4,2.4,0,0,0,284.28,151.28ZM213,236.43,221.35,215l.08-.08L284.14,157l13.65,14.76-.37.34L235,229.79Zm9.23-20.83-7.54,19.28,19.82-6,61.9-57.16-12.28-13.3Z"/><path d="M235.36,233a2.54,2.54,0,0,1-2.46-1.92l-.78-3-2-.15a2.55,2.55,0,0,1-2.33-2.14l-.51-3.18H225a2.54,2.54,0,0,1-2.54-2.56v-2.26l-3.17-.51a2.54,2.54,0,0,1,.8-5l5.32.84a2.53,2.53,0,0,1,2.15,2.52v1.89h1.91a2.56,2.56,0,0,1,2.52,2.14l.53,3.35,1.83.14a2.55,2.55,0,0,1,2.28,1.91l1.22,4.81a2.55,2.55,0,0,1-1.84,3.1A2.72,2.72,0,0,1,235.36,233Z"/><path d="M235.36,233.5a3,3,0,0,1-3-2.3l-.68-2.69-1.65-.12a3.05,3.05,0,0,1-2.78-2.56l-.44-2.76H225a3.06,3.06,0,0,1-3-3.06v-1.84l-2.75-.43a3.06,3.06,0,0,1-2.53-3.49,3,3,0,0,1,1.24-2,3,3,0,0,1,2.25-.53l5.32.84a3,3,0,0,1,2.57,3V217h1.41a3,3,0,0,1,3,2.56l.48,3,1.43.11a3,3,0,0,1,2.72,2.29l1.23,4.81a3.05,3.05,0,0,1-2.2,3.7A2.84,2.84,0,0,1,235.36,233.5Zm-15.7-20.82a2,2,0,0,0-1.17.38,2,2,0,0,0-.83,1.35,2,2,0,0,0,1.7,2.34l3.59.57V220a2,2,0,0,0,2,2.06h2.73l.58,3.6a2.05,2.05,0,0,0,1.87,1.72l2.36.17.86,3.4a2,2,0,0,0,4-1l-1.23-4.82a2,2,0,0,0-1.83-1.54l-2.22-.16-.6-3.74a2,2,0,0,0-2-1.72H227v-2.39a2,2,0,0,0-1.73-2l-5.32-.84A2,2,0,0,0,219.66,212.68Z"/><path d="M302,173.66a2.89,2.89,0,0,1-2-.84l-17.6-17.58a2.9,2.9,0,0,1-.85-2,2.87,2.87,0,0,1,.85-2l4.6-4.59a9.55,9.55,0,0,1,13.18,0l8.47,8.45a9.3,9.3,0,0,1,2.73,6.67,9.17,9.17,0,0,1-2.74,6.55l-4.56,4.56A2.85,2.85,0,0,1,302,173.66ZM288.5,153.2,302,166.7l2.53-2.54a3.42,3.42,0,0,0,1-2.49,3.56,3.56,0,0,0-1-2.57l-8.47-8.45a3.64,3.64,0,0,0-5,0Z"/><path d="M302,174.16a3.36,3.36,0,0,1-2.39-1L282,155.59a3.37,3.37,0,0,1,0-4.79l4.59-4.58a9.76,9.76,0,0,1,6.93-2.78h0a9.82,9.82,0,0,1,6.95,2.79l8.47,8.45a9.81,9.81,0,0,1,2.88,7,9.7,9.7,0,0,1-2.89,6.91l-4.56,4.56A3.32,3.32,0,0,1,302,174.16Zm-8.46-29.72h0a8.8,8.8,0,0,0-6.23,2.49l-4.59,4.58a2.35,2.35,0,0,0,0,3.37l17.6,17.58a2.43,2.43,0,0,0,3.37,0l4.55-4.56a8.67,8.67,0,0,0,2.6-6.2,8.88,8.88,0,0,0-2.58-6.32l-8.47-8.44A8.83,8.83,0,0,0,293.56,144.44Zm8.46,23L287.79,153.2l2.92-2.91a4,4,0,0,1,2.84-1.15h0a4,4,0,0,1,2.87,1.16l8.47,8.45a4,4,0,0,1,1.19,2.92,4,4,0,0,1-1.18,2.85ZM289.21,153.2,302,166l2.18-2.19a3,3,0,0,0,.89-2.14,3.1,3.1,0,0,0-.89-2.22L295.73,151a3.08,3.08,0,0,0-2.17-.87h0a3,3,0,0,0-2.13.85Z"/>
</symbol>
<symbol id="house" viewBox="0 0 500 500"><defs><style>.cls-1{fill-rule:evenodd;}</style></defs><title>&#x418;&#x43A;&#x43E;&#x43D;&#x43A;&#x438; &#x441;&#x430;&#x439;&#x442; &#x432;&#x438;&#x434;&#x435;&#x43E;&#x43D;&#x430;&#x431;&#x43B;&#x44E;&#x434;&#x435;&#x43D;&#x438;&#x435;</title><path class="cls-1" d="M356.57,246.7c-5.51,0-9.11,3.6-9.11,9.49v132H282.39v-53.5c0-4.74-3.67-9.49-8.18-9.49h-47c-5.44,0-10,4.75-10,9.49v53.5H153V260.94a9.16,9.16,0,0,0-9-9.49c-5.43,0-9,3.6-9,9.49V398.87c0,4.75,3.6,9.57,9,9.57h83.21c4.51,0,8.11-4.82,8.11-9.57V344.22h28.94v54.65c0,4.75,4.59,9.57,9.95,9.57h82.36c4.51,0,9-4.82,9-9.57V256.19a9.16,9.16,0,0,0-9-9.49Zm49.67,7.12h0c-59.7-64.22-96.75-103.41-150.1-159.29-1.76-2.37-3.6-3.52-5.43-3.52a8.92,8.92,0,0,0-7.2,3.52L94.25,252.67a12,12,0,0,0-2.68,7.12c0,2.38.92,4.75,2.68,5.9,3.67,4.75,9,4.75,12.71,0L250.71,114.74l142.9,153.32c.92,1.22,3.6,2.38,6.36,2.38a10.45,10.45,0,0,0,6.27-2.38c3.68-3.52,3.68-10.64,0-14.24Z"/>
</symbol>
<symbol id="lamp" viewBox="0 0 500 500"><defs><style>.cls-1{fill:none;}</style></defs><title>&#x418;&#x43A;&#x43E;&#x43D;&#x43A;&#x438; &#x441;&#x430;&#x439;&#x442; &#x432;&#x438;&#x434;&#x435;&#x43E;&#x43D;&#x430;&#x431;&#x43B;&#x44E;&#x434;&#x435;&#x43D;&#x438;&#x435;</title><polygon class="cls-1" points="384.24 314.89 384.24 316.37 288.4 354.89 266.05 315.27 384.24 314.89"/><path d="M273.24,279.34a.66.66,0,0,1-.65-.65V263.4a.65.65,0,0,1,.65-.65H283.9v-43a.66.66,0,0,1,.28-.54,55.32,55.32,0,0,0,15-15.32.66.66,0,0,1,.77-.25L384.42,235a.65.65,0,0,1,.42.59l.05,1.22a.65.65,0,0,1-.42.63l-111,41.86A.66.66,0,0,1,273.24,279.34Zm.65-15.29v13.7l109.68-41.36v-.32L300,205a56.82,56.82,0,0,1-14.77,15V263.4a.65.65,0,0,1-.65.65Z"/><path d="M273.24,264.05H230.91a.65.65,0,0,1-.65-.65.68.68,0,0,1,.65-.69h42.33a.65.65,0,0,1,.65.65A.68.68,0,0,1,273.24,264.05Z"/><polygon class="cls-1" points="273.24 278.69 384.24 236.83 415.28 303.86 384.24 316.37 384.24 314.89 266.05 315.27 250.59 287.9 250.29 287.35 273.24 278.69"/><path d="M251.82,423.88a.66.66,0,0,1-.36-.11.64.64,0,0,1-.29-.53l-1.23-107.92a.65.65,0,0,1,.64-.66h0a.64.64,0,0,1,.65.64l1.22,107,131.13-51.91v-53l-94.95,38.16a.64.64,0,0,1-.8-.28l-22.36-39.62a.65.65,0,0,1,1.14-.64l22.07,39.12L384,315.76a.66.66,0,0,1,.89.61v54.44a.67.67,0,0,1-.41.61L252.06,423.84A.67.67,0,0,1,251.82,423.88Z"/><path d="M251.82,423.88a.59.59,0,0,1-.23,0l-135.5-52.42a.66.66,0,0,1-.42-.61V316.88a.65.65,0,0,1,.29-.54.64.64,0,0,1,.61-.07L210,354.08l23.4-39a.65.65,0,0,1,1.11.67l-23.69,39.49a.64.64,0,0,1-.8.27l-93-37.65v52.53l134.19,51.91-1.22-107a.65.65,0,0,1,.64-.66h0a.64.64,0,0,1,.65.64l1.23,107.92a.67.67,0,0,1-.28.55A.7.7,0,0,1,251.82,423.88Z"/><path d="M250.29,288.72a1,1,0,0,1-.23,0L230,281a.65.65,0,0,1-.37-.84l.59-1.57V263.4a.65.65,0,0,1,.65-.65h42.33a.65.65,0,0,1,.65.65v15.29a.66.66,0,0,1-.42.61l-22.26,8.4a.65.65,0,0,1-.3.76l-.29.17A.63.63,0,0,1,250.29,288.72ZM231.11,280l18.57,7.1h0a.65.65,0,0,1,.38-.38l22.53-8.51V264.05h-41v14.69a.62.62,0,0,1,0,.23Zm-.2-1.3h0Z"/><path d="M284.55,250.58a.65.65,0,0,1-.65-.65V239.68H220.24v10.25a.65.65,0,0,1-1.3,0V239a.65.65,0,0,1,.65-.65h65a.65.65,0,0,1,.65.65v10.9A.65.65,0,0,1,284.55,250.58Z"/><path d="M284.55,239.68h-29.9a.65.65,0,0,1-.61-.89l19.85-51.31-10.71,1.38a.62.62,0,0,1-.63-.3L251.7,171.05l-10.55,17.59a.68.68,0,0,1-.65.31l-10.27-1.45,19.88,51.29a.65.65,0,0,1-.61.89H219.59a.65.65,0,0,1-.65-.65v-19a57.71,57.71,0,1,1,81.31-15.48,56.68,56.68,0,0,1-15.05,15.48v19A.65.65,0,0,1,284.55,239.68Zm-29-1.3h28.3V219.73a.66.66,0,0,1,.28-.54,55.32,55.32,0,0,0,15-15.32A56.43,56.43,0,1,0,220,219.19a.64.64,0,0,1,.28.54v18.65h28.31l-19.94-51.45a.68.68,0,0,1,.1-.64.65.65,0,0,1,.6-.24l10.94,1.55,10.88-18.13a.66.66,0,0,1,.56-.31.61.61,0,0,1,.55.3l11.19,18.06,11.37-1.47a.66.66,0,0,1,.6.25.63.63,0,0,1,.09.63Z"/><path d="M254.65,239.68H249.5a.64.64,0,0,1-.6-.42l-20.29-52.33a.68.68,0,0,1,.1-.64.65.65,0,0,1,.6-.24l10.94,1.55,10.88-18.13a.66.66,0,0,1,.56-.31.61.61,0,0,1,.55.3l11.19,18.06,11.37-1.47a.66.66,0,0,1,.6.25.63.63,0,0,1,.09.63l-20.24,52.33A.64.64,0,0,1,254.65,239.68Zm-4.7-1.3h4.25l19.69-50.9-10.71,1.38a.62.62,0,0,1-.63-.3L251.7,171.05l-10.55,17.59a.68.68,0,0,1-.65.31l-10.27-1.45Z"/><polygon class="cls-1" points="210.22 354.89 116.32 316.88 116.32 315.77 233.91 315.39 210.22 354.89"/><path d="M230.27,281.07a.66.66,0,0,1-.23,0L116.09,237.44a.63.63,0,0,1-.37-.38l-.55-1.43a.67.67,0,0,1,0-.5.65.65,0,0,1,.37-.34l87.85-32.36a.74.74,0,0,1,.82.27A56.36,56.36,0,0,0,220,219.19a.64.64,0,0,1,.28.54v43h10.67a.65.65,0,0,1,.65.65v15.34a.62.62,0,0,1,0,.23l-.64,1.68a.63.63,0,0,1-.34.36A.6.6,0,0,1,230.27,281.07ZM116.83,236.33,229.9,279.58l.36-1V264.05H219.59a.65.65,0,0,1-.65-.65V220.07a57.58,57.58,0,0,1-15.55-16.25l-86.77,32Z"/><polygon class="cls-1" points="116.32 315.77 116.32 316.88 84.18 303.86 116.32 236.83 230.27 280.42 250.29 288.07 233.91 315.39 116.32 315.77"/><path d="M251.82,427.73a4.51,4.51,0,0,1-1.62-.3L114.7,375a4.51,4.51,0,0,1-2.88-4.2V316.88a4.5,4.5,0,0,1,9,0v50.85l131,50.67,127.94-50.65V316.37a4.5,4.5,0,0,1,9,0v54.44a4.5,4.5,0,0,1-2.85,4.19L253.48,427.42A4.52,4.52,0,0,1,251.82,427.73Z"/><path d="M210.21,359.39a4.53,4.53,0,0,1-1.68-.33l-126-51a4.49,4.49,0,0,1-2.36-6.11l32.14-67a4.49,4.49,0,0,1,5.66-2.26l114,43.59,20,7.64a4.54,4.54,0,0,1,2.65,2.74,4.49,4.49,0,0,1-.4,3.78L214.08,357.2A4.52,4.52,0,0,1,210.21,359.39Zm-119.9-57.9,118,47.78,35.33-58.91-15-5.73L118.59,242.52Z"/><path d="M288.4,359.39a4.51,4.51,0,0,1-3.92-2.29l-38.14-67.6a4.51,4.51,0,0,1,2.36-6.36l22.95-8.66,111-41.86a4.5,4.5,0,0,1,5.67,2.32l31.05,67A4.49,4.49,0,0,1,417,308l-31,12.51-95.84,38.52A4.53,4.53,0,0,1,288.4,359.39Zm-31.62-69.68,33.6,59.53,92.18-37.05,26.65-10.73-27.3-58.94Z"/><path d="M115.64,239.94a4.5,4.5,0,0,1-1.39-8.78l0,0,87.77-32.32a4.5,4.5,0,0,1,3.11,8.45l-87.85,32.35-.17.06-.13,0A4.48,4.48,0,0,1,115.64,239.94Z"/><path d="M384.19,240.11a4.47,4.47,0,0,1-1.56-.28l-84.49-31.38a4.5,4.5,0,1,1,3.14-8.44l84.48,31.38a4.5,4.5,0,0,1-1.57,8.72Z"/><path d="M284.55,267.9h-65a4.51,4.51,0,0,1-4.5-4.5V222a61.55,61.55,0,1,1,88.38-15.32A60.36,60.36,0,0,1,289.05,222V263.4A4.5,4.5,0,0,1,284.55,267.9Zm-60.46-9h56V219.73A4.52,4.52,0,0,1,282,216a51.58,51.58,0,0,0,14-14.25v0A52.59,52.59,0,1,0,222.15,216a4.52,4.52,0,0,1,1.94,3.71Z"/><path d="M292.87,243.53H254.65a4.5,4.5,0,0,1,0-9h38.22a4.5,4.5,0,0,1,0,9Z"/><path d="M249.5,243.53H211.23a4.5,4.5,0,0,1,0-9H249.5a4.5,4.5,0,0,1,0,9Z"/><path d="M230.91,283.24a4.51,4.51,0,0,1-4.5-4.5V263.4a4.53,4.53,0,0,1,4.5-4.54h42.33a4.51,4.51,0,0,1,4.5,4.5v15.33a4.5,4.5,0,0,1-9,.05V267.86H235.41v10.88A4.5,4.5,0,0,1,230.91,283.24Z"/><path d="M249,109a4.49,4.49,0,0,1-4.5-4.5V86a4.5,4.5,0,1,1,9,0v18.46A4.5,4.5,0,0,1,249,109Z"/><path d="M271.13,111.07a4.41,4.41,0,0,1-1.18-.16,4.49,4.49,0,0,1-3.17-5.51l4.81-17.82a4.5,4.5,0,1,1,8.69,2.34l-4.81,17.82A4.5,4.5,0,0,1,271.13,111.07Z"/><path d="M292,118.85a4.51,4.51,0,0,1-3.89-6.75l9.21-16a4.5,4.5,0,0,1,7.8,4.49l-9.21,16A4.5,4.5,0,0,1,292,118.85Z"/><path d="M310.11,131.77a4.51,4.51,0,0,1-3.19-7.68l13-13.08a4.5,4.5,0,0,1,6.38,6.34l-13,13.09A4.5,4.5,0,0,1,310.11,131.77Z"/><path d="M189.72,136a4.48,4.48,0,0,1-3.18-1.32l-13-13.05a4.5,4.5,0,1,1,6.37-6.36l13,13a4.5,4.5,0,0,1-3.19,7.68Z"/><path d="M206.89,121.93a4.5,4.5,0,0,1-3.91-2.26l-9.21-16a4.5,4.5,0,0,1,7.8-4.48l9.21,16a4.5,4.5,0,0,1-3.89,6.74Z"/><path d="M227.11,112.64a4.51,4.51,0,0,1-4.35-3.34L218,91.47a4.5,4.5,0,1,1,8.69-2.32L231.46,107a4.51,4.51,0,0,1-3.19,5.51A4.27,4.27,0,0,1,227.11,112.64Z"/><path d="M254.65,243.53H249.5a4.48,4.48,0,0,1-4.19-2.88L225,188.32a4.5,4.5,0,0,1,4.83-6.08l8.41,1.19,9.57-15.94a4.51,4.51,0,0,1,7.69-.05l9.88,15.94,8.91-1.14a4.49,4.49,0,0,1,4.77,6.08l-20.23,52.33A4.52,4.52,0,0,1,254.65,243.53Zm-18.46-51.3,15.88,41L268,192.13l-4.28.55a4.5,4.5,0,0,1-4.4-2.09l-7.53-12.14-7.3,12.17a4.51,4.51,0,0,1-4.49,2.14Z"/><path d="M251.82,427.73a4.5,4.5,0,0,1-4.5-4.45L245.79,290a4.51,4.51,0,0,1,4.45-4.55h0a4.5,4.5,0,0,1,4.5,4.45l1.53,133.26a4.49,4.49,0,0,1-4.45,4.55Z"/>
</symbol>
<symbol id="logo" viewBox="0 0 851.39 259.94"><defs><style>.cls-1,.cls-4{fill:#71726f}.cls-1{fill-rule:evenodd}</style></defs><path class="cls-1" d="M151.49 109.57A130.8 130.8 0 1 0 356 221.89a123.45 123.45 0 1 1-204.51-112.32z" transform="translate(-94.44 -88.47)"/><path d="M297.65 290a110.38 110.38 0 1 0-172.58-94.79A104.17 104.17 0 1 1 297.65 290z" transform="translate(-94.44 -88.47)" fill="#2bbb94" fill-rule="evenodd"/><path class="cls-1" d="M298.29 256.65c-1.23-3-5.89-4.67-11.52-4.16a28.23 28.23 0 0 0-4.43 1c-6.63 2-41.26 13.77-41.5 14.25h-.72l.48.51c3.92 3.41 5.89 6.86 4.91 9.55-1.23 4.19-6.88 6.89-16 7.63-8.35.73-18.66 0-30.69-2.21H203c8.84 0 16.95 0 23.33-.51 10.08-.72 14.73-2.93 15.47-6.86.25-2.46-1.22-4.43-4.66-6.14-3.69-1.73-11.29-3-18.9-3.94-5.17-1-9.82-1.71-13.26-2.46-12-3.18-24.31-6.38-38.56-5.15-2.19.27-4.67.27-6.62 1a277.93 277.93 0 0 0-32.9 7.6l-1.23.27 16.44 23.8a57.81 57.81 0 0 1 9.1-1.46 39.61 39.61 0 0 1 11 .24c4.67.72 16.2 2.93 27 5.15 11.29 2.69 22.1 4.67 26.28 5.15a22.35 22.35 0 0 0 7.11.24c5.41-.48 11.29-3.42 16.46-6.38 1.71-1 3.68-1.71 5.15-2.69l49.1-26.53c5.42-3.42 5.42-6.11 4.91-7.85z" transform="translate(-94.44 -88.47)"/><path d="M279.06 188.49l-16.94-16.94V152a6.41 6.41 0 0 0-12.82 0v6.76l-12.62-12.62a16.86 16.86 0 0 0-23.31 0L171 188.49a6.41 6.41 0 0 0 9.07 9.07l42.37-42.37a3.77 3.77 0 0 1 5.18 0L270 197.56a6.41 6.41 0 0 0 9.06-9.07z" transform="translate(-94.44 -88.47)" fill="#2bbb94"/><path class="cls-4" d="M227.26 167.35a3.14 3.14 0 0 0-4.45 0l-37.27 37.26a3.15 3.15 0 0 0-.92 2.23V234a11.55 11.55 0 0 0 11.54 11.55h18.46V217h20.83v28.58h18.45A11.55 11.55 0 0 0 265.45 234v-27.16a3.12 3.12 0 0 0-.93-2.23zM488.24 179.51a22.67 22.67 0 0 1 3.46 12.31 27.44 27.44 0 0 1-4 15.07 26.32 26.32 0 0 1-11.21 9.74 38.33 38.33 0 0 1-16.54 3.4H415.8v-90.26h43.59a32.27 32.27 0 0 1 13.79 3 25.77 25.77 0 0 1 10.45 8.72 22.91 22.91 0 0 1 4 13.4q0 9.22-9 15.77a25.31 25.31 0 0 1 9.61 8.85zm-50.38-30.77v17.44h18.46a9.39 9.39 0 0 0 6.68-2.38 8.21 8.21 0 0 0 2.57-6.34 8.76 8.76 0 0 0-1.16-4.36 8.19 8.19 0 0 0-3.26-3.21 9.91 9.91 0 0 0-4.81-1.15zm28 49.94a8 8 0 0 0 2.76-6.35 7.73 7.73 0 0 0-1.29-4.29 9.51 9.51 0 0 0-3.52-3.21 10.21 10.21 0 0 0-4.94-1.22h-21v17.44h21a10.35 10.35 0 0 0 7-2.37zM542.86 215.41a48.12 48.12 0 0 1-18-16.86 44.94 44.94 0 0 1 0-47.31 48.12 48.12 0 0 1 18-16.86 51.82 51.82 0 0 1 49 0 48 48 0 0 1 18 16.86 44.94 44.94 0 0 1 0 47.31 48 48 0 0 1-18 16.86 51.74 51.74 0 0 1-49 0zm37.44-17.88a27 27 0 0 0 9.61-9.49 25.86 25.86 0 0 0 0-26.29 26.94 26.94 0 0 0-9.61-9.48 25.52 25.52 0 0 0-25.9 0 26.89 26.89 0 0 0-9.62 9.48 25.86 25.86 0 0 0 0 26.29 26.92 26.92 0 0 0 9.62 9.49 25.58 25.58 0 0 0 25.9 0zM703.51 129.77h22V220h-13.28l-43.08-48.21V220h-22v-90.23h12.82l43.59 48.72zM778.57 217a34.21 34.21 0 0 1-14.29-12.88 36.43 36.43 0 0 1-5.13-19.49v-54.86h22.05v55.38a16.44 16.44 0 0 0 2.31 8.85 14.66 14.66 0 0 0 6.47 5.64 22.94 22.94 0 0 0 9.68 1.93 21.41 21.41 0 0 0 9.3-1.93 14.79 14.79 0 0 0 6.35-5.64 16.44 16.44 0 0 0 2.31-8.85v-55.38h22v54.87a36.43 36.43 0 0 1-5.13 19.49A34.37 34.37 0 0 1 820.37 217a45.38 45.38 0 0 1-20.71 4.56 46.77 46.77 0 0 1-21.09-4.56zM915.7 200.73a8.48 8.48 0 0 0 4.67-2.5 6.93 6.93 0 0 0 1.35-4.49q0-3.19-3.33-5t-10.52-3.07l-8.71-1.54q-14.62-2.56-22.44-9t-7.82-18.72q0-13.2 9.29-20.64t28.15-7.56q20.11.12 28.46 8.27t8.33 22h-22.31c0-3.5-1.11-6.09-3.33-7.75s-5.77-2.5-10.64-2.5a42.89 42.89 0 0 0-9 .7 7 7 0 0 0-4.17 2.25 7.38 7.38 0 0 0-1.15 4.49 5.07 5.07 0 0 0 1.41 3.65 11.5 11.5 0 0 0 4.74 2.56 79 79 0 0 0 9.23 2.24l8.21 1.54a68.33 68.33 0 0 1 15.83 4.81 24.79 24.79 0 0 1 10.2 8.4q3.71 5.38 3.71 14 0 28.71-39.48 28.72-20.52 0-29.3-8.08t-8.91-22.7h23a11.07 11.07 0 0 0 1.6 6.41 9 9 0 0 0 4.87 3.34 30.44 30.44 0 0 0 8.79 1 40.43 40.43 0 0 0 9.27-.83zM440.8 302.05a4.47 4.47 0 0 0 2.45-1.31 3.61 3.61 0 0 0 .71-2.36 2.9 2.9 0 0 0-1.75-2.63 19.62 19.62 0 0 0-5.53-1.62l-4.58-.81q-7.68-1.33-11.79-4.71t-4.11-9.84q0-6.94 4.88-10.85t14.8-4q10.58.06 14.95 4.34t4.39 11.56h-11.73a4.77 4.77 0 0 0-1.75-4.08q-1.75-1.31-5.59-1.31a22.38 22.38 0 0 0-4.76.37 3.74 3.74 0 0 0-2.19 1.2 3.9 3.9 0 0 0-.6 2.35 2.66 2.66 0 0 0 .74 1.93 6.06 6.06 0 0 0 2.49 1.34 40.72 40.72 0 0 0 4.85 1.18l4.32.81a36.17 36.17 0 0 1 8.32 2.53 13.07 13.07 0 0 1 5.36 4.41 12.71 12.71 0 0 1 1.95 7.35q0 15.09-20.75 15.09-10.78 0-15.4-4.24t-4.68-11.93h12.06a5.85 5.85 0 0 0 .84 3.37 4.71 4.71 0 0 0 2.56 1.75 15.91 15.91 0 0 0 4.62.54 21.49 21.49 0 0 0 4.92-.43zM484.53 301.68h22.37v10.51h-34v-47.43h33.42v10.51h-21.79v8.35h19.4v9.7h-19.4zM531.9 309.8a22.14 22.14 0 0 1-8.29-8.79 27.62 27.62 0 0 1 .06-25 22.43 22.43 0 0 1 8.43-8.82 23.48 23.48 0 0 1 12.26-3.2 25.45 25.45 0 0 1 11.79 2.59 21.5 21.5 0 0 1 8.06 6.94 22.81 22.81 0 0 1 3.8 9.6h-12.13a13 13 0 0 0-2.25-4.18 11.27 11.27 0 0 0-9-4.17 10.91 10.91 0 0 0-10.51 6.74 18.85 18.85 0 0 0 0 14 10.84 10.84 0 0 0 10.51 6.74 11.43 11.43 0 0 0 7.48-2.26 12.86 12.86 0 0 0 4-6.36h12a22.86 22.86 0 0 1-3.71 9.6 21.61 21.61 0 0 1-8.15 7.11 26.22 26.22 0 0 1-12.2 2.69 23.2 23.2 0 0 1-12.15-3.23zM594.06 310.61a18 18 0 0 1-7.52-6.77 19.22 19.22 0 0 1-2.69-10.24v-28.84h11.59v29.1a8.61 8.61 0 0 0 1.21 4.65 7.64 7.64 0 0 0 3.4 3 12.1 12.1 0 0 0 5.09 1 11.26 11.26 0 0 0 4.88-1 7.7 7.7 0 0 0 3.34-3 8.61 8.61 0 0 0 1.21-4.65v-29.1h11.59v28.84a19.22 19.22 0 0 1-2.69 10.24 18.08 18.08 0 0 1-7.45 6.77 23.93 23.93 0 0 1-10.88 2.39 24.64 24.64 0 0 1-11.08-2.39zM661.61 296.56h-6.2v15.63h-11.59v-47.43h22.1a17.18 17.18 0 0 1 8.52 2.08 15.14 15.14 0 0 1 5.83 5.7 15.92 15.92 0 0 1 2.09 8.12 14.64 14.64 0 0 1-8.89 13.74l11.85 17.79h-13.74zm-6.2-10H664a6.26 6.26 0 0 0 4.48-1.62 5.62 5.62 0 0 0 1.72-4.31 5.53 5.53 0 0 0-.81-3 5.22 5.22 0 0 0-2.22-2A7.26 7.26 0 0 0 664 275h-8.62zM700 312.19v-47.43h11.6v47.43zM768.61 264.76v10.51h-14.83v36.92h-11.59v-36.92H727.1v-10.51zM813.75 264.76H827l-18.1 29.64v17.79h-11.59V294.4l-18.06-29.64h13.21l10.92 17.72z" transform="translate(-94.44 -88.47)"/>
</symbol></svg>