<svg xmlns="http://www.w3.org/2000/svg" viewBox="0 0 154.24 111.48"><defs><style>.cls-1{fill-rule:evenodd;}.cls-2{fill:#fff;}</style></defs><title>Asset 1</title><g id="Layer_2" data-name="Layer 2"><g id="Objects"><path class="cls-1" d="M62.24,16.18H99.85A2.18,2.18,0,0,1,102,18.35h0a2.18,2.18,0,0,1-2.17,2.18H62.24a2.18,2.18,0,0,1-2.17-2.18h0A2.18,2.18,0,0,1,62.24,16.18Z"/><path class="cls-1" d="M127.2,70.51c0,22.62-20.66,41-46.15,41s-46.16-18.35-46.16-41c0-15.79,13.48-38.64,30.52-48.18H96.68c17,9.54,30.52,32.39,30.52,48.18Zm-62-56.13C63,11.19,61.64,7.76,61.64,4.93c0-8.3,8.69-3.61,19.41-3.61s19.4-4.28,19.4,3.61A17.7,17.7,0,0,1,97,14.38Z"/><path d="M58,15c-.15-3.33-1-5.21-2.11-6.08a1.44,1.44,0,0,0-.25-.18V4.12a6.28,6.28,0,0,1,3,1.36c2.34,1.89,4.18,5.95,3.65,13h0a2.34,2.34,0,0,1-.16.67,2.17,2.17,0,0,1-2.84,1.17,30,30,0,0,1-3.63-1.77V13.4A17,17,0,0,0,58,15ZM55.63,8.69a1.64,1.64,0,0,0-1.7-.09,1.51,1.51,0,0,0-.59,1.71,6,6,0,0,0,2.29,3.09v5.19c-4.09-2.36-6-5-6.53-7.29a5.79,5.79,0,0,1,6.53-7.18Z"/><path d="M56.08,18.18A13.19,13.19,0,0,0,52.32,17V12.64A20.74,20.74,0,0,1,61.1,16a2.33,2.33,0,0,1,.65.53,2.19,2.19,0,0,1-.29,3.07c-3.56,2.95-6.63,4.38-9.14,4.83V20A14.13,14.13,0,0,0,56.08,18.18ZM52.32,17a4.81,4.81,0,0,0-2.61.25,1.69,1.69,0,0,0-1.14,1.59,1.53,1.53,0,0,0,1.23,1.33A5,5,0,0,0,52.32,20v4.41a8.45,8.45,0,0,1-3.61-.08,5.76,5.76,0,0,1-4.48-5.29A5.94,5.94,0,0,1,48,13.22a8.78,8.78,0,0,1,4.33-.58Z"/><path d="M57.57,17.57a2.17,2.17,0,1,1,4.2,1.12c-.94,3.48-4.61,6.42-9.25,8.1a25.79,25.79,0,0,1-14.21,1,2.17,2.17,0,1,1,1-4.22A21.26,21.26,0,0,0,51,22.7C54.42,21.48,57,19.6,57.57,17.57Z"/><path d="M57.5,18.06a2.17,2.17,0,0,1,4.34.14c0,.21,0,.39,0,.54-.4,3.56-4,8.1-9,11.59C47.93,33.71,41.55,36.24,35.24,36q-.9,0-1.71-.12A2.17,2.17,0,1,1,34,31.6c.48,0,.94.09,1.36.1,5.3.17,10.75-2,15-4.94,4.06-2.81,6.88-6.14,7.14-8.5A1,1,0,0,0,57.5,18.06Z"/><path class="cls-2" d="M85.15,88.71a19.35,19.35,0,0,0,3.51-1,14.57,14.57,0,0,0,4.45-2.78A12.13,12.13,0,0,0,96,80.7a14.09,14.09,0,0,0,1.06-5.51,11.94,11.94,0,0,0-.78-4.51,9.2,9.2,0,0,0-2.11-3.21,13.74,13.74,0,0,0-3.12-2.25,31,31,0,0,0-3.82-1.67l-2.11-.73v9.5l.56.34a3.64,3.64,0,0,1,1.07,1.19,3.84,3.84,0,0,1,.45,2,4,4,0,0,1-1.1,2.92,4.66,4.66,0,0,1-1,.76v9.22Zm0-35.87.33.08a17.08,17.08,0,0,1,1.75.58c.52.21,1,.38,1.51.53a6.38,6.38,0,0,0,1.64.22,5.14,5.14,0,0,0,2.44-.58,4.41,4.41,0,0,0,1.67-1.53A4,4,0,0,0,95.1,50a3.8,3.8,0,0,0-.79-2.37,6.43,6.43,0,0,0-2.08-1.7,14.5,14.5,0,0,0-2.88-1.12,25.91,25.91,0,0,0-3.22-.66l-1-.13ZM79.5,92.51a1.77,1.77,0,0,0,1.78,1.78,1.76,1.76,0,0,0,1.28-.54,1.78,1.78,0,0,0,.5-1.24V89c.72-.07,1.41-.18,2.09-.31V79.49a7.15,7.15,0,0,1-2.09.77V71.43l1.37.55a7.79,7.79,0,0,1,.72.34v-9.5l-2.09-.7V52.54a15.39,15.39,0,0,1,2.09.3V44c-.73-.09-1.43-.15-2.09-.18V40.43a1.8,1.8,0,0,0-.52-1.25,1.85,1.85,0,0,0-1.26-.53,1.83,1.83,0,0,0-1.78,1.78v3.42c-.73,0-1.44.11-2.12.21v9.13a7.49,7.49,0,0,1,2.12-.58v8.21l-1.37-.61a7.56,7.56,0,0,1-.75-.38v9.75c.71.24,1.41.47,2.12.69V80.46a14.67,14.67,0,0,1-2.12-.29V89c.73.07,1.44.11,2.12.13ZM77.38,44.06A17.36,17.36,0,0,0,72,45.69a11.49,11.49,0,0,0-4.83,4.38,12.83,12.83,0,0,0-1.73,6.72,12.64,12.64,0,0,0,.82,4.68,10,10,0,0,0,2.21,3.38,13.5,13.5,0,0,0,3.2,2.37,27.24,27.24,0,0,0,3.8,1.7c.63.23,1.25.45,1.88.66V59.83a5.22,5.22,0,0,1-.54-.33,3.57,3.57,0,0,1-1.11-1.17,3.67,3.67,0,0,1-.47-1.89,3.39,3.39,0,0,1,.57-2,3.56,3.56,0,0,1,1.5-1.22l0,0V44.06Zm0,36.11L76.7,80c-.85-.23-1.62-.48-2.34-.74s-1.42-.49-2.09-.69a8,8,0,0,0-2.08-.3,5.2,5.2,0,0,0-2.73.7,4.32,4.32,0,0,0-1.55,1.67,4.08,4.08,0,0,0-.51,1.94,3.71,3.71,0,0,0,.92,2.4,7.73,7.73,0,0,0,2.39,1.82,18,18,0,0,0,3.34,1.27,26.65,26.65,0,0,0,3.78.77l1.55.18Z"/><path class="cls-1" d="M108.68,26.73h24.51a1.67,1.67,0,0,1,1.67,1.67h0a1.67,1.67,0,0,1-1.67,1.67H112.07C111,28.92,109.85,27.8,108.68,26.73Z"/><path class="cls-1" d="M154.24,68.54c0,17.41-15.9,31.53-35.52,31.53h-.43a43.85,43.85,0,0,0,8.87-12.86,40.47,40.47,0,0,0,3.61-16.7c0-12.15-6.82-25.72-14.13-35.11-1-1.34-2.15-2.66-3.3-3.94h17.41c13.12,7.34,23.49,24.93,23.49,37.08ZM105.82,24.27a17,17,0,0,1-1.28-2.61,5.73,5.73,0,0,0,.11-6.45c2.07-2.15,7.58.08,14.07.08,8.24,0,14.93-3.29,14.93,2.78A13.6,13.6,0,0,1,131,25.34H107.12C106.69,25,106.26,24.62,105.82,24.27Z"/><path d="M103.83,22.49c0,.09,0,.19.07.28l-.21-.15Z"/><path class="cls-1" d="M23.58,26.73h9.59A6.26,6.26,0,0,0,33.58,28a5.75,5.75,0,0,0-4.21,2.05H23.58a1.67,1.67,0,0,1-1.67-1.67h0A1.67,1.67,0,0,1,23.58,26.73Z"/><path class="cls-1" d="M43.45,99.71a39.89,39.89,0,0,1-5.39.36C18.44,100.07,2.53,86,2.53,68.54,2.53,56.39,12.91,38.8,26,31.46h2.49a5.73,5.73,0,0,0,4.63,8c.66.07,1.32.12,2,.14a29,29,0,0,0,7.9-.9c-6.32,9.1-11.7,21-11.7,31.8a40.47,40.47,0,0,0,3.61,16.7,43.73,43.73,0,0,0,8.52,12.5ZM25.86,25.34a13.68,13.68,0,0,1-2.74-7.27c0-6.39,6.69-2.78,14.94-2.78,1.14,0,2.25-.07,3.31-.16a9.33,9.33,0,0,0-.7,4.12c0,.33.06.66.11,1l-.64-.14a5.76,5.76,0,0,0-6.91,4.26,5.64,5.64,0,0,0-.15,1Z"/><path d="M20.31,25.78c-.12-2.56-.79-4-1.62-4.68L18.5,21V17.44a5,5,0,0,1,2.29,1c1.8,1.46,3.22,4.58,2.81,10h0a1.91,1.91,0,0,1-.13.51,1.67,1.67,0,0,1-2.18.91,22.7,22.7,0,0,1-2.79-1.37v-4A12.62,12.62,0,0,0,20.31,25.78ZM18.5,21a1.23,1.23,0,0,0-1.31-.06,1.16,1.16,0,0,0-.46,1.31,4.63,4.63,0,0,0,1.77,2.38v4c-3.15-1.82-4.62-3.84-5-5.61a4.42,4.42,0,0,1,2-4.94,4.51,4.51,0,0,1,3-.59Z"/><path d="M18.84,28.27A10.22,10.22,0,0,0,16,27.34V24a15.9,15.9,0,0,1,6.75,2.58,1.64,1.64,0,0,1,.5.41A1.68,1.68,0,0,1,23,29.35a15.88,15.88,0,0,1-7,3.72v-3.4A10.53,10.53,0,0,0,18.84,28.27ZM16,27.34a3.8,3.8,0,0,0-2,.18,1.33,1.33,0,0,0-.88,1.23,1.16,1.16,0,0,0,.95,1,3.66,3.66,0,0,0,1.94-.1v3.4A6.56,6.56,0,0,1,13.17,33a4.44,4.44,0,0,1-3.45-4.07,4.58,4.58,0,0,1,2.9-4.49A6.71,6.71,0,0,1,16,24Z"/><path d="M20,27.8a1.67,1.67,0,1,1,3.23.86c-.72,2.68-3.55,4.94-7.12,6.23a19.82,19.82,0,0,1-10.94.77,1.67,1.67,0,0,1,.78-3.25,16.31,16.31,0,0,0,9-.66C17.56,30.81,19.57,29.36,20,27.8Z"/><path d="M19.94,28.18a1.67,1.67,0,1,1,3.34.1c0,.16,0,.3,0,.41-.31,2.75-3,6.24-6.92,8.93A23.3,23.3,0,0,1,2.8,42c-.46,0-.9,0-1.31-.09a1.68,1.68,0,0,1,.37-3.33,10,10,0,0,0,1.05.08,20,20,0,0,0,11.52-3.8c3.12-2.16,5.29-4.72,5.49-6.54C19.93,28.25,19.94,28.2,19.94,28.18Z"/></g></g></svg>