<svg xmlns="http://www.w3.org/2000/svg" viewBox="0 0 246.65 295.95"><defs><style>.cls-1{fill:#1a1a1a;}</style></defs><title>Asset 7</title><g id="Layer_2" data-name="Layer 2"><g id="Layer_1-2" data-name="Layer 1"><path class="cls-1" d="M3.73,260.58c-.81.72,1.41,1.95,8.88,3.88,8.9,2.54,21.7,5.33,21.7,5.33l3.41.51,3.91.58,67,10.57c27.21,4.33,56.75,8.94,88.19,12.86l6.48.79,5.91.72.74.09c.25,0,.55.14.5-.23l.23-1.47.45-3q1-6.84,2.08-13.76,1.83-12.06,3.7-24.41,3.72-24.69,7.59-50.39l7.13-52.12q1.8-13.22,3.63-26.58.93-6.69,1.87-13.4,1.11-6.67,2.23-13.38c1.52-8.93,3.16-18,4.4-27.16.62-4.58,1.17-9.17,1.68-13.75l.75-6.88a31.81,31.81,0,0,0,.24-7.95,13.22,13.22,0,0,0-1.71-4.89,14.9,14.9,0,0,0-1.78-2.2,16.35,16.35,0,0,0-2.14-1.58,23.09,23.09,0,0,0-8.08-2.53c-4.87-.71-9.31-1-13.58-1.82-9-1.9-18.51-3-27.51-4.25L83,6.53,56,2.52,39.24.22,37.58,0l-.24,1.67L36.86,5l-.72,5-1,6.66q-3.84,26.59-7.59,52.51c-5,34.48-9.89,67.87-14.52,99.6-3.93,26.56-7.66,51.72-11.12,75L0,256.87a2.23,2.23,0,0,0,.25.72C1.38,259.49,2.59,260.34,3.73,260.58ZM235.31,39.68c1.55.62,2,1.06,2.39,1.9a11.41,11.41,0,0,1,.23,4.67v.08c-.24-.7-.5-1.42-.82-2.24a27.72,27.72,0,0,0-2.19-4.51Zm-1.57,39.26c-.38,2.4-.74,4.81-1.16,7.21-.09.56-.19,1.12-.28,1.68,0-.76,0-1.52-.1-2.26a44.22,44.22,0,0,0-.78-5.83Zm-4.6-40.49-1.51.82c-.11-.18-.2-.37-.31-.56s-.21-.33-.31-.5Zm-1.48.89,0-.06,0,0h0v.07ZM222.86,91h0c.13.23.25.46.38.68l.65,1.1.33.55,0,.07,0,0v0l7.36-1.82c-.3,1.74-.59,3.48-.89,5.22a50.77,50.77,0,0,0-7.54-2.36c-2.4-.68-5.08-1.36-7.73-2l6.89-2.34C222.54,90.39,222.69,90.67,222.86,91Zm-1.34-53.46-3.09,1.44-.11-.21c-.33-.65-.73-1.28-1.1-1.91C218.67,37.07,220.1,37.3,221.52,37.49ZM215.58,92.2l.09.14,0,0-.21.08c-7.18-1.73-14-3.12-14-3.12l-.36,0,5.38-2.15,0-.08,0-.18-.23-.91h0L205,81.37l-2.72-11v0a112.56,112.56,0,0,0,5.35,11.53c.74,1.37,1.57,2.7,2.43,4h0c.12.19.21.37.33.55l.36.57,0,0,0,0,1.31-.62c.85,1.58,1.75,3.14,2.74,4.65ZM209.3,35.37c1,.16,2,.37,3,.56-10,3.94-1,.42-4.22,1.68h0l0,.08,0,.15,0,.19-4.53,1.74c-.3-.7-.59-1.4-.9-2.1h0l-.2-.48-.07-.15,0-.07v-.06l-4.73,1.67c-.55-.88-1.12-1.75-1.69-2.61l-.77-1h0L194.2,33.5l-.23-.31,0,0C199.13,33.85,204.27,34.54,209.3,35.37ZM189.46,83.71l.45.91c-2.57,1-1.83.75,0,0l.21.42.07.15,0,.08v0l4.88-2c.28.62.52,1.25.82,1.87.42.9.83,1.8,1.32,2.69l.5.94-14.76-2ZM186.55,36.4c.48-.21.78-.34,0,0ZM188.79,84v0l0-.14-.12-.55-.23-1.11-.24-1.12,1.29,2.66c-.15.07-2.47,1.2-.67.31Zm-6.46-52.49c3.87.62,7.72,1.12,11.55,1.63l-7.33,3.24c-.44-.81-.86-1.63-1.35-2.42h0a3.3,3.3,0,0,0-.18-.32l-.65-1.09-.16-.27-.08-.13-7,2.4-.22-.44-.4-.81h0l-.21-.44-.16-.31-.08-.15,0,0v0l-8.67,3.15-.57-.86-1.85-2.4-.12-.15-.06-.08,0,0,0,0c-3,1.56,5.6-2.92-4.22,2.16a40.41,40.41,0,0,0-2.41-3.35,19.34,19.34,0,0,0-1.68-2l-.9-.95-.44-.47-.23-.24,0,0h0c-1.33.58-.35.15.26-.13ZM170.41,85.16h0l.05,0v0l0-.08-.08-.31L170,83.48c-.86-3.34-1.88-6.59-2.92-9.8h0c-2.48-7.57-5.2-14.93-7.32-22.27.54,1.32,1.07,2.64,1.58,4h0C163.88,62,166.1,68.84,169,75.72c.73,1.71,1.49,3.44,2.36,5.14l.65,1.29.33.64.08.16.05.08v0c3.19-1.39-5.88,2.58,4.35-1.88a47.69,47.69,0,0,0,2.7,4.22l.42.55c-.27.14-.36.18,0,0l.45.58-8.58-1.15c-.47-.06-.94-.15-1.41-.22C171.65,84.57,171,84.87,170.41,85.16ZM168,35.35l.16.67.3,1.28c-.37-.61-.77-1.2-1.16-1.8.32-.11,2.54-.91.68-.23ZM153.52,80.49V80.4l0-.29-.1-.58L153,77.21c-.3-1.52-.59-3.06-.94-4.57s-.81-3.25-1.22-4.88a136.71,136.71,0,0,0,7.13,13.8c.39.62.8,1.22,1.2,1.84-2.66-.42-5.32-.8-8-1.25C152.76,81,154,80.17,153.52,80.49ZM155,27l-7.5,3.28v.23a72.1,72.1,0,0,0,.89,9.78c.05.31.11.6.17.91-1.4-3-2.9-6-4.53-9-.88-1.5-1.68-3-2.65-4.49L140,25.48l-.09-.14,0,0v0l1.49-.56ZM139,75.21V73.43c.14.36.25.71.4,1.07a32.88,32.88,0,0,0,3.3,6.16c-3.52-.62-7-1.23-10.55-1.87Zm2.33-50.48-9.29,3.49v.09l0,.32.09.64.14,1-.82.31a51.21,51.21,0,0,0-4.08-6.23c-.57-.76-1.27-1.47-1.9-2.2h0ZM132.88,33c-.42-.82-.88-1.62-1.34-2.43l.83-.31,0,.32h0C132.54,31.39,132.74,32.18,132.88,33Zm-7.73-10.94c-.66.35-.43.23,0,0Zm0,0-7,3.76v0l0,0,.07.33.16.66.29,1.18c-.85-1.89-1.73-3.79-2.7-5.66-.36-.68-.76-1.34-1.13-2C118.24,20.93,121.68,21.48,125.12,22.05Zm-20.28-3.3c-2.11.75-.67.24,0,0h0l-.42.14V19l0,.17,0,.32.33,2.59h0c.12.82.28,1.62.42,2.43-.73-1.5-1.52-3-2.37-4.48-.35-.61-.73-1.21-1.1-1.81Zm-2.1,52c.21.28.36.58.58.85h0l.4.54,0,.07C119,65.83,108,70.45,111.37,69V69l0-.16,0-.32-.16-1.26c-.11-.84-.21-1.69-.37-2.52-.16-1-.36-1.93-.55-2.89a38.92,38.92,0,0,0,5.3,10,12.92,12.92,0,0,0,1.11,1.29l.62.63.15.16.08.07,0,0c3.2-1.66-7.13,3.76,7.18-3.72v0l0-.34-.39-2.74c0-.19-.08-.39-.11-.59a46,46,0,0,0,2.94,6.11,20.14,20.14,0,0,0,4,5l.76.58.38.29.2.14,0,0-.25.13-1.3-.23c-10.94-2-22-4-33-5.93ZM95.43,17.25l-3.07,1v.08c0,.89,0,1.77.09,2.65,0,0,0,0,0,0,0,.85.09,1.69.18,2.53s.18,1.46.27,2.19a50.89,50.89,0,0,0-4.64-8,22.69,22.69,0,0,0-1.4-1.83ZM94.41,72c-1.54-.26-3.08-.55-4.61-.81l-.37-.06,3.47-1.71c.43.8.88,1.6,1.39,2.38ZM83.65,69.69h0l.42.52Q71.14,68,58.1,66.29l4.17-1.46c.21.34.4.68.6,1-2.53,1.31-1.79.93,0,0a2.26,2.26,0,0,1,.16.26l.14.24,0,0,0,0c-.62.33,1.26-.64,3.49-1.8.38.46.71,1,1.1,1.39l.11.13.06.07c3.09-1.63-6.11,3.25,5-2.63.69,1.09,1.37,2.17,2.12,3.23-.35.16-.52.23,0,0l.14.22.77,1.1.19.28,5.08-2.24C82,67.37,82.81,68.54,83.65,69.69Zm-7.1-52.82.74-.32v.07l0,.18.12,1.12C77.14,17.57,76.86,17.21,76.55,16.87ZM75.11,14,80.9,15l-4.36,1.92c-.19-.21-.35-.44-.55-.65l-.42-.4c1.34-.81,1.05-.64,0,0L74,14.34l-.25-.24L73.67,14l-.06-.06,0,0,0,0,.09-.05Zm-1.46-.21c-.25.14-4.32,2.59-6.78,4.07a33.37,33.37,0,0,0-2.55-3.17L64,14.42h0L62.72,13l-.2-.22-.1-.11-.05-.05L58,15l-.53-.81-.18-.27,0-.07c4.15-2-.18.08-3.85,1.84-.42-.86-.83-1.73-1.3-2.59s-1-1.76-1.53-2.63ZM55.19,65.23c.15.25.28.51.44.76l-1.83-.23.23-.13Zm-1.16.4,1-.59.1.18Zm-9.16-56,.62.09-.68.29Zm-36.64,249a.79.79,0,0,0,.29-.53c0-.28.8-5.39,1.91-12.91C13.72,223,17.28,199,21,173.65c4.56-31.27,9.36-64.17,14.32-98.15.16-1.08.32-2.19.47-3.27l.51.1,1,.19c.54.09.84.12,1.12.15l1.79.19,7.08.79c13.51,1.57,26.93,3.46,40.3,5.92,13.54,2.28,26.86,4.72,40.35,7.2s27,4.88,40.59,6.84l30.65,4.1s24.07,1.73,23.1,1.42a49.52,49.52,0,0,0,8.11-.29c-.78,4.59-1.53,9.18-2.22,13.75q-1.8,13.22-3.59,26.28l-7,51.53c-2.2,16.95-4.91,33.45-7.31,49.66q-3.6,23.74-7,46.36h0l-4.32-.53-11.31-1.43-22.07-3c-14.47-2.06-28.43-4.2-41.84-6.31L50.49,263.54,40.05,262l-3.38-.5s-24.08-2.05-23.11-1.67a62.48,62.48,0,0,0-6.75.09A7.31,7.31,0,0,0,8.23,258.64Z"/><path class="cls-1" d="M75.71,225.33A40.29,40.29,0,0,0,87.8,237.39a51.09,51.09,0,0,0,7.27,4A57,57,0,0,0,102.8,244a52.5,52.5,0,0,0,24.06.7c1.32-.29,2.66-.54,4-.88l3.87-1.31a22,22,0,0,0,3.73-1.54l3.63-1.78a30.94,30.94,0,0,0,3.52-2.23,30.79,30.79,0,0,0,3.4-2.49l1.84-1.88c.57-.61,1.28-1.32,2-2.19s1.43-2.07,2.26-3.27a20.36,20.36,0,0,0,2.23-4.1,22.44,22.44,0,0,0,1.8-4.88,33.15,33.15,0,0,0,1.15-10.95,38.3,38.3,0,0,0-6-18c-1.37-2-2.62-3.54-3.4-4.55s-1.34-1.32-1.19-1.08l-2.85-2.75c-1-.8-2-1.51-3-2.2a29.47,29.47,0,0,0-5.5-3.1c-3.39-1.48-6-1.81-7.07-1.53s-.73,1.51,1.26,3.68c.49.55,1.1,1.13,1.8,1.8s1.38,1.58,2.22,2.47a29.17,29.17,0,0,1,2.6,3.12c.45.6,1,1.17,1.43,1.83L142,189a32.55,32.55,0,0,1,4.38,11.79,23.86,23.86,0,0,1-.82,10.91,19.44,19.44,0,0,1-2,3.82l-1,1.51-1.11,1.13a9.65,9.65,0,0,1-1.6,1.58l-.67.5a27.19,27.19,0,0,1-4.64,3.58c-.88.52-1.9.92-2.83,1.4a15.25,15.25,0,0,1-2.91,1.24l-2.6.89c-.89.23-1.8.38-2.7.58a38.09,38.09,0,0,1-21.74-2.22,33.57,33.57,0,0,1-4.68-2.59A23.21,23.21,0,0,1,90,216.1c-2-2.65-2.63-5.81-3.12-9a22.31,22.31,0,0,1,.14-5c.13-.86.19-1.71.33-2.58s.43-1.73.69-2.58a31,31,0,0,1,12.62-16.76,27.54,27.54,0,0,1,10-4.06,40.61,40.61,0,0,1,5.79-.56,14.55,14.55,0,0,1,4.37.28,2.71,2.71,0,0,0,.66-.51,8.22,8.22,0,0,1,1.08-1c.27,0,.53,0,.8.06,0,0,.91,0,2.49-.11a42.82,42.82,0,0,0,6.61-.85,34.09,34.09,0,0,0,26.23-28.48c.52-5.41-.57-8.78-.47-8.11a20.34,20.34,0,0,0-8.54-12.85c-.85-.55-1.63-1-2.36-1.42s-1.49-.52-2.11-.69a5.9,5.9,0,0,0-2.73-.29c-1.13.33-.75,1.51,1.06,3.77s5,6,5.21,12.24a19.61,19.61,0,0,1-3.8,10.81,22.6,22.6,0,0,1-8.32,7.12,18.14,18.14,0,0,1-7.35,1.8l-2.51,0-.93-.08A34.73,34.73,0,0,1,113.46,155a19.49,19.49,0,0,1-8.06-5.39,10.48,10.48,0,0,1-2.51-7.32,8,8,0,0,1,.24-2.31l.19-1.23.35-1.15.32-1.16.5-1.09.48-1.1.67-1.07a25.78,25.78,0,0,1,7.2-7.58,23.86,23.86,0,0,1,9.51-4.06,13.12,13.12,0,0,1,8.44,1.14,3,3,0,0,0,1-.23c4.31-1.53,7.95-2.72,9.26-5.34a6.72,6.72,0,0,0,.61-4.28,9.16,9.16,0,0,0-1.73-4.29,2.58,2.58,0,0,0-1.19-1.15,30.36,30.36,0,0,0-19.24-2.87,40.77,40.77,0,0,0-16.56,7,42.87,42.87,0,0,0-12,12.79l-1.17,2-1,2.12-.93,2.14-.67,2.24L86.57,135l-.39,2.26a22.14,22.14,0,0,0-.46,4.71,27.92,27.92,0,0,0,6.56,18.76,31.72,31.72,0,0,0,2.87,2.92c-1.27.67-2.51,1.39-3.71,2.17a48,48,0,0,0-19.63,26.05c-.41,1.32-.72,2.68-1.07,4s-.41,2.8-.6,4.21a39.39,39.39,0,0,0-.18,8.63C70.68,214.5,72.33,220.47,75.71,225.33Z"/></g></g></svg>