<svg xmlns="http://www.w3.org/2000/svg" viewBox="0 0 329.54 289.26"><defs><style>.cls-1{fill:#1a1a1a;}</style></defs><title>Asset 5</title><g id="Layer_2" data-name="Layer 2"><g id="Layer_1-2" data-name="Layer 1"><path class="cls-1" d="M22.37,53.59a24.68,24.68,0,0,0-2.32-2.83,5.06,5.06,0,0,0-2.22-1.69c-1.58-.6-3.84,1-4.76,2.15a1.38,1.38,0,0,0-.47.78c-.08.42-.11.8-.18,1.2L8.58,47.65a2.74,2.74,0,0,0-.81-.42C1,45.35-.09,50.23,0,52.88a.85.85,0,0,0,.17.69l9.71,14c.52.74,1.06,1.48,1.58,2.23,0,.14,0,.27,0,.41.13,6.73.61,13.37,1.33,20,.37,3.33.8,6.65,1.35,10,.13.84.27,1.67.44,2.51l.63,3.26,1.08,4.76a10.43,10.43,0,0,0,.62,2.26l2.26-.08,8.11-.32,4.95-.27c3.3-.21,6.62-.45,10-.82a91.81,91.81,0,0,0,10.21-1.6,38.69,38.69,0,0,0,10.61-3.83,20.86,20.86,0,0,0,8.69-9.26,33.36,33.36,0,0,0,2.75-11.2c.62-7.13.22-13.73,0-20.31l-1-21c1.33-1.65,2.62-3.32,4-5l3.64-4.31,3.2-3.66s4.36-5.63,8.85-11,9-10.52,8.49-10.17C109,1.46,112.9-5.41,97.9,6c-4.5,3.28-9.61,7.67-13.6,11.25s-6.78,6.38-6.78,6.38c-2.11,2.42-4.25,4.81-6.3,7.28-2.39,2.82-4.73,5.7-7,8.59l-1.06-.19c-1.74-.25-3.47-.51-5.21-.66,0,0-1.92-.09-4.75-.07a100.1,100.1,0,0,0-10.22.77c-7.3.93-14.12,2.78-13.49,2.77-5.69,1.65-10.09,3.7-10.8,4.89s2.28,1.44,11.46.77a167.53,167.53,0,0,1,16.93,0c5,.32,8.64.93,8.64.93l1.27.14C51,56.71,45.4,64.81,40.14,73.16,39,75,37.8,76.87,36.68,78.75l-2.22,3.69s-.12.21-.11.17l-.69-.8c-4.2-4.83-8.13-10-11.95-15.32a68.78,68.78,0,0,1,.91-12.25A1.92,1.92,0,0,0,22.37,53.59Zm.75,31.65c.8,1,1.58,1.91,2.41,2.85l1.31,1.5,2.43,2.6q2.43,2.61,4.93,5.17l1.24,1.28.62.64c.1.06.22.34.3.2l.22-.38,1.77-3,6.07-10.32Q48.07,79.66,52,73.69c3.76-5.75,7.74-11.34,11.82-16.87l.34,7c.3,6.59.64,13.2.3,19.35a28.87,28.87,0,0,1-1.52,8.25,10.11,10.11,0,0,1-4.13,5.26c-4,2.7-10.5,3.78-16.71,4.55-3.18.34-6.39.64-9.64.83l-7.19.38H25l-.2-1c-.14-.78-.3-1.56-.42-2.36-.52-3.16-1-6.37-1.31-9.59-.18-1.61-.29-3.23-.44-4.84C22.78,84.8,22.94,85,23.12,85.24Z"/><path class="cls-1" d="M9.83,141.79a.87.87,0,0,0-.24.69c.08,5.79.34,11.56.73,17.32.46,6.72,1.09,13.42,1.83,20.09l1.32,11.26.61,4.95.15,1.23.08.62c.19,0,.41,0,.61,0l2.48-.09,8.13-.3c6.62-.25,13.25-.39,20.06-.86A98.85,98.85,0,0,0,56,195.54,36.33,36.33,0,0,0,67,192a19.75,19.75,0,0,0,8.87-9.67,32.59,32.59,0,0,0,2.31-11.58c.27-7.37-.74-14.13-1.75-20.88-.54-3.35-1.14-6.68-1.78-10l-1.62-8-.44-2.17c0-.25-.19-.22-.41-.21H70.34l-5,0-5,.11-2.51.09-5,.28s-7.31.88-14.35,2.28-13.8,3.14-13.19,3.14A47.94,47.94,0,0,0,16.09,139C13.18,137.88,10.89,140.05,9.83,141.79ZM26,141.08c5.48-.22,12-.56,17.22-.66s9-.1,9-.1l4.88-.29,2.44-.1,3-.09,1.69,0c0-.08,0,.18.08.37l.12.59.73,3.88.87,4.91a119.58,119.58,0,0,1,2,19.29,28.66,28.66,0,0,1-1.12,8.42,9.62,9.62,0,0,1-4,5.25c-4,2.57-10.7,3.37-17.1,3.87s-13.27.64-20,.88l-2.51.08s0,0,0,0l-1-8.23c-.73-6.68-1.36-13.34-1.82-20-.37-5.6-.62-11.19-.7-16.76a2.64,2.64,0,0,0-.43-.79l-.14-.16C21,141.38,23.18,141.28,26,141.08Z"/><path class="cls-1" d="M15.68,273.85l.11,8.74a5.76,5.76,0,0,0,.07,1.27l1.29.26,2.58.53,4.7,1c3.5.69,7,1.35,10.57,1.89,7.13,1.07,14.32,2,22,1.69a38.35,38.35,0,0,0,11.88-2.11,20.78,20.78,0,0,0,10.69-8.47,28,28,0,0,0,3.86-12.17,72.37,72.37,0,0,0,.2-11.36c-.36-7.34-1.29-14.37-2.13-21.38l-1.36-11.09-.62-5.05L79.2,215l-.08-.63a2.45,2.45,0,0,0-.62,0l-1.32,0-5.24.07-2.45.07-1.36.06-4.55.28-2.54.22c-1.68.14-3.36.36-5,.54,0,0-7.31,1.33-14.26,3.29s-13.56,4.39-12.93,4.32c-5.48,2.22-9.68,4.75-10.24,6s2.42,1.16,11.48-.45c5.39-.78,11.86-1.66,17-2.13S56,226,56,226c1.61-.24,3.21-.39,4.82-.57l2.41-.22,1.21-.11,1.78-.11,2.58-.15,1.3,0s0,0,0,.15l1,7.89c.88,7.1,1.77,14.16,2.24,21.05a78.14,78.14,0,0,1,.06,10,22.66,22.66,0,0,1-2,8.4,9.8,9.8,0,0,1-5.21,4.79,26,26,0,0,1-8.67,1.81c-6.44.4-13.37-.38-20.22-1.42-3.44-.52-6.89-1.15-10.33-1.83l-1-.2h0l0-1.46-.76-21.47a137,137,0,0,1,.41-16.41,2.6,2.6,0,0,0-.35-.8c-1.89-2.77-3.82-3.66-5.53-3.46a6.38,6.38,0,0,0-4,2.58,1,1,0,0,0-.32.68,145.7,145.7,0,0,0-.44,17.66Z"/><path class="cls-1" d="M118.62,63c-2.84.47-5.68,1.13-8.52,1.69a2.78,2.78,0,0,0-.72.57c-4.39,5.43-.26,8.39,2.18,9.38a.84.84,0,0,0,.69.11c2.72-.53,5.41-1.17,8.17-1.62l8.25-1.35c26.86-3.93,54.27-5.45,81.65-6.79l41.19-1.76,32.35-1.5L298.05,60c7-.94,13.86-1.89,13.25-2,11.45-2.2,18.55-5.08-.07-5.7-11-.71-26.58-.91-26.58-.91L253.19,52.9l-41.94,1.77c-28,1.36-56,2.86-84.1,6.94Z"/><path class="cls-1" d="M283.87,133.47c-11-.82-26.63-1-26.63-1l-9.45.53c-34.53,1.92-69.12,3.28-103.72,4.54l-17,.61a3,3,0,0,0-.79.44c-5.22,4.62-1.83,8.24.48,9.61a.88.88,0,0,0,.68.23l17-.62,57.95-2.3,29-1.37,25.14-1.36,14.15-1.74c7-.9,13.84-1.85,13.24-1.92C295.31,137.15,302.53,134.36,283.87,133.47Z"/><path class="cls-1" d="M318.19,225.76c-11-1.27-26.6-1.93-26.6-1.93l-69,1.83c-26,.79-52.05,1.74-78.08,3.13l-17,1a2.67,2.67,0,0,0-.78.46c-5.11,4.74-1.62,8.28.72,9.6a.85.85,0,0,0,.68.21l16.94-1c25.49-1.37,51-2.32,76.54-3.1l68.95-1.85s28.68-2.46,27.47-2.66C329.46,229.92,336.81,227.44,318.19,225.76Z"/><path class="cls-1" d="M224.56,87c-10.91-1.25-26.5-2.29-26.5-2.29l-9.51.07c-16.92.14-34.07.68-51.19,3.24-5.74.92-11.48,2-17.15,3.45a2.71,2.71,0,0,0-.7.61c-4.21,5.63.1,8.39,2.53,9.28a.81.81,0,0,0,.69.08c5.29-1.4,10.73-2.38,16.18-3.26,16.28-2.44,33-3,49.75-3.15l8.11-.06L211,94c7.05-.51,14-1.18,13.35-1.29C235.93,91.1,243.1,88.5,224.56,87Z"/><path class="cls-1" d="M293.46,250.31c-10.94-1.57-26.57-2.54-26.57-2.54l-25.6.28c-10.21.19-20.41.42-30.62.82-20.41.75-40.84,2-61.23,4.14-5.67.61-11.35,1.24-17,2a2.66,2.66,0,0,0-.75.52c-4.79,5.07-1,8.35,1.38,9.52a.85.85,0,0,0,.69.16c5.57-.74,11.17-1.36,16.76-2,19.77-2,39.63-3.33,59.54-4.07,10-.41,19.92-.63,29.89-.84l25.68-.3,14.19-1c7-.47,13.91-1,13.3-1.07C304.61,254.77,312,252.5,293.46,250.31Z"/><path class="cls-1" d="M268.64,160.47c-10.91-1.39-26.52-2.46-26.52-2.46l-9.5,0c-26.92.24-54.22.71-81.29,6.43-2.86.54-5.69,1.31-8.52,2.08s-5.64,1.61-8.43,2.56a2.93,2.93,0,0,0-.66.66c-3.77,5.92.79,8.34,3.26,9a.81.81,0,0,0,.69,0c2.57-.89,5.16-1.74,7.83-2.39s5.29-1.44,8-1.95c25.62-5.45,52.44-6,79.17-6.23l8.13,0,14.21-.92c7-.48,14-1.08,13.35-1.18C279.94,164.7,287.19,162.23,268.64,160.47Z"/></g></g></svg>