<svg xmlns="http://www.w3.org/2000/svg" viewBox="0 0 309.56 308.49"><defs><style>.cls-1{fill:#1a1a1a;}</style></defs><title>Asset 6</title><g id="Layer_2" data-name="Layer 2"><g id="Layer_1-2" data-name="Layer 1"><path class="cls-1" d="M95.52,105.39a72.84,72.84,0,0,0-5.15,7.71,78,78,0,0,0-4.51,8.22,65.8,65.8,0,0,0-5.22,18.17,90.23,90.23,0,0,0,20.75,69.59c8.2,9.42,19.16,16.91,31.58,20a37.4,37.4,0,0,0,4.68,1c.78.13,1.57.29,2.36.38l2.37.2,2.38.19h2.71l4.14,7.48,4.45,7.83c2.18,3.72,4.3,7.38,6.95,11.13a2.7,2.7,0,0,0,.67.37c.28.08.55.14.82.2a1.35,1.35,0,0,0-.36.21,12,12,0,0,0-4.34,8,11.34,11.34,0,0,0,0,2.33,8.54,8.54,0,0,0,.47,2.32c.25.71.52,1.42.81,2.11s.85,1.36,1.31,2a15.12,15.12,0,0,0,2,1.92,17.52,17.52,0,0,0,2.41,1.3l.53.15a1.2,1.2,0,0,0-.28.55,6.83,6.83,0,0,0,0,4.9,22.66,22.66,0,0,0,2.5,5.69,14,14,0,0,0,1.29,1.66,9,9,0,0,0,1.5,1.53c.58.45,1.16.89,1.76,1.31a19.26,19.26,0,0,0,1.93,1,15.72,15.72,0,0,0,3.45,1.05c1.14.2,2.24.24,3.36.33s2.14,0,3.17-.14l2.12-.28c0,.11-.09.21-.11.31a1.05,1.05,0,0,0,0,.72,13.41,13.41,0,0,0,4.8,7.27,20,20,0,0,0,7.08,3.42,34.41,34.41,0,0,0,16.11,0,38.29,38.29,0,0,0,6.45-2.11,34,34,0,0,0,3.28-1.89,25.63,25.63,0,0,0,6.2-5.58,20.63,20.63,0,0,0,3.77-7.36,9.52,9.52,0,0,0,.47-3.25,14.34,14.34,0,0,0-1.71-8.18c.79-.63,1.59-1.3,2.35-2a20.08,20.08,0,0,0,4.86-6.69,7.87,7.87,0,0,0,.86-3.39,10.94,10.94,0,0,0-1.26-6.54,6,6,0,0,0-2-2.31c.47-.91.63-1.47.53-1.32a9.31,9.31,0,0,0,.06-6.86,4.94,4.94,0,0,0-2.16-2.65c-.5-.14-.64.4-.48,1.67a8.41,8.41,0,0,1-1.15,5.8c-1.9,2.84-5.91,5.3-9.22,6.93s-6,2.65-6,2.65c-2,1-4.12,1.94-6.25,2.82-5.77,2.4-11.74,4.43-17.83,6.45-1.53.52-3,1-4.66,1.61l-2.26.87-2.17.78a73.85,73.85,0,0,1-8.78,2.5,24.38,24.38,0,0,1-2.78.46c-.45.06-.87.08-1.28.11h0a1.32,1.32,0,0,1-.3-.1,2.18,2.18,0,0,1-.52-.33c-.11-.21-.19-.45-.3-.66a1.74,1.74,0,0,0-.11-.18,29.72,29.72,0,0,0,6-1.35c2.41-.77,4.68-1.7,6.86-2.64s4.12-1.8,6.36-2.7c8.67-3.6,17.23-7.42,25.66-11.72,1.83-.94,3.66-1.9,5.48-2.91a108.85,108.85,0,0,0,9-6.25,44.56,44.56,0,0,0,5.66-5.13,14.81,14.81,0,0,0,2.82-4.56,6.4,6.4,0,0,0,.38-2.22,4.64,4.64,0,0,0-1.47-3.37c-1.75-1.47-3-1.35-3.45-1.25s-.27.67.56,1.63a4,4,0,0,1,1,1.86,2.37,2.37,0,0,1-.22,1.26,6.14,6.14,0,0,1-1,1.33c-2.44,2.47-6.78,4.83-10.12,6.58s-6,2.94-6,2.94q-3,1.68-6.14,3.27c-8.15,4.15-16.59,7.92-25.1,11.44-2.07.83-4.45,1.85-6.48,2.75s-4.13,1.73-6.15,2.37a19.15,19.15,0,0,1-5.67,1.11c-.42,0-.76-.07-1.14-.08s-.6-.18-.91-.22a7,7,0,0,0-.65-.36c-.14-.21-.35-.28-.51-.5a3.49,3.49,0,0,0-.43-.65,6.45,6.45,0,0,0-.32-.87,3.73,3.73,0,0,1-.17-1.64A4.23,4.23,0,0,1,169,264a2,2,0,0,0,.08-.46c.08-1.85.23-3.33-.36-4.36,1-.3,2-.63,3.31-1.05,3.89-1.13,8.62-2.4,12.41-3.37l6.61-1.7,10.32-3.5c2.84-1,5.7-2,8.52-3.18,2.46-.95,5.43-1.87,8.25-2.86a92.55,92.55,0,0,0,8.64-3.41,35.65,35.65,0,0,0,4.39-2.36,17.73,17.73,0,0,0,2.25-1.68,7.13,7.13,0,0,0,1.41-1.56,8.19,8.19,0,0,0,1.09-1.84,7.76,7.76,0,0,0-.1-4.32,22.41,22.41,0,0,0-.89-2.57c-.63-1.55-1.31-3-2-4.35-1.4-2.75-2.88-5.38-4.3-8-.71-1.29-1.41-2.58-2-3.82-.31-.62-.61-1.24-.82-1.77l-.06-.12h0l.1-.27.35-.88a15,15,0,0,1,.78-1.61,23.9,23.9,0,0,1,2.22-3.14c15.8-19.66,20.8-46.79,14.44-70.93A80.27,80.27,0,0,0,226.28,98a76,76,0,0,0-30.67-21,44.73,44.73,0,0,0-4.42-1.45l-4.45-1.32-4.53-1a41.55,41.55,0,0,0-4.56-.84l-4.59-.64c-1.53-.23-3.09-.23-4.63-.36s-3.09-.26-4.64-.19l-4.66.09a82.42,82.42,0,0,0-35.77,9.63C112.26,86.73,102.88,95.45,95.52,105.39Zm99.91,189.54a1.28,1.28,0,0,0-.39-.28l-.3-.17a5.83,5.83,0,0,0,.66-.13l.25,1.21C195.57,295.35,195.49,295.15,195.43,294.93Zm37.26-12.42a15,15,0,0,1-.2,1.63l-.05,0-1.21-.52-.78-.32-.61-.2-.74-.23,1.39-.86c.71-.45,1.53-1,2.37-1.61C232.82,281,232.79,281.65,232.69,282.51ZM180.49,287a82.55,82.55,0,0,0,9.71-2.77l2.35-.85,2.23-.86c1.4-.51,2.93-1,4.44-1.53,6.08-2,12.26-4.13,18.33-6.65,1.93-.79,3.84-1.66,5.75-2.56,0,0,1.23-.66,3-1.75a57.41,57.41,0,0,0,6.38-4.39,28,28,0,0,0,5.53-5.71l.31-.47c0,.1,0,.18,0,.3a13.39,13.39,0,0,1-.16,6.24c-1.07,3.23-4.59,6-7.73,7.74a44.68,44.68,0,0,1-4.05,2l-1.68.73c-2,1-4,1.89-6.16,2.72-3.29,1.27-6.68,2.39-10.12,3.36s-7.19,2-10.63,3a95.24,95.24,0,0,1-10.29,2.55c-3.29.57-6.55.67-8.71-.34a4.32,4.32,0,0,1-.84-.39C179,287.26,179.75,287.15,180.49,287Zm-33-56.16Zm51,11.62-3.69,1.27-1.74.58-2.25.76a6.34,6.34,0,0,0,.15-.76.61.61,0,0,0,0-.53c-1.8-3.77-3.52-7.63-5.27-11.52a218.08,218.08,0,0,0-11-21.92c-4.27-7.1-9.44-14.13-16.77-19.25l-2.79-1.8-2.7-1.52-5.3-2.86a56.56,56.56,0,0,1-9.4-6.07,10.55,10.55,0,0,1-2.76-3.33,2.74,2.74,0,0,1-.3-1.31,3,3,0,0,1,.33-1.35c.94-2.08,4.16-4.79,7-6.33a19.55,19.55,0,0,1,3-1.29,21.82,21.82,0,0,0-.47,3.24,28.83,28.83,0,0,0-.11,3.46v.86l.08,1a11.39,11.39,0,0,0,.44,2.18,8.8,8.8,0,0,0,2.85,4.42,8.39,8.39,0,0,0,5.19,1.84,11.78,11.78,0,0,0,8.2-3.47,11.15,11.15,0,0,0,3.46-8.36,13.3,13.3,0,0,0-3.28-7.79,16.68,16.68,0,0,0-2.73-2.64,11.62,11.62,0,0,1,3.5-.32,20.73,20.73,0,0,1,4.7.9,20.29,20.29,0,0,0,.35,6.22,15.32,15.32,0,0,0,.63,2.06,10.88,10.88,0,0,0,1.52,2.6,6.58,6.58,0,0,0,5,2.52,28.5,28.5,0,0,0,2.83-.7,4.62,4.62,0,0,0,1.37-.6c.41-.23.76-.45,1.12-.69a7.65,7.65,0,0,0,3.12-5,8.71,8.71,0,0,0-1.39-5.54,15.71,15.71,0,0,0-2.74-3.08,26.34,26.34,0,0,0-2.93-2.14,9.16,9.16,0,0,1,1.14-1.85,5.2,5.2,0,0,1,6.31-1.68,10.49,10.49,0,0,1,3.64,2.88c-.14.33-.31.62-.43,1a15.26,15.26,0,0,0-.87,4,8.14,8.14,0,0,0,0,1.22,7.3,7.3,0,0,0,.17,1.37,6.24,6.24,0,0,0,.53,1.58,5.86,5.86,0,0,0,1.13,1.65,6.68,6.68,0,0,0,1.75,1.26,8.75,8.75,0,0,0,1.82.51c.52,0,1.06.06,1.56,0s.84-.12,1.25-.2l.31-.06a4.82,4.82,0,0,0,.82-.29,4.45,4.45,0,0,0,1.49-1,5.15,5.15,0,0,0,1.31-2.38,8.11,8.11,0,0,0,.14-2.95,18,18,0,0,0-2.08-6.07c.35-.48.69-1,1.07-1.41a8.69,8.69,0,0,1,3.27-2.46,2.59,2.59,0,0,1,1.28-.19,2.47,2.47,0,0,1,1.15.41,9.34,9.34,0,0,1,2.69,3.12,7.83,7.83,0,0,1,1.07,3.86c.08,2.86-1.26,6.24-3,9.46a98.08,98.08,0,0,1-6.37,9.68,82.4,82.4,0,0,0-6.92,10.65c-.26.51-.51,1.11-.75,1.73a17.54,17.54,0,0,0-.49,2,16.32,16.32,0,0,0-.41,3.74,36.91,36.91,0,0,0,.59,6.71c.15,1.1.41,2.11.63,3.15s.46,2.07.74,3.07l.65,2.43.14.45.55,1.82c.35,1.22.75,2.4,1.14,3.59,0,0,2,5.1,4.15,9.94s4.11,9.54,4,9.1c.86,1.83,1.61,3.48,2.26,4.78Q200.81,241.66,198.5,242.46ZM152,171.27a19,19,0,0,1,.81-5.91,7.51,7.51,0,0,1,1.6,1.13,10,10,0,0,1,2.33,3.3,2.94,2.94,0,0,1-.27,2.61,4.83,4.83,0,0,1-2.5,2,2.56,2.56,0,0,1-1.15.16.55.55,0,0,1-.33-.16,2.33,2.33,0,0,1-.37-.94,7,7,0,0,1-.12-.9Zm22.64-6a3.15,3.15,0,0,1,.24.3l.15.24-.2.11C174.92,166.24,174.79,165.9,174.64,165.31ZM124,89.4a72.85,72.85,0,0,1,31.45-10.14,85.73,85.73,0,0,1,33.16,3.54A67.72,67.72,0,0,1,217,99.41a71.35,71.35,0,0,1,17.52,28,75.85,75.85,0,0,1,3.59,33,73.91,73.91,0,0,1-11,31.21c-.75,1.09-1.45,2.38-2.24,3.31-.89,1.11-1.82,2.22-2.81,3.52a24.13,24.13,0,0,0-2.68,4.44c-.38.82-.66,1.54-1,2.4a6.38,6.38,0,0,0-.28,4.22l.36,1,.28.68.52,1.13,1.06,2.08,2.13,3.92c1.41,2.56,2.81,5.09,4,7.59.6,1.24,1.17,2.49,1.58,3.62.09.27.19.54.24.77h0a3.66,3.66,0,0,1-.57.47,12.31,12.31,0,0,1-1.46,1,33,33,0,0,1-3.52,1.78c-2.5,1.11-5.16,2.08-7.88,3s-5.48,1.79-8.44,3l-.86.33a42.92,42.92,0,0,0-.76-4.88c-.76-4.13-2-9-3-12.8l-1.72-6.6-1.13-3.5-.52-1.75-.27-.87-.13-.44-.66-2.47a41.32,41.32,0,0,1-1.63-11l0-1.21c.09-.33.17-.65.23-1a6.56,6.56,0,0,1,.81-2.1,46.14,46.14,0,0,1,3-4.78c2.25-3.26,4.75-6.56,7.08-10.11a45.22,45.22,0,0,0,6-12,19.29,19.29,0,0,0,.75-7.55,16,16,0,0,0-2.87-7.36,14,14,0,0,0-6.34-5.41,10.46,10.46,0,0,0-4.86-.52,12,12,0,0,0-4.21,1.48,17.44,17.44,0,0,0-4.58,3.84c-.15-.14-.29-.29-.45-.43a15,15,0,0,0-7.22-3.63,12.68,12.68,0,0,0-8.46,1.47,14.69,14.69,0,0,0-5.59,5.94c-.17.31-.3.63-.44.94-1-.28-1.9-.52-2.88-.72a23.56,23.56,0,0,0-7.29-.3,16.08,16.08,0,0,0-7.4,2.86,14.64,14.64,0,0,0-2,1.83,20.41,20.41,0,0,0-2.08.1,23.56,23.56,0,0,0-7,2,29.17,29.17,0,0,0-6,3.68,23,23,0,0,0-5.09,5.33,12.47,12.47,0,0,0-1.74,4,10.38,10.38,0,0,0,.07,4.8,14.92,14.92,0,0,0,4.33,6.91,53.24,53.24,0,0,0,10.89,7.48c3.61,2,7.41,3.83,10.41,5.86,6.12,4,10.9,10.25,15,17a202.35,202.35,0,0,1,10.81,21.48c1.74,3.86,3.48,7.76,5.34,11.66a2.27,2.27,0,0,0,.54.42h0c-1.51.63-3.21,1.35-4.91,2.1a73.11,73.11,0,0,0-9.12,4.52c-.54.3-1.05.61-1.55.93a5.46,5.46,0,0,0,.32-1.88.5.5,0,0,0-.11-.45c-2.25-3.18-4.42-6.87-6.53-10.48-2.93-5.05-5.67-10-8.59-15.33-.72-1.26-1.39-2.6-2.15-3.8h-4.39a29.46,29.46,0,0,1-4.13-.13,46.25,46.25,0,0,1-8-1.24c-10.57-2.51-20.1-8.72-27.5-16.92a78.3,78.3,0,0,1-16.33-28.94A81.26,81.26,0,0,1,88,142.83a60.79,60.79,0,0,1,3.89-16,35.56,35.56,0,0,1,1.66-3.73,34.62,34.62,0,0,1,2-3.65A75.09,75.09,0,0,1,100,112.3,78.91,78.91,0,0,1,124,89.4Z"/><path class="cls-1" d="M31.23,145.3l4.37,0a27.42,27.42,0,0,0,4.13-.09c3.63-.3,6.17-1.57.84-4.17a52.64,52.64,0,0,0-7.77-3.28c-9.19-1.44-18.67-2.45-28.27-1.86l-.67,0-.53.23c-.25.11-.41.17-.74.33l-.24.12-.12.06-.25.15a4.83,4.83,0,0,0-.51.36,4,4,0,0,0-.94,1.12,3.51,3.51,0,0,0-.31.65,3.93,3.93,0,0,0,1.11,4.24,3.08,3.08,0,0,0,.5.37,4,4,0,0,0,1.08.48,4.56,4.56,0,0,0,.62.13l.54.06.54,0c.06,0,.13-.24.14-.3a5.12,5.12,0,0,1,.54-1.71l.45.8.16.3-.89.21A123.09,123.09,0,0,1,31.23,145.3ZM4.6,136.6Z"/><path class="cls-1" d="M302.52,62.37a.71.71,0,0,0-.55.06A96.13,96.13,0,0,0,290.46,69c-2.77,1.91-5.49,3.87-8.06,6-1.64,1.3-3.21,2.68-4.77,4.06,0,0-3.92,3.91-7.42,7.93s-6.81,8-6.44,7.73c-5.31,6.86-7.93,12,2.86,3.15,3.25-2.56,7.05-5.75,10.07-8.21S282,85.45,282,85.45c1.7-1.55,3.45-3,5.23-4.49,2.42-2,5-3.8,7.51-5.56a89.21,89.21,0,0,1,10.57-6,2.07,2.07,0,0,0,.39-.52C307.83,64.16,304.64,62.58,302.52,62.37Z"/><path class="cls-1" d="M71.46,78.08c3.13.78,5.46.15,2.28-3.59a50.38,50.38,0,0,0-4.6-5.26l-3.2-2.12c-1.94-1.27-4.57-3-7.33-4.59a62.81,62.81,0,0,0-8.09-4.09A28.7,28.7,0,0,0,46.21,57a.92.92,0,0,0-.31.24,9,9,0,0,0-1.64,7c0,.2,0,.2.09.22s.37.09.93.24,1.37.42,2.33.84a54.72,54.72,0,0,1,7,3.53c2.52,1.46,5,3.08,6.9,4.31l3.15,2.06L68.1,76.9A17.29,17.29,0,0,0,71.46,78.08Z"/><path class="cls-1" d="M212.22,44.79a52.91,52.91,0,0,0,5.39-5.2l2.13-3.41c1.29-2,3.07-4.66,5-7.1a36.23,36.23,0,0,1,5.64-5.92,15.25,15.25,0,0,1,2-1.35,5.13,5.13,0,0,1,.78-.36,1.94,1.94,0,0,0,0-.35,13.56,13.56,0,0,0-.88-4.43,4.81,4.81,0,0,0-1.82-2.23c-.18-.13-.21-.12-.3-.08a17.77,17.77,0,0,0-4.48,2.72,43.1,43.1,0,0,0-6.85,7.1c-2.13,2.71-4,5.49-5.35,7.59l-2.19,3.5L209.82,39a18.85,18.85,0,0,0-1.18,3.54C207.82,45.64,208.17,48.32,212.22,44.79Z"/><path class="cls-1" d="M65.29,206.44a42.75,42.75,0,0,0-5.73,4.34L52,220.71c-1.91,2.47-3.84,4.94-5.31,6.76-.73.89-1.35,1.66-1.79,2.15-.21.26-.39.46-.51.6l-.19.21a1.12,1.12,0,0,0,.11.34A11.33,11.33,0,0,0,47,234.34a5.78,5.78,0,0,0,2.57,1.29c.2.05.22,0,.27,0,.27-.2,4.34-5.14,8.08-10.07l7.49-9.86s3.49-6.75,3.17-6.59C69.68,206.18,69.56,203.57,65.29,206.44Z"/><path class="cls-1" d="M270.16,154.78c-3.75.3-6.35,1.59-.81,4.17a62.32,62.32,0,0,0,8,3.31l30.33,5.07a1.08,1.08,0,0,0,.3-.26,7.2,7.2,0,0,0,1.13-7.11c-.07-.2-.1-.2-.17-.22l-29.92-5S269.81,154.55,270.16,154.78Z"/><path class="cls-1" d="M126.35,2.77c-1.5-1.3-2.63-2.62-3.9-2.76A2.63,2.63,0,0,0,120.6.6a5.39,5.39,0,0,0-1.4,1.57,1,1,0,0,0-.22.62,34.54,34.54,0,0,0,.58,7.21c.39,2.21.86,4.38,1.38,6.5l0,.17c.51,2,1,4,1.6,6,0,0,1.81,5.17,3.74,10.11s3.86,9.73,3.79,9.27c1.77,4,3.36,7.12,4.27,7.63s1.21-1.76-.15-8.66c-.69-4.1-1.76-9-2.59-12.82s-1.44-6.67-1.44-6.67q-1-3.36-1.8-6.72v-.16q-.75-3-1.27-6a27.72,27.72,0,0,1-.48-5.48A1.51,1.51,0,0,0,126.35,2.77Z"/></g></g></svg>