<svg xmlns="http://www.w3.org/2000/svg" viewBox="0 0 213.44 313.61"><defs><style>.cls-1{fill:#1a1a1a;}</style></defs><title>Asset 8</title><g id="Layer_2" data-name="Layer 2"><g id="Layer_1-2" data-name="Layer 1"><path class="cls-1" d="M49.16,290.13a16.11,16.11,0,0,0,.33,5.07,22.63,22.63,0,0,0,3.78,8.95,19.14,19.14,0,0,0,2.5,2.88,6.27,6.27,0,0,0,.82.76l.32.25.51.36a13.18,13.18,0,0,0,1.49,1,24,24,0,0,0,2.42,1.26l1.06.45a35.72,35.72,0,0,0,8.86,2.2,68.7,68.7,0,0,0,18.31-.69A158.85,158.85,0,0,0,108,308.44c3.09-.86,6.19-1.78,9.3-2.72l4.69-1.4,4.64-1.25c12.59-3,26.46-3.59,40.77-5.83a109.65,109.65,0,0,0,21.7-5.35c1.8-.67,3.55-1.54,5.34-2.31,1.71-.95,3.46-1.86,5.14-2.93l2.44-1.76,1.23-.88c.4-.32.79-.72,1.19-1.08a23.7,23.7,0,0,0,4-5c4.28-7.42,5.07-15.83,5-23.83a143,143,0,0,0-2.77-24c-1.49-8-3.42-15.88-5.27-23.8-.45-2-.9-4-1.29-5.91s-.79-4-1.19-6.06l-2.39-12.2c-6.42-32.67-13.05-66.45-19.8-100.8q-2.53-12.89-5.08-25.86c-1.77-8.66-3.21-17.29-5.4-26.1a71,71,0,0,0-4.5-13,30,30,0,0,0-9-11.31A27.13,27.13,0,0,0,143,.14L139.45,0c-1.19,0-2.34.15-3.51.22-2.39.13-4.55.49-6.77.77C111.47,3.43,94,6.7,76.51,9.07c-8.74,1.17-17.46,2.12-26.21,2.66-8.95.68-18,1.95-26.58,5.31a44.68,44.68,0,0,0-12.07,7,33.26,33.26,0,0,0-8.54,11.3A39.35,39.35,0,0,0,0,48.91c0,2.27,0,4.61.13,6.81l.58,6.52C2.5,79.59,6,96.39,9.77,112.77s7.81,32.36,11.06,48.12S27,192.26,30,207.39c5,25.25,9.65,49.17,14,71.32.92,4.68,1.54,7.86,1.58,8a1.29,1.29,0,0,0,.29.37c2.79,2.3,4.36.26,4.87-1a.46.46,0,0,0,.06-.36c0-.17-.65-3.31-1.56-7.92L35.91,209.9q-4.39-22.38-9-45.89c-3.12-15.73-7.07-31.55-10.82-47.62S8.76,84,6.63,67.27L5.92,61l-.54-6.3c0-2-.15-4.06,0-6.06a34,34,0,0,1,.87-5.9,30.13,30.13,0,0,1,1.85-5.6,27.89,27.89,0,0,1,3.09-5,28.8,28.8,0,0,1,9-7.61c7.09-4,15.44-5.88,23.84-6.89,2.11-.3,4.24-.42,6.36-.61L57,16.59Q63.55,16,70.1,15.25c17.47-2.08,34.75-5.28,52-7.86,4.3-.64,8.67-1.3,12.92-1.77a35.38,35.38,0,0,1,12.06.56,19.1,19.1,0,0,1,9.66,6,33.88,33.88,0,0,1,5.89,10.52c2.88,7.85,4.31,16.43,6,25s3.35,17,5,25.49c6.65,33.85,13.19,67.15,19.51,99.35q2.37,12.07,4.7,23.94c.76,3.91,1.57,8,2.5,11.87l2.69,11.58a230.91,230.91,0,0,1,4.17,22.76c.9,7.5,1.27,15,.17,22a30.17,30.17,0,0,1-3.14,9.75,19.72,19.72,0,0,1-2.81,3.95,21,21,0,0,1-1.76,1.61l-2.08,1.49c-5.6,3.91-12.17,6.35-18.8,8.05-13.37,3.34-27,4.11-40.06,6a122.31,122.31,0,0,0-19.19,4c-6,1.79-11.82,3.58-17.52,5a126.77,126.77,0,0,1-16.73,3.27,54.1,54.1,0,0,1-15.59-.12,27.7,27.7,0,0,1-3.51-.87,17.24,17.24,0,0,1-1.67-.57l-.83-.36-.27-.11-.52-.22-.86-.48a9.4,9.4,0,0,1-1.57-1,18.45,18.45,0,0,1-4.91-4.22,34.19,34.19,0,0,1-3.3-5.42c-1.16-2.58-1.9-4.91-2.53-5.32C49.51,288.92,49.26,289.19,49.16,290.13Z"/><path class="cls-1" d="M187.58,238.46c1.33-.48,2.77-.88,4-1.41l-.66-4.27c-.23-1.45-.45-2.9-.68-4.37q-.7-4.32-1.41-8.71c-3.87-23.37-8.65-47.88-13.64-73.21-2.51-12.74-5.59-25.54-8.76-38.46l-4.77-19.46c-1.55-6.57-3.16-13-4.21-19.64-2.29-13.27-4-27-8.23-40.48l-.41-1.26-.71-2.11-.41-1.22-.21-.61c-.1-.15-.06-.51-.27-.49l-2.55.3-5.93.71L128.49,25,108,27.71c-27.36,3.77-54.7,8.34-81.27,14.7l-2.76.67-2.47.59-1.23.3-.62.14c-.2.06,0,.38,0,.55l1.43,7.25c.64,3.32,1.34,6.62,1.93,9.93,1.21,6.63,2.41,13.22,3.5,19.8,2.23,13.16,4.26,26.2,6.27,39.05,4,25.69,8,50.61,12.87,74.12,1.32,5.86,2.46,11.67,3.88,17.34.69,2.85,1.36,5.67,2,8.46s1.48,5.55,2.21,8.29c1.39,5.5,3.11,10.81,4.64,16.08l1.53,4.76c1.52,4.55,2.55,7.64,2.6,7.81a1.49,1.49,0,0,0,.34.33c3,1.9,4.33-.37,4.67-1.73a.44.44,0,0,0,0-.37c-.06-.16-1.06-3.17-2.54-7.59-.3-.92-.62-1.86-.93-2.81-1.52-5.13-3.16-10.31-4.6-15.65S56.55,219,55.27,213.39s-2.61-11.2-3.85-16.95c-4.92-23-8.85-47.46-12.83-72.79q-3-19-6.13-38.56C31.34,78.58,30.27,72,29,65.47c-.6-3.28-1.17-6.58-1.84-9.87q-.73-3.74-1.48-7.48l7.17-1.69c3.26-.75,6.54-1.49,9.82-2.17,6.57-1.42,13.19-2.71,19.83-3.95q19.93-3.66,40.11-6.48c13.43-1.91,26.89-3.6,40.31-5.2l.71-.09v0c.53,1.56,1,3.14,1.45,4.73.92,3.18,1.68,6.41,2.38,9.65,1.4,6.5,2.44,13.09,3.52,19.7.56,3.32,1.12,6.62,1.67,9.92s1.3,6.65,2.07,9.88q2.32,9.69,4.64,19.26c3.13,12.73,6.25,25.26,8.9,37.65,5,24.86,9.72,49,13.72,71.94q1.49,8.59,2.82,17,.42,2.63.82,5.22c-.38.13-1.73.6-2.59.84-1.3.38-2.57.8-3.88,1.14a264.38,264.38,0,0,1-30.74,6c-10,1.51-19.7,2.88-28.86,4.84S102,250.57,94,252.7l-7.19,1.91-2,.53-7,2.25c-3.47,1.11-6.88,2.12-6.57,2.1-5.65,1.87-9.25,3.82.45,2.92,5.75-.42,13.77-2,13.77-2l2.08-.54,2.38-.63,7.2-1.92c4.28-1.14,8.68-2.31,13.21-3.43A288.31,288.31,0,0,1,139,248.29c10.13-1.57,20.82-3,31.82-5.32A154.33,154.33,0,0,0,187.58,238.46Z"/><path class="cls-1" d="M145.08,276.51l-.1.05-.36.09-2.61.72a16.6,16.6,0,0,0-2.36.71c-5.73,1.79-9.28,3.69.39,2.93,1.32-.07,2.78-.18,4.22-.31l1.08-.1.58-.06.93-.13,3.72-.55L150,276c0-.29-.08-.58-.11-.86s0-.31,0-.45c0-.29,0-.55-.07-.79-.11-1-.17-1.58-.17-1.58-.16-.88-.33-1.77-.53-2.66l-.32-1.34-.43-1.54a23.34,23.34,0,0,0-1.84-4.41,13.26,13.26,0,0,0-3.42-4,8.8,8.8,0,0,0-1.15-.76c-.41-.21-.78-.43-1.45-.71l-1-.17a4.59,4.59,0,0,0-.7-.05,10.31,10.31,0,0,0-1.23,0c-1.57,0-3,.16-4.46.33-2.89.33-5.71.81-8.56,1.42-1.43.32-2.84.65-4.32,1.13a14.44,14.44,0,0,0-2.4,1,8.68,8.68,0,0,0-2.32,1.85,18,18,0,0,0-4.11,8.93,16.79,16.79,0,0,0,1,9.85,12.25,12.25,0,0,0,3.35,4.27,8.23,8.23,0,0,0,5.72,1.65c3.67-.31,6.29-1.49,8.77-1.68a1.21,1.21,0,0,0,.32-.24c1.07-1.21,1.52-2.21,1.32-3.1a2.94,2.94,0,0,0-1.74-1.87.55.55,0,0,0-.42-.1c-3.4.35-6.32,1.55-8.53,1.67a3,3,0,0,1-2.15-.52,6.92,6.92,0,0,1-1.77-2.25,11.3,11.3,0,0,1-.69-6.52,13.78,13.78,0,0,1,2.6-6.26,4,4,0,0,1,2.24-1.43,37.73,37.73,0,0,1,3.71-1c2.58-.58,5.25-1,7.89-1.37,1.32-.16,2.65-.31,3.92-.36a16.8,16.8,0,0,1,1.73,0l.21,0h0s.36.19.53.27a9.58,9.58,0,0,1,3.57,5.21c.46,1.36.58,1.92.79,2.73s.35,1.56.5,2.37l.43,1.77c.07.27.14.57.21.88l.12.49.05.25,0,0a1.34,1.34,0,0,1,.21.31.8.8,0,0,1-.16.13Z"/><path class="cls-1" d="M78.47,116.2a1.81,1.81,0,0,0,.56,2.57c.07.06.09.06.14,0l3.12-.63c1.51-.3,3-.56,4.55-.84a1.1,1.1,0,0,0,.46.24c.08,0,.09-.12,0-.32,1.69-.31,3.37-.63,5.06-.92.88.65,1.38.84.77-.13l3.22-.54.48,2.13c1.24,5.32,2.53,10.62,3.82,15.91l.79,3.22c-12.07,2.11-24.23,4.09-36,8l-3,1.06a.42.42,0,0,0-.11.16,2.3,2.3,0,0,0-.19,1.35l-.42.29.94,3.52c.46,1.76.9,3.51,1.31,5.28l.49,2.15s.51,1.88,1,3.74.84,3.68.84,3.52a12.64,12.64,0,0,0,.94,3c.22.25.35-.51.13-3.07-.1-1.51-.32-3.34-.53-4.79s-.39-2.52-.39-2.52l-.59-2.57q-.63-2.7-1.32-5.37l-.59-2.19a.28.28,0,0,0,0-.09l2.29-.8c11.63-3.89,23.74-5.87,35.84-8h.07l2.14,8.79s.53,1.89,1.06,3.75,1,3.67,1,3.5c.91,3,1.77,4.91,1-.16-.38-3-1.18-7.24-1.18-7.24l-1.64-6.79-.53-2.19c5.39-1,10.78-2,16.13-3.2l4.48-1.11,4.46-1.25,3-.95s1.27-.53,2.49-1.08a25.52,25.52,0,0,0,2.29-1.17c1.95-1.09,3.08-2.17-.36-1.52-1,.15-2.24.44-3.21.64l-1.68.34-2.16.7c-3,.9-6,1.72-9,2.44-5.66,1.34-11.37,2.41-17.11,3.42l-.77-3.14c-1.32-5.38-2.63-10.75-3.88-16.14l-.44-1.95,1.9-.32,6.34-1c.16.1.26.1.25,0l9.16-1.44s5.24-1.29,5-1.32c2.07-.67,3.34-1.5-.21-1.54-2.11-.1-5.06.06-5.06.06l-5.4.85a14.37,14.37,0,0,0-1-1.79c-1.2-2-3-4.68-3-4.68l-3.43-4.5L98.52,94c-2.83-3.79-5.63-7.62-8.35-11.55-.34-.49-.67-1-1-1.48L92.44,80l1.92,2.73c2.63,3.69,5.3,7.3,8,10.91l4,5.42,2,2.73,1.31,1.83,1.77,2.26c.87,1.12,1.72,2.23,1.66,2.11,1.46,1.8,2.57,2.77.64-.73-1.12-2.1-2.87-4.89-2.87-4.89l-1.24-1.74-2-2.79-4.06-5.53c-2.72-3.68-5.43-7.33-8.08-11.06l-1.22-1.74c1.13-.32,2.27-.61,3.41-.91l.7.81c3.24,3.82,6.39,7.81,9.48,11.9l1,1.33,1.81,2.2c.89,1.09,1.75,2.17,1.69,2.06l.73.82c.15.55.33,1.17.5,1.79.51,1.85,1,3.67,1,3.5.84,3,1.65,5,1.06-.11-.31-3-1.12-7.27-1.12-7.27l-.62-2.54c-1.18-4.88-2.4-9.72-3.41-14.57-.23-1.11-.45-2.23-.65-3.35,2.66-.86,4.07-1.88-.8-2.07a47,47,0,0,0-7.3.34l-2.51.59c-7.41,1.83-14.65,4.18-22,6-1.48.37-3,.73-4.45,1a.66.66,0,0,0-.17.21,3.07,3.07,0,0,0-.4,2s0,0,0,0v.08h0l0,.15,0,.09-.11.29a.41.41,0,0,0,0,.2l.05.62c0,.23,0,.44.08.64l.18,1.2c.12.81.26,1.57.39,2.36,1,5.41,2.27,10.68,3.48,15.92l.5,2.17s.52,1.89,1,3.74.92,3.68.91,3.51c.16.64.32,1.22.48,1.7l-.32.07A.57.57,0,0,0,78.47,116.2Zm27.29-39.83,2.09-.6c.19,1.06.4,2.12.62,3.18s.45,2.11.69,3.16l-.07-.1-2.22-2.83c-.81-1-1.58-2.07-1.93-2.57ZM100,78l2.12-.5,1.54-.49a.14.14,0,0,0,0,.06.86.86,0,0,0,0,.28c0,.09,0,.12,0,.17s0,.07,0,.09c.08.18,1.17,1.68,2.28,3.1l2.22,2.81s1.51,1.42,1.47,1.31a2.29,2.29,0,0,0,.27.17c.69,2.9,1.4,5.78,2.1,8.65l.36,1.48c-1.09-1.84-2.35-3.76-2.35-3.76l-1.17-1.56q-4.52-6-9.28-11.68ZM85.65,114.71l-1.54-2.28L83,110.88l-1.22-1.49c-.42-.5-.85-1-1.29-1.48a32.72,32.72,0,0,0-2.35-2.36l-.27-1.17c-.27-1.18-.55-2.35-.82-3.53a102.17,102.17,0,0,0,9.5,10.41l1.12,1.1s.91.81,1.86,1.63Zm1.81-33.26c.54.82,1.09,1.63,1.65,2.44,2.7,3.9,5.47,7.69,8.26,11.44l4.21,5.59,3.48,4.57s3.71,4.37,3.58,4.15c.4.43.77.81,1.06,1.07l-4.44.69c-1.22-1.87-2.82-4.06-2.82-4.06l-3.69-4.51c-1.57-1.93-3.11-3.89-4.64-5.87A112.8,112.8,0,0,1,85.54,84.4c-.38-.69-.75-1.39-1.11-2.09Zm-4.63,1.3c.48,1,1,2,1.52,2.89A113.86,113.86,0,0,0,93,98.31q2.28,3,4.6,5.83l3.76,4.61,2.62,2.86-3.22.5c-.2-.32-.47-.74-.84-1.28-1.27-1.91-3.2-4.44-3.2-4.44l-3.64-4.3q-2.3-2.73-4.53-5.53A131.7,131.7,0,0,1,80,84.76l-.67-1.09C80.52,83.37,81.68,83.07,82.83,82.75Zm-5.14,1.36c.4.68.8,1.34,1.21,2A134.65,134.65,0,0,0,87.41,98c1.48,1.87,3,3.69,4.49,5.49l3.72,4.39s3.86,4.07,3.72,3.85c.2.2.4.38.58.55l-2.35.39,0,0c-.66-.72-1.09-.67-1.37-.38-.1-.16-.22-.34-.36-.53-1.28-1.9-3.24-4.39-3.24-4.39l-3.65-4.12q-2.3-2.57-4.55-5.17c-3-3.48-6-7-8.69-10.89-.51-.71-1-1.44-1.49-2.18C75.36,84.68,76.53,84.4,77.69,84.11Zm-3.23,4.56c0-.14,0-.29-.08-.43l.26.36c2.77,3.87,5.71,7.43,8.68,10.88,1.49,1.73,3,3.43,4.49,5.12l3.71,4.17,1.93,2c1,1,1.88,1.93,1.82,1.82q.21.21.42.39l-4.5.76c-1.23-1.49-2.55-3-2.55-3l-1.29-1.28A98.92,98.92,0,0,1,78,99.19c-.33-.45-.64-.91-1-1.37l-.43-.71-.21-.35-.17-.37a.47.47,0,0,0-.12-.09l-.08,0C75.44,93.74,74.91,91.21,74.46,88.67Zm5.05,25.54c-.16-1.78-.49-4-.73-5.51.29.3.58.6.87.92s.83.93,1.23,1.41l1,1.24,1.87,2.09.54.6c-.86.16-1.73.3-2.59.47l-2.09.42C79.61,115.41,79.57,114.88,79.51,114.21Z"/><path class="cls-1" d="M58.47,207.84c.27.91.49,1.15.55.1,1-.18,1.93-.4,2.89-.63,3.54-.87,7-2,10.41-3.21l5.13-1.8,2.56-.87,1.89-.6,2.49-1c1.23-.48,2.45-.9,2.33-.91,2-.81,3.27-1.73-.27-1.54a35.62,35.62,0,0,0-5,.66l-1.71.54c-3.92,1.28-7.77,2.72-11.65,4-.2-.33-.47-.76-.86-1.32-1.27-1.91-3.18-4.46-3.18-4.46l-1.21-1.45c-1.09-1.33-2.17-2.66-3.24-4-.71-.89-1.41-1.79-2.11-2.69a.61.61,0,0,0-.14-.07,1.17,1.17,0,0,0-.32,0c-.37-2.27-.75-4.53-1.16-6.79l.6,1.1c.3.56.64,1.07,1,1.6A70.46,70.46,0,0,0,65,193.8L66.05,195l2,1.89c1,.94,1.89,1.87,1.82,1.77,1.57,1.51,2.75,2.34.54-.87-1.3-1.91-3.3-4.32-3.3-4.32l-1.26-1.36a67.92,67.92,0,0,1-7.26-9c-.3-.49-.62-1-.89-1.47a17.17,17.17,0,0,1-.81-1.53.58.58,0,0,0-.13-.11c-.67-.35-1-.08-1.12.32-.09-.52-.18-1-.28-1.56-.23-1.24-.48-2.47-.73-3.71.33,0,.65,0,1,0l0,0c.63,1.05,1.29,2.05,2,3.05a152,152,0,0,0,11.89,14.7l1.07,1.2s3.91,4,3.77,3.74c1.6,1.52,2.77,2.27.54-.87-1.3-1.89-3.26-4.36-3.26-4.36l-1.24-1.4a148.39,148.39,0,0,1-11.7-14.45c-.38-.57-.76-1.14-1.13-1.72h.21c1.52-.14,3-.37,4.5-.65a1.69,1.69,0,0,0-.13.86.37.37,0,0,0,0,.17c.28.58.58,1.14.88,1.69s.62,1.08.94,1.6a102.78,102.78,0,0,0,8.67,11.54l1.05,1.24,1.89,2c.94,1,1.85,2,1.79,1.89,1.54,1.6,2.7,2.45.57-.83-1.25-2-3.16-4.52-3.16-4.52l-1.22-1.45a99.18,99.18,0,0,1-8.44-11.23c-.3-.5-.61-1-.88-1.51s-.56-1-.81-1.55a.48.48,0,0,0-.12-.1l-.09,0c1.11-.23,2.22-.48,3.31-.76a2.9,2.9,0,0,0,0,.43.24.24,0,0,0,.05.15c.64,1.06,1.31,2.05,2,3,2.2,3.16,4.51,6.1,6.82,9l1,1.29s3.75,4.28,3.61,4.07c1.53,1.65,2.67,2.52.59-.81-1.22-2-3.08-4.63-3.08-4.63l-1.18-1.5c-2.3-2.91-4.58-5.83-6.72-8.9-.57-.83-1.13-1.66-1.66-2.52l2-.53c.61.89,1.22,1.77,1.85,2.63,2.49,3.48,5.07,6.8,7.66,10.08l1,1.29s3.75,4.28,3.62,4.06c1.54,1.65,2.68,2.49.58-.81-1.22-2-3.08-4.62-3.08-4.62l-1.18-1.5c-2.58-3.28-5.14-6.57-7.59-10-.38-.53-.76-1.08-1.13-1.62.69-.19,1.39-.39,2.09-.57.57.76,1.14,1.52,1.72,2.27l1.94,2.46,1,1.28,1.89,2.08c.94,1,1.86,2,1.79,1.89,1.58,1.58,2.74,2.36.56-.84-1.26-1.94-3.13-4.52-3.13-4.52l-1.19-1.48-1.91-2.44-.9-1.19.58-.15s1.27-.46,2.52-.86,2.49-.76,2.37-.78l.64-.23c.23,1.54.52,3.05.83,4.56.93,4.34,2.1,8.57,3.27,12.76l.6,2.15L87.53,192c.59,1.82,1.14,3.61,1.12,3.44,1,3,1.87,4.87,1-.22-.46-3-1.44-7.21-1.44-7.21l-.7-2.5c-1.17-4.17-2.31-8.34-3.2-12.51-.3-1.49-.6-3-.81-4.47a.89.89,0,0,0-.11-.2c-.48-.64-.86-.78-1.15-.7a10.91,10.91,0,0,0-1.51-.09,31.82,31.82,0,0,0-5,.39l-1.73.45c-5.58,1.49-11.07,3.24-16.73,3.75-1,.07-2.09.13-3.14.1a.53.53,0,0,0-.14.11,2,2,0,0,0-.41,1c-.61-.22-.92.48-1,1a.29.29,0,0,0,0,.18c.31,1.52.61,3,.89,4.56,1.06,5.58,2,11.19,2.79,16.81l.26,1.75a1.41,1.41,0,0,0-.18.44c0,.06,0,.07,0,.09s.15.3.39.71c.13.74.34,1.89.55,3,.35,1.89.68,3.75.68,3.59,0,.06,0,.12,0,.18A1.75,1.75,0,0,0,58.47,207.84Zm0-9.53-.38-2.58c-.2-1.42-.42-2.84-.64-4.26.38.49.76,1,1.15,1.46,1.08,1.37,2.18,2.71,3.28,4l1,1.25,1.91,2c.95,1,1.88,2,1.81,1.86l.73.68c-1.33.43-2.66.84-4,1.21-.34-.43-.61-.74-.61-.74l-.92-.85c-.56-.52-1.28-1.21-2-2a17.42,17.42,0,0,1-1.39-1.75Zm.28,3.53c.08.09.15.18.23.26a27.17,27.17,0,0,0,2.06,2.08l.37.35-.15,0c-.78.18-1.55.35-2.32.5C58.94,204,58.87,202.89,58.79,201.84Z"/><path class="cls-1" d="M90.7,166.5a24,24,0,0,0,1,5c1.5,6,2.8,11.94,4,18l.43,2.19.89,3.79c.43,1.88.86,3.72.86,3.56.77,3,1.52,4.85,1.11.41a2,2,0,0,0,.45.34c.08,0,.09,0,.14,0,1-.33,2-.6,3-.87,5.45-1.37,11.07-2.23,16.63-3.41l1.5-.32s1.3-.4,2.56-.85a19.78,19.78,0,0,0,2.37-.92c2-1,3.17-2-.3-1.53-2.07.16-5,.5-5,.5l-1.73.37c-5.53,1.17-11.14,2-16.69,3.42-1,.27-2.08.55-3.11.89a.33.33,0,0,0-.09.11c-.29-2.67-.69-5.49-.69-5.49l-.5-2.57c-1.18-6.07-2.52-12.19-4-18.17a23.17,23.17,0,0,1-.9-4.08c.71.06,1.41.11,2.11.13,6.17,0,12-1.69,17.67-3.42l1.46-.45,2.5-1c1.23-.51,2.44-1,2.32-1a7.42,7.42,0,0,0,1.72-1l.92,4.17,3.11,14,.48,2.17s2,7.62,2,7.29c.91,3,1.77,4.94,1.06-.12-.36-3-1.1-7.22-1.1-7.22l-.56-2.55-3.11-14-1-4.56a.87.87,0,0,0-.12-.2c-1.13-1.24-1.61-.19-1.74.48h0a6.71,6.71,0,0,0-1.93,0,41.63,41.63,0,0,0-5,.72l-1.71.52c-5.67,1.74-11.38,3.4-17.26,3.36a25.73,25.73,0,0,1-3.15-.26s-.13.07-.15.09a1.67,1.67,0,0,0-.34,2c0,.08-.09.17-.12.25A.51.51,0,0,0,90.7,166.5Z"/><path class="cls-1" d="M145.09,152.23c-3.93,1-7.86,1.89-11.81,2.75l-3.12.66a.42.42,0,0,0-.12.15.84.84,0,0,0-.06.14c-.73-.41-1.09.34-1.2.88a.3.3,0,0,0,0,.19l1,4.59c1.35,6.13,2.82,12.21,4.19,18.29l.48,2.17,1,3.76c.48,1.86.93,3.69.92,3.52.7,2.55,1.37,4.31,1.24,1.83l.07,0c.07.06.09.05.13,0l3.11-.76,25.91-6.34s5.13-1.74,4.9-1.75c2-.84,3.23-1.78-.29-1.53-2.09.07-5,.48-5,.48l-26.13,6.39-3,.72c-.33-2.91-.94-6.48-.94-6.48l-.57-2.55c-1.38-6.12-2.84-12.2-4.18-18.28l-.61-2.8,2.83-.61c3.9-.84,7.78-1.76,11.65-2.71l10.68-2.66,2.84-1c.2,1.21.42,2.41.65,3.61.94,4.67,2.12,9.23,3.26,13.75l.54,2.15,1.07,3.72c.52,1.84,1,3.66,1,3.49.84,3,1.66,5,1.06-.12-.33-3-1.18-7.27-1.18-7.27l-.63-2.53c-1.15-4.54-2.31-9-3.21-13.55-.25-1.31-.49-2.61-.7-3.92.16-.06.25-.1.22-.1,2-.84,3.24-1.77-.28-1.54-2.09.07-5,.49-5,.49Z"/><path class="cls-1" d="M140.65,139.25l1.12,3.7c.54,1.84,1,3.64,1,3.48.9,3,1.74,4.94,1-.16-.37-3-1.27-7.26-1.27-7.26l-.67-2.52-.48-1.78-1.24-4.49a1.17,1.17,0,0,0-.14-.19c-1.18-1.13-1.6,0-1.69.66a.3.3,0,0,0,0,.19l1.24,4.48.47,1.75Z"/></g></g></svg>