<svg xmlns="http://www.w3.org/2000/svg" viewBox="0 0 380.94 259.25"><defs><style>.cls-1{fill:#333;fill-rule:evenodd;}</style></defs><title>Asset 8</title><g id="Layer_2" data-name="Layer 2"><g id="_1" data-name="1"><path class="cls-1" d="M29.62,142.14,172,0l63.53,63.54L93.15,206ZM0,173.64l29.62-31.5L41.19,154l11.58,11.58ZM169.07,130l50.07,50.08a30.81,30.81,0,0,0-13.74,13.72l-50.07-50.08Zm63.53,46.85a30.56,30.56,0,1,0,30.69,30.68,30.61,30.61,0,0,0-30.69-30.68Zm0,18.58a12,12,0,1,0,0,23.95,12,12,0,1,0,0-23.95Zm97.46,0H260.87a30.44,30.44,0,0,1,2.42,12.1,29.21,29.21,0,0,1-2.42,11.85h69.19Zm0-24.78h25.57v73.49H330.06Zm25.57-14.8h25.31V259.25H355.63Z"/></g></g></svg>