<svg xmlns="http://www.w3.org/2000/svg" viewBox="0 0 39.08 44.66"><defs><style>.cls-1{fill:#fff;}</style></defs><title>Asset 3</title><g id="Layer_2" data-name="Layer 2"><g id="Layer_1-2" data-name="Layer 1"><path class="cls-1" d="M36.29,5.58H33.5V2.79A2.79,2.79,0,0,0,30.71,0H2.79A2.79,2.79,0,0,0,0,2.79v33.5a2.79,2.79,0,0,0,2.79,2.79H5.58v2.79a2.79,2.79,0,0,0,2.79,2.79H36.29a2.79,2.79,0,0,0,2.79-2.79V8.38A2.79,2.79,0,0,0,36.29,5.58ZM2.79,36.29V2.79H30.71v33.5Zm33.5,5.58H8.37V39.08H30.71a2.79,2.79,0,0,0,2.79-2.79V8.38h2.79Z"/><path class="cls-1" d="M26.52,8.38h-14a1.39,1.39,0,1,0,0,2.78h14a1.39,1.39,0,1,0,0-2.78Z"/><path class="cls-1" d="M26.52,16.75H7a1.4,1.4,0,1,0,0,2.79H26.52a1.4,1.4,0,0,0,0-2.79Z"/><path class="cls-1" d="M26.52,22.33H7a1.4,1.4,0,1,0,0,2.79H26.52a1.4,1.4,0,0,0,0-2.79Z"/><path class="cls-1" d="M26.52,27.91H7a1.4,1.4,0,0,0,0,2.8H26.52a1.4,1.4,0,0,0,0-2.8Z"/></g></g></svg>