<svg xmlns="http://www.w3.org/2000/svg" viewBox="0 0 52.37 50.01"><defs><style>.cls-1{fill:#fff;}</style></defs><title>Asset 2</title><g id="Layer_2" data-name="Layer 2"><g id="Layer_1-2" data-name="Layer 1"><path class="cls-1" d="M51.5,21.3,37.86,31.22l5.21,16a2.13,2.13,0,0,1-.76,2.36,2.11,2.11,0,0,1-1.24.4,2.08,2.08,0,0,1-1.24-.4L26.19,39.7,12.54,49.61a2.09,2.09,0,0,1-2.47,0,2.12,2.12,0,0,1-.77-2.36l5.21-16L.87,21.3A2.1,2.1,0,0,1,.1,19a2.13,2.13,0,0,1,2-1.46H19l5.21-16a2.11,2.11,0,0,1,4,0l5.21,16H50.26A2.1,2.1,0,0,1,51.5,21.3Z"/></g></g></svg>