<svg xmlns="http://www.w3.org/2000/svg" viewBox="0 0 347.12 283.76"><defs><style>.cls-1{fill:#333;fill-rule:evenodd;}</style></defs><title>Asset 7</title><g id="Layer_2" data-name="Layer 2"><g id="_1" data-name="1"><path class="cls-1" d="M17.86,130.24H33V115.08A1.17,1.17,0,0,1,34.11,114H49.82a1.17,1.17,0,0,1,1.08,1.09v15.16H66.06V115.08A1.17,1.17,0,0,1,67.14,114H82.58a1.17,1.17,0,0,1,1.08,1.09v15.16h17.61V28.43h0V.81c0-.54.53-.81,1.07-.81h14.08a.72.72,0,0,1,.82.81V11.1H127V.81a.86.86,0,0,1,.81-.81h14.36a.86.86,0,0,1,.81.81V11.1h9.75V.81a.72.72,0,0,1,.81-.81h14.07c.54,0,1.09.27,1.09.81V11.1h9.75V.81a.72.72,0,0,1,.81-.81h14.08c.55,0,1.08.27,1.08.81V11.1h9.76V.81A.71.71,0,0,1,205,0h14.09c.55,0,1.09.27,1.09.81V11.1h9.47V.81c0-.54.54-.81,1.08-.81h14.08a.72.72,0,0,1,.81.81V28.43h0V130.24h17.88V115.08a1.16,1.16,0,0,1,1.07-1.09h15.72a1.17,1.17,0,0,1,1.08,1.09v15.16h15.15V115.08a1,1,0,0,1,1.09-1.09H313a1.17,1.17,0,0,1,1.09,1.09v15.16h15.15V115.08a1.17,1.17,0,0,1,1.1-1.09H346a1.17,1.17,0,0,1,1.08,1.09V274.56a9.13,9.13,0,0,1-9.21,9.2H238.26V267.52a11.49,11.49,0,0,0-11.37-11.64h0a11.56,11.56,0,0,0-11.64,11.64v16.24H204.42v-42a30.85,30.85,0,0,0-30.87-30.87h0a31.09,31.09,0,0,0-31.13,30.87v42h-9.75V267.52a11.5,11.5,0,0,0-11.37-11.64h0a11.55,11.55,0,0,0-11.64,11.64v16.24H8.93A9.06,9.06,0,0,1,0,274.56V139.45a4,4,0,0,1,.27-1.9V115.08A1,1,0,0,1,1.35,114H16.78a1.17,1.17,0,0,1,1.08,1.09ZM126.17,63.09h14.08a.72.72,0,0,1,.82.81V91.52a.72.72,0,0,1-.82.81H126.17c-.54,0-1.08-.27-1.08-.81V63.9c0-.54.54-.81,1.08-.81Zm40.35,0H180.6a.72.72,0,0,1,.81.81V91.52a.72.72,0,0,1-.81.81H166.52c-.54,0-1.08-.27-1.08-.81V63.9c0-.54.54-.81,1.08-.81Zm40.34,0H221a.71.71,0,0,1,.8.81V91.52a.71.71,0,0,1-.8.81H206.86c-.54,0-1.08-.27-1.08-.81V63.9c0-.54.54-.81,1.08-.81Z"/></g></g></svg>