<svg xmlns="http://www.w3.org/2000/svg" viewBox="0 0 159.5 286.76"><defs><style>.cls-1{fill:#333;fill-rule:evenodd;}</style></defs><title>Asset 9</title><g id="Layer_2" data-name="Layer 2"><g id="_1" data-name="1"><path class="cls-1" d="M10.46,0H149A10.49,10.49,0,0,1,159.5,10.47V276.3A10.48,10.48,0,0,1,149,286.76H10.46A10.48,10.48,0,0,1,0,276.3V10.47A10.49,10.49,0,0,1,10.46,0ZM142.63,20.72V241.49h-126V20.72ZM69.39,252.6H90.11a1.46,1.46,0,0,1,1.49,1.49v18.37a1.43,1.43,0,0,1-1.49,1.28H69.39a1.43,1.43,0,0,1-1.49-1.28V254.09a1.46,1.46,0,0,1,1.49-1.49ZM79.64,94.38a36.73,36.73,0,1,1-36.72,36.73A36.9,36.9,0,0,1,79.64,94.38ZM57.86,134.1l1.93-1.93a2.33,2.33,0,0,1,3.2,0l7.47,7.69,26.05-26.05a2,2,0,0,1,3.2,0l1.92,1.93a2,2,0,0,1,0,3L74.09,146.48,72,148.4h0v.21h-.22v.22h-.42V149H69.6v-.21h-.21l-.21-.22H69v-.21h0L67,146.48l-9.18-9.18a2.33,2.33,0,0,1,0-3.2Z"/></g></g></svg>