<svg id="Layer_1" data-name="Layer 1" xmlns="http://www.w3.org/2000/svg" viewBox="0 0 964.37 240.89"><title>Boxproject_string</title><path d="M326.45,149.71a135.76,135.76,0,0,1,25.61-2.25c14,0,23,2.41,29.81,7.89,5.64,4.19,9,10.63,9,19.17,0,10.47-6.93,19.65-18.37,23.84v.33c10.32,2.57,22.4,11.11,22.4,27.22a29.29,29.29,0,0,1-9.18,21.75c-7.58,6.93-19.82,10.15-37.54,10.15a162.79,162.79,0,0,1-21.75-1.29Zm14,44.46h12.72c14.82,0,23.52-7.73,23.52-18.2,0-12.73-9.66-17.72-23.84-17.72a59.48,59.48,0,0,0-12.4,1Zm0,52a75,75,0,0,0,11.76.65c14.5,0,27.87-5.32,27.87-21.11,0-14.82-12.73-20.94-28-20.94H340.47Z" transform="translate(-64.48 -74.87)"/><path d="M484.49,217.21c0,28.84-20,41.41-38.83,41.41-21.1,0-37.37-15.47-37.37-40.12,0-26.1,17.08-41.4,38.66-41.4C469.35,177.1,484.49,193.37,484.49,217.21Zm-61.86.81c0,17.07,9.82,30,23.68,30C459.84,248,470,235.26,470,217.7c0-13.21-6.6-30-23.36-30S422.63,203.2,422.63,218Z" transform="translate(-64.48 -74.87)"/><path d="M506.72,178.87l11.12,16.76c2.9,4.34,5.32,8.37,7.89,12.72h.49c2.57-4.67,5.15-8.7,7.73-12.89l10.95-16.59h15.31l-26.58,37.7L561,256.84H544.9l-11.43-17.56c-3.06-4.51-5.64-8.86-8.38-13.53h-.32c-2.58,4.67-5.32,8.86-8.22,13.53l-11.28,17.56H489.65l27.71-39.79-26.42-38.18Z" transform="translate(-64.48 -74.87)"/><path d="M575.19,149.55a162.32,162.32,0,0,1,26.9-2.09c13.86,0,24,3.22,30.45,9,6,5.15,9.51,13.05,9.51,22.71,0,9.83-2.9,17.56-8.38,23.2-7.41,7.9-19.49,11.92-33.19,11.92a48.54,48.54,0,0,1-11.27-1v43.49h-14Zm14,52.36a47.22,47.22,0,0,0,11.6,1.13c16.91,0,27.22-8.22,27.22-23.2,0-14.34-10.15-21.27-25.61-21.27a58.41,58.41,0,0,0-13.21,1.13Z" transform="translate(-64.48 -74.87)"/><path d="M657.84,203.2c0-9.19-.16-17.08-.65-24.33H669.6l.48,15.3h.65c3.54-10.47,12.08-17.07,21.58-17.07a15.47,15.47,0,0,1,4,.48V191a21.43,21.43,0,0,0-4.83-.48c-10,0-17.08,7.57-19,18.2a40.21,40.21,0,0,0-.65,6.61v41.56h-14Z" transform="translate(-64.48 -74.87)"/><path d="M779.47,217.21c0,28.84-20,41.41-38.82,41.41-21.11,0-37.38-15.47-37.38-40.12,0-26.1,17.08-41.4,38.66-41.4C764.33,177.1,779.47,193.37,779.47,217.21Zm-61.86.81c0,17.07,9.82,30,23.68,30C754.82,248,765,235.26,765,217.7c0-13.21-6.6-30-23.36-30S717.61,203.2,717.61,218Z" transform="translate(-64.48 -74.87)"/><path d="M778.34,279.4c6.45-.49,12.08-2.26,15.47-6,3.86-4.51,5.31-10.64,5.31-29.32V178.87H813.3v70.72c0,15.15-2.42,25-9.34,32.06-6.29,6.29-16.6,8.86-24.17,8.86ZM814.91,157c.16,4.67-3.22,8.7-8.86,8.7a8.47,8.47,0,0,1-8.7-8.7,8.68,8.68,0,0,1,9-8.86C811.53,148.1,814.91,152,814.91,157Z" transform="translate(-64.48 -74.87)"/><path d="M844.39,220.43c.33,19.18,12.57,27.07,26.75,27.07,10.15,0,16.27-1.77,21.58-4l2.42,10.15c-5,2.26-13.53,4.84-25.94,4.84-24,0-38.34-15.79-38.34-39.31s13.86-42.05,36.57-42.05c25.46,0,32.22,22.39,32.22,36.73a53.73,53.73,0,0,1-.48,6.6ZM886,210.29c.16-9-3.71-23-19.66-23-14.33,0-20.62,13.21-21.75,23Z" transform="translate(-64.48 -74.87)"/><path d="M972.79,253.94c-3.7,1.94-11.92,4.52-22.39,4.52-23.52,0-38.83-15.95-38.83-39.8,0-24,16.44-41.4,41.89-41.4,8.38,0,15.79,2.09,19.65,4l-3.22,11c-3.38-1.93-8.7-3.7-16.43-3.7-17.88,0-27.55,13.21-27.55,29.48,0,18,11.6,29.16,27.07,29.16a40.33,40.33,0,0,0,17.4-3.87Z" transform="translate(-64.48 -74.87)"/><path d="M1008.55,156.48v22.39h20.3v10.79h-20.3v42.05c0,9.67,2.74,15.15,10.64,15.15a31.62,31.62,0,0,0,8.21-1l.65,10.63a34.65,34.65,0,0,1-12.57,1.94c-6.6,0-11.92-2.1-15.3-6-4-4.19-5.48-11.11-5.48-20.29V189.66H982.62V178.87H994.7V160.18Z" transform="translate(-64.48 -74.87)"/><polygon points="99.17 126.09 99.17 240.44 0 183.19 0 68.48 99.17 126.09"/><polygon points="211.52 68.47 211.52 183.19 111.58 240.89 111.58 126.1 211.52 68.47"/><polygon points="205.53 57.61 105.39 115.34 5.98 57.61 105.76 0 205.53 57.61"/></svg>