<svg id="Capa_1" data-name="Capa 1" xmlns="http://www.w3.org/2000/svg" viewBox="0 0 512 510.84"><defs><style>.cls-1{fill:#2bbb94;}</style></defs><title>call-answer</title><path class="cls-1" d="M500.52,404.63l-79.07-79.08c-15.75-15.68-41.83-15.21-58.13,1.1l-39.83,39.82c-2.52-1.38-5.13-2.83-7.86-4.37-25.16-13.94-59.59-33-95.82-69.3s-55.46-70.82-69.44-96c-1.48-2.67-2.89-5.24-4.29-7.68l26.74-26.7L186,149.27c16.32-16.32,16.78-42.4,1.06-58.13L108,12.05C92.24-3.66,66.15-3.18,49.82,13.15L27.54,35.56l.61.6A129.31,129.31,0,0,0,9.78,68.55a134,134,0,0,0-8.16,32.86C-8.83,188,30.73,267.07,138.07,374.41,286.45,522.78,406,511.58,411.19,511a133.45,133.45,0,0,0,32.94-8.28,128.29,128.29,0,0,0,32.27-18.28l.49.43,22.58-22.11C515.76,446.47,516.23,420.39,500.52,404.63Z" transform="translate(0 -0.58)"/></svg>