<svg id="Layer_1" data-name="Layer 1" xmlns="http://www.w3.org/2000/svg" viewBox="0 0 500 500"><defs><style>.cls-1{fill-rule:evenodd;}</style></defs><title>Иконки сайт видеонаблюдение</title><path class="cls-1" d="M356.57,246.7c-5.51,0-9.11,3.6-9.11,9.49v132H282.39v-53.5c0-4.74-3.67-9.49-8.18-9.49h-47c-5.44,0-10,4.75-10,9.49v53.5H153V260.94a9.16,9.16,0,0,0-9-9.49c-5.43,0-9,3.6-9,9.49V398.87c0,4.75,3.6,9.57,9,9.57h83.21c4.51,0,8.11-4.82,8.11-9.57V344.22h28.94v54.65c0,4.75,4.59,9.57,9.95,9.57h82.36c4.51,0,9-4.82,9-9.57V256.19a9.16,9.16,0,0,0-9-9.49Zm49.67,7.12h0c-59.7-64.22-96.75-103.41-150.1-159.29-1.76-2.37-3.6-3.52-5.43-3.52a8.92,8.92,0,0,0-7.2,3.52L94.25,252.67a12,12,0,0,0-2.68,7.12c0,2.38.92,4.75,2.68,5.9,3.67,4.75,9,4.75,12.71,0L250.71,114.74l142.9,153.32c.92,1.22,3.6,2.38,6.36,2.38a10.45,10.45,0,0,0,6.27-2.38c3.68-3.52,3.68-10.64,0-14.24Z"/></svg>