<svg id="Layer_1" data-name="Layer 1" xmlns="http://www.w3.org/2000/svg" viewBox="0 0 500 500"><defs><style>.cls-1{fill:none;}</style></defs><title>Иконки сайт видеонаблюдение</title><polygon class="cls-1" points="384.24 314.89 384.24 316.37 288.4 354.89 266.05 315.27 384.24 314.89"/><path d="M273.24,279.34a.66.66,0,0,1-.65-.65V263.4a.65.65,0,0,1,.65-.65H283.9v-43a.66.66,0,0,1,.28-.54,55.32,55.32,0,0,0,15-15.32.66.66,0,0,1,.77-.25L384.42,235a.65.65,0,0,1,.42.59l.05,1.22a.65.65,0,0,1-.42.63l-111,41.86A.66.66,0,0,1,273.24,279.34Zm.65-15.29v13.7l109.68-41.36v-.32L300,205a56.82,56.82,0,0,1-14.77,15V263.4a.65.65,0,0,1-.65.65Z"/><path d="M273.24,264.05H230.91a.65.65,0,0,1-.65-.65.68.68,0,0,1,.65-.69h42.33a.65.65,0,0,1,.65.65A.68.68,0,0,1,273.24,264.05Z"/><polygon class="cls-1" points="273.24 278.69 384.24 236.83 415.28 303.86 384.24 316.37 384.24 314.89 266.05 315.27 250.59 287.9 250.29 287.35 273.24 278.69"/><path d="M251.82,423.88a.66.66,0,0,1-.36-.11.64.64,0,0,1-.29-.53l-1.23-107.92a.65.65,0,0,1,.64-.66h0a.64.64,0,0,1,.65.64l1.22,107,131.13-51.91v-53l-94.95,38.16a.64.64,0,0,1-.8-.28l-22.36-39.62a.65.65,0,0,1,1.14-.64l22.07,39.12L384,315.76a.66.66,0,0,1,.89.61v54.44a.67.67,0,0,1-.41.61L252.06,423.84A.67.67,0,0,1,251.82,423.88Z"/><path d="M251.82,423.88a.59.59,0,0,1-.23,0l-135.5-52.42a.66.66,0,0,1-.42-.61V316.88a.65.65,0,0,1,.29-.54.64.64,0,0,1,.61-.07L210,354.08l23.4-39a.65.65,0,0,1,1.11.67l-23.69,39.49a.64.64,0,0,1-.8.27l-93-37.65v52.53l134.19,51.91-1.22-107a.65.65,0,0,1,.64-.66h0a.64.64,0,0,1,.65.64l1.23,107.92a.67.67,0,0,1-.28.55A.7.7,0,0,1,251.82,423.88Z"/><path d="M250.29,288.72a1,1,0,0,1-.23,0L230,281a.65.65,0,0,1-.37-.84l.59-1.57V263.4a.65.65,0,0,1,.65-.65h42.33a.65.65,0,0,1,.65.65v15.29a.66.66,0,0,1-.42.61l-22.26,8.4a.65.65,0,0,1-.3.76l-.29.17A.63.63,0,0,1,250.29,288.72ZM231.11,280l18.57,7.1h0a.65.65,0,0,1,.38-.38l22.53-8.51V264.05h-41v14.69a.62.62,0,0,1,0,.23Zm-.2-1.3h0Z"/><path d="M284.55,250.58a.65.65,0,0,1-.65-.65V239.68H220.24v10.25a.65.65,0,0,1-1.3,0V239a.65.65,0,0,1,.65-.65h65a.65.65,0,0,1,.65.65v10.9A.65.65,0,0,1,284.55,250.58Z"/><path d="M284.55,239.68h-29.9a.65.65,0,0,1-.61-.89l19.85-51.31-10.71,1.38a.62.62,0,0,1-.63-.3L251.7,171.05l-10.55,17.59a.68.68,0,0,1-.65.31l-10.27-1.45,19.88,51.29a.65.65,0,0,1-.61.89H219.59a.65.65,0,0,1-.65-.65v-19a57.71,57.71,0,1,1,81.31-15.48,56.68,56.68,0,0,1-15.05,15.48v19A.65.65,0,0,1,284.55,239.68Zm-29-1.3h28.3V219.73a.66.66,0,0,1,.28-.54,55.32,55.32,0,0,0,15-15.32A56.43,56.43,0,1,0,220,219.19a.64.64,0,0,1,.28.54v18.65h28.31l-19.94-51.45a.68.68,0,0,1,.1-.64.65.65,0,0,1,.6-.24l10.94,1.55,10.88-18.13a.66.66,0,0,1,.56-.31.61.61,0,0,1,.55.3l11.19,18.06,11.37-1.47a.66.66,0,0,1,.6.25.63.63,0,0,1,.09.63Z"/><path d="M254.65,239.68H249.5a.64.64,0,0,1-.6-.42l-20.29-52.33a.68.68,0,0,1,.1-.64.65.65,0,0,1,.6-.24l10.94,1.55,10.88-18.13a.66.66,0,0,1,.56-.31.61.61,0,0,1,.55.3l11.19,18.06,11.37-1.47a.66.66,0,0,1,.6.25.63.63,0,0,1,.09.63l-20.24,52.33A.64.64,0,0,1,254.65,239.68Zm-4.7-1.3h4.25l19.69-50.9-10.71,1.38a.62.62,0,0,1-.63-.3L251.7,171.05l-10.55,17.59a.68.68,0,0,1-.65.31l-10.27-1.45Z"/><polygon class="cls-1" points="210.22 354.89 116.32 316.88 116.32 315.77 233.91 315.39 210.22 354.89"/><path d="M230.27,281.07a.66.66,0,0,1-.23,0L116.09,237.44a.63.63,0,0,1-.37-.38l-.55-1.43a.67.67,0,0,1,0-.5.65.65,0,0,1,.37-.34l87.85-32.36a.74.74,0,0,1,.82.27A56.36,56.36,0,0,0,220,219.19a.64.64,0,0,1,.28.54v43h10.67a.65.65,0,0,1,.65.65v15.34a.62.62,0,0,1,0,.23l-.64,1.68a.63.63,0,0,1-.34.36A.6.6,0,0,1,230.27,281.07ZM116.83,236.33,229.9,279.58l.36-1V264.05H219.59a.65.65,0,0,1-.65-.65V220.07a57.58,57.58,0,0,1-15.55-16.25l-86.77,32Z"/><polygon class="cls-1" points="116.32 315.77 116.32 316.88 84.18 303.86 116.32 236.83 230.27 280.42 250.29 288.07 233.91 315.39 116.32 315.77"/><path d="M251.82,427.73a4.51,4.51,0,0,1-1.62-.3L114.7,375a4.51,4.51,0,0,1-2.88-4.2V316.88a4.5,4.5,0,0,1,9,0v50.85l131,50.67,127.94-50.65V316.37a4.5,4.5,0,0,1,9,0v54.44a4.5,4.5,0,0,1-2.85,4.19L253.48,427.42A4.52,4.52,0,0,1,251.82,427.73Z"/><path d="M210.21,359.39a4.53,4.53,0,0,1-1.68-.33l-126-51a4.49,4.49,0,0,1-2.36-6.11l32.14-67a4.49,4.49,0,0,1,5.66-2.26l114,43.59,20,7.64a4.54,4.54,0,0,1,2.65,2.74,4.49,4.49,0,0,1-.4,3.78L214.08,357.2A4.52,4.52,0,0,1,210.21,359.39Zm-119.9-57.9,118,47.78,35.33-58.91-15-5.73L118.59,242.52Z"/><path d="M288.4,359.39a4.51,4.51,0,0,1-3.92-2.29l-38.14-67.6a4.51,4.51,0,0,1,2.36-6.36l22.95-8.66,111-41.86a4.5,4.5,0,0,1,5.67,2.32l31.05,67A4.49,4.49,0,0,1,417,308l-31,12.51-95.84,38.52A4.53,4.53,0,0,1,288.4,359.39Zm-31.62-69.68,33.6,59.53,92.18-37.05,26.65-10.73-27.3-58.94Z"/><path d="M115.64,239.94a4.5,4.5,0,0,1-1.39-8.78l0,0,87.77-32.32a4.5,4.5,0,0,1,3.11,8.45l-87.85,32.35-.17.06-.13,0A4.48,4.48,0,0,1,115.64,239.94Z"/><path d="M384.19,240.11a4.47,4.47,0,0,1-1.56-.28l-84.49-31.38a4.5,4.5,0,1,1,3.14-8.44l84.48,31.38a4.5,4.5,0,0,1-1.57,8.72Z"/><path d="M284.55,267.9h-65a4.51,4.51,0,0,1-4.5-4.5V222a61.55,61.55,0,1,1,88.38-15.32A60.36,60.36,0,0,1,289.05,222V263.4A4.5,4.5,0,0,1,284.55,267.9Zm-60.46-9h56V219.73A4.52,4.52,0,0,1,282,216a51.58,51.58,0,0,0,14-14.25v0A52.59,52.59,0,1,0,222.15,216a4.52,4.52,0,0,1,1.94,3.71Z"/><path d="M292.87,243.53H254.65a4.5,4.5,0,0,1,0-9h38.22a4.5,4.5,0,0,1,0,9Z"/><path d="M249.5,243.53H211.23a4.5,4.5,0,0,1,0-9H249.5a4.5,4.5,0,0,1,0,9Z"/><path d="M230.91,283.24a4.51,4.51,0,0,1-4.5-4.5V263.4a4.53,4.53,0,0,1,4.5-4.54h42.33a4.51,4.51,0,0,1,4.5,4.5v15.33a4.5,4.5,0,0,1-9,.05V267.86H235.41v10.88A4.5,4.5,0,0,1,230.91,283.24Z"/><path d="M249,109a4.49,4.49,0,0,1-4.5-4.5V86a4.5,4.5,0,1,1,9,0v18.46A4.5,4.5,0,0,1,249,109Z"/><path d="M271.13,111.07a4.41,4.41,0,0,1-1.18-.16,4.49,4.49,0,0,1-3.17-5.51l4.81-17.82a4.5,4.5,0,1,1,8.69,2.34l-4.81,17.82A4.5,4.5,0,0,1,271.13,111.07Z"/><path d="M292,118.85a4.51,4.51,0,0,1-3.89-6.75l9.21-16a4.5,4.5,0,0,1,7.8,4.49l-9.21,16A4.5,4.5,0,0,1,292,118.85Z"/><path d="M310.11,131.77a4.51,4.51,0,0,1-3.19-7.68l13-13.08a4.5,4.5,0,0,1,6.38,6.34l-13,13.09A4.5,4.5,0,0,1,310.11,131.77Z"/><path d="M189.72,136a4.48,4.48,0,0,1-3.18-1.32l-13-13.05a4.5,4.5,0,1,1,6.37-6.36l13,13a4.5,4.5,0,0,1-3.19,7.68Z"/><path d="M206.89,121.93a4.5,4.5,0,0,1-3.91-2.26l-9.21-16a4.5,4.5,0,0,1,7.8-4.48l9.21,16a4.5,4.5,0,0,1-3.89,6.74Z"/><path d="M227.11,112.64a4.51,4.51,0,0,1-4.35-3.34L218,91.47a4.5,4.5,0,1,1,8.69-2.32L231.46,107a4.51,4.51,0,0,1-3.19,5.51A4.27,4.27,0,0,1,227.11,112.64Z"/><path d="M254.65,243.53H249.5a4.48,4.48,0,0,1-4.19-2.88L225,188.32a4.5,4.5,0,0,1,4.83-6.08l8.41,1.19,9.57-15.94a4.51,4.51,0,0,1,7.69-.05l9.88,15.94,8.91-1.14a4.49,4.49,0,0,1,4.77,6.08l-20.23,52.33A4.52,4.52,0,0,1,254.65,243.53Zm-18.46-51.3,15.88,41L268,192.13l-4.28.55a4.5,4.5,0,0,1-4.4-2.09l-7.53-12.14-7.3,12.17a4.51,4.51,0,0,1-4.49,2.14Z"/><path d="M251.82,427.73a4.5,4.5,0,0,1-4.5-4.45L245.79,290a4.51,4.51,0,0,1,4.45-4.55h0a4.5,4.5,0,0,1,4.5,4.45l1.53,133.26a4.49,4.49,0,0,1-4.45,4.55Z"/></svg>