<svg id="Layer_1" data-name="Layer 1" xmlns="http://www.w3.org/2000/svg" viewBox="0 0 851.39 259.94"><defs><style>.cls-1,.cls-4{fill:#71726f}.cls-1{fill-rule:evenodd}</style></defs><path class="cls-1" d="M151.49 109.57A130.8 130.8 0 1 0 356 221.89a123.45 123.45 0 1 1-204.51-112.32z" transform="translate(-94.44 -88.47)"/><path d="M297.65 290a110.38 110.38 0 1 0-172.58-94.79A104.17 104.17 0 1 1 297.65 290z" transform="translate(-94.44 -88.47)" fill="#2bbb94" fill-rule="evenodd"/><path class="cls-1" d="M298.29 256.65c-1.23-3-5.89-4.67-11.52-4.16a28.23 28.23 0 0 0-4.43 1c-6.63 2-41.26 13.77-41.5 14.25h-.72l.48.51c3.92 3.41 5.89 6.86 4.91 9.55-1.23 4.19-6.88 6.89-16 7.63-8.35.73-18.66 0-30.69-2.21H203c8.84 0 16.95 0 23.33-.51 10.08-.72 14.73-2.93 15.47-6.86.25-2.46-1.22-4.43-4.66-6.14-3.69-1.73-11.29-3-18.9-3.94-5.17-1-9.82-1.71-13.26-2.46-12-3.18-24.31-6.38-38.56-5.15-2.19.27-4.67.27-6.62 1a277.93 277.93 0 0 0-32.9 7.6l-1.23.27 16.44 23.8a57.81 57.81 0 0 1 9.1-1.46 39.61 39.61 0 0 1 11 .24c4.67.72 16.2 2.93 27 5.15 11.29 2.69 22.1 4.67 26.28 5.15a22.35 22.35 0 0 0 7.11.24c5.41-.48 11.29-3.42 16.46-6.38 1.71-1 3.68-1.71 5.15-2.69l49.1-26.53c5.42-3.42 5.42-6.11 4.91-7.85z" transform="translate(-94.44 -88.47)"/><path d="M279.06 188.49l-16.94-16.94V152a6.41 6.41 0 0 0-12.82 0v6.76l-12.62-12.62a16.86 16.86 0 0 0-23.31 0L171 188.49a6.41 6.41 0 0 0 9.07 9.07l42.37-42.37a3.77 3.77 0 0 1 5.18 0L270 197.56a6.41 6.41 0 0 0 9.06-9.07z" transform="translate(-94.44 -88.47)" fill="#2bbb94"/><path class="cls-4" d="M227.26 167.35a3.14 3.14 0 0 0-4.45 0l-37.27 37.26a3.15 3.15 0 0 0-.92 2.23V234a11.55 11.55 0 0 0 11.54 11.55h18.46V217h20.83v28.58h18.45A11.55 11.55 0 0 0 265.45 234v-27.16a3.12 3.12 0 0 0-.93-2.23zM488.24 179.51a22.67 22.67 0 0 1 3.46 12.31 27.44 27.44 0 0 1-4 15.07 26.32 26.32 0 0 1-11.21 9.74 38.33 38.33 0 0 1-16.54 3.4H415.8v-90.26h43.59a32.27 32.27 0 0 1 13.79 3 25.77 25.77 0 0 1 10.45 8.72 22.91 22.91 0 0 1 4 13.4q0 9.22-9 15.77a25.31 25.31 0 0 1 9.61 8.85zm-50.38-30.77v17.44h18.46a9.39 9.39 0 0 0 6.68-2.38 8.21 8.21 0 0 0 2.57-6.34 8.76 8.76 0 0 0-1.16-4.36 8.19 8.19 0 0 0-3.26-3.21 9.91 9.91 0 0 0-4.81-1.15zm28 49.94a8 8 0 0 0 2.76-6.35 7.73 7.73 0 0 0-1.29-4.29 9.51 9.51 0 0 0-3.52-3.21 10.21 10.21 0 0 0-4.94-1.22h-21v17.44h21a10.35 10.35 0 0 0 7-2.37zM542.86 215.41a48.12 48.12 0 0 1-18-16.86 44.94 44.94 0 0 1 0-47.31 48.12 48.12 0 0 1 18-16.86 51.82 51.82 0 0 1 49 0 48 48 0 0 1 18 16.86 44.94 44.94 0 0 1 0 47.31 48 48 0 0 1-18 16.86 51.74 51.74 0 0 1-49 0zm37.44-17.88a27 27 0 0 0 9.61-9.49 25.86 25.86 0 0 0 0-26.29 26.94 26.94 0 0 0-9.61-9.48 25.52 25.52 0 0 0-25.9 0 26.89 26.89 0 0 0-9.62 9.48 25.86 25.86 0 0 0 0 26.29 26.92 26.92 0 0 0 9.62 9.49 25.58 25.58 0 0 0 25.9 0zM703.51 129.77h22V220h-13.28l-43.08-48.21V220h-22v-90.23h12.82l43.59 48.72zM778.57 217a34.21 34.21 0 0 1-14.29-12.88 36.43 36.43 0 0 1-5.13-19.49v-54.86h22.05v55.38a16.44 16.44 0 0 0 2.31 8.85 14.66 14.66 0 0 0 6.47 5.64 22.94 22.94 0 0 0 9.68 1.93 21.41 21.41 0 0 0 9.3-1.93 14.79 14.79 0 0 0 6.35-5.64 16.44 16.44 0 0 0 2.31-8.85v-55.38h22v54.87a36.43 36.43 0 0 1-5.13 19.49A34.37 34.37 0 0 1 820.37 217a45.38 45.38 0 0 1-20.71 4.56 46.77 46.77 0 0 1-21.09-4.56zM915.7 200.73a8.48 8.48 0 0 0 4.67-2.5 6.93 6.93 0 0 0 1.35-4.49q0-3.19-3.33-5t-10.52-3.07l-8.71-1.54q-14.62-2.56-22.44-9t-7.82-18.72q0-13.2 9.29-20.64t28.15-7.56q20.11.12 28.46 8.27t8.33 22h-22.31c0-3.5-1.11-6.09-3.33-7.75s-5.77-2.5-10.64-2.5a42.89 42.89 0 0 0-9 .7 7 7 0 0 0-4.17 2.25 7.38 7.38 0 0 0-1.15 4.49 5.07 5.07 0 0 0 1.41 3.65 11.5 11.5 0 0 0 4.74 2.56 79 79 0 0 0 9.23 2.24l8.21 1.54a68.33 68.33 0 0 1 15.83 4.81 24.79 24.79 0 0 1 10.2 8.4q3.71 5.38 3.71 14 0 28.71-39.48 28.72-20.52 0-29.3-8.08t-8.91-22.7h23a11.07 11.07 0 0 0 1.6 6.41 9 9 0 0 0 4.87 3.34 30.44 30.44 0 0 0 8.79 1 40.43 40.43 0 0 0 9.27-.83zM440.8 302.05a4.47 4.47 0 0 0 2.45-1.31 3.61 3.61 0 0 0 .71-2.36 2.9 2.9 0 0 0-1.75-2.63 19.62 19.62 0 0 0-5.53-1.62l-4.58-.81q-7.68-1.33-11.79-4.71t-4.11-9.84q0-6.94 4.88-10.85t14.8-4q10.58.06 14.95 4.34t4.39 11.56h-11.73a4.77 4.77 0 0 0-1.75-4.08q-1.75-1.31-5.59-1.31a22.38 22.38 0 0 0-4.76.37 3.74 3.74 0 0 0-2.19 1.2 3.9 3.9 0 0 0-.6 2.35 2.66 2.66 0 0 0 .74 1.93 6.06 6.06 0 0 0 2.49 1.34 40.72 40.72 0 0 0 4.85 1.18l4.32.81a36.17 36.17 0 0 1 8.32 2.53 13.07 13.07 0 0 1 5.36 4.41 12.71 12.71 0 0 1 1.95 7.35q0 15.09-20.75 15.09-10.78 0-15.4-4.24t-4.68-11.93h12.06a5.85 5.85 0 0 0 .84 3.37 4.71 4.71 0 0 0 2.56 1.75 15.91 15.91 0 0 0 4.62.54 21.49 21.49 0 0 0 4.92-.43zM484.53 301.68h22.37v10.51h-34v-47.43h33.42v10.51h-21.79v8.35h19.4v9.7h-19.4zM531.9 309.8a22.14 22.14 0 0 1-8.29-8.79 27.62 27.62 0 0 1 .06-25 22.43 22.43 0 0 1 8.43-8.82 23.48 23.48 0 0 1 12.26-3.2 25.45 25.45 0 0 1 11.79 2.59 21.5 21.5 0 0 1 8.06 6.94 22.81 22.81 0 0 1 3.8 9.6h-12.13a13 13 0 0 0-2.25-4.18 11.27 11.27 0 0 0-9-4.17 10.91 10.91 0 0 0-10.51 6.74 18.85 18.85 0 0 0 0 14 10.84 10.84 0 0 0 10.51 6.74 11.43 11.43 0 0 0 7.48-2.26 12.86 12.86 0 0 0 4-6.36h12a22.86 22.86 0 0 1-3.71 9.6 21.61 21.61 0 0 1-8.15 7.11 26.22 26.22 0 0 1-12.2 2.69 23.2 23.2 0 0 1-12.15-3.23zM594.06 310.61a18 18 0 0 1-7.52-6.77 19.22 19.22 0 0 1-2.69-10.24v-28.84h11.59v29.1a8.61 8.61 0 0 0 1.21 4.65 7.64 7.64 0 0 0 3.4 3 12.1 12.1 0 0 0 5.09 1 11.26 11.26 0 0 0 4.88-1 7.7 7.7 0 0 0 3.34-3 8.61 8.61 0 0 0 1.21-4.65v-29.1h11.59v28.84a19.22 19.22 0 0 1-2.69 10.24 18.08 18.08 0 0 1-7.45 6.77 23.93 23.93 0 0 1-10.88 2.39 24.64 24.64 0 0 1-11.08-2.39zM661.61 296.56h-6.2v15.63h-11.59v-47.43h22.1a17.18 17.18 0 0 1 8.52 2.08 15.14 15.14 0 0 1 5.83 5.7 15.92 15.92 0 0 1 2.09 8.12 14.64 14.64 0 0 1-8.89 13.74l11.85 17.79h-13.74zm-6.2-10H664a6.26 6.26 0 0 0 4.48-1.62 5.62 5.62 0 0 0 1.72-4.31 5.53 5.53 0 0 0-.81-3 5.22 5.22 0 0 0-2.22-2A7.26 7.26 0 0 0 664 275h-8.62zM700 312.19v-47.43h11.6v47.43zM768.61 264.76v10.51h-14.83v36.92h-11.59v-36.92H727.1v-10.51zM813.75 264.76H827l-18.1 29.64v17.79h-11.59V294.4l-18.06-29.64h13.21l10.92 17.72z" transform="translate(-94.44 -88.47)"/></svg>