<svg width="40" height="45" fill="none" xmlns="http://www.w3.org/2000/svg"><path d="M36.29 5.58H33.5V2.79A2.79 2.79 0 0 0 30.71 0H2.79A2.79 2.79 0 0 0 0 2.79v33.5a2.79 2.79 0 0 0 2.79 2.79h2.79v2.79a2.79 2.79 0 0 0 2.79 2.79h27.92a2.79 2.79 0 0 0 2.79-2.79V8.38a2.79 2.79 0 0 0-2.79-2.8zM2.79 36.29V2.79h27.92v33.5H2.79zm33.5 5.58H8.37v-2.79h22.34a2.79 2.79 0 0 0 2.79-2.79V8.38h2.79v33.49z" fill="#fff"/><path d="M26.39 8h-14a1.39 1.39 0 1 0 0 2.78h14a1.39 1.39 0 1 0 0-2.78zm-.352 9.005H6.518a1.399 1.399 0 1 0 0 2.79h19.52a1.4 1.4 0 0 0 0-2.79zm0 5H6.518a1.399 1.399 0 1 0 0 2.79h19.52a1.4 1.4 0 0 0 0-2.79zM26.92 28H7.4a1.4 1.4 0 1 0 0 2.8h19.52a1.4 1.4 0 1 0 0-2.8z" fill="#fff"/></svg>