<svg data-name="Capa 1" xmlns="http://www.w3.org/2000/svg" viewBox="0 0 512 510.84"><path d="M500.52 404.05l-79.07-79.08c-15.75-15.68-41.83-15.21-58.13 1.1l-39.83 39.82a712.95 712.95 0 0 1-7.86-4.37c-25.16-13.94-59.59-33-95.82-69.3s-55.46-70.82-69.44-96c-1.48-2.67-2.89-5.24-4.29-7.68l26.74-26.7L186 148.69c16.32-16.32 16.78-42.4 1.06-58.13L108 11.47C92.24-4.24 66.15-3.76 49.82 12.57L27.54 34.98l.61.6A129.31 129.31 0 0 0 9.78 67.97a134 134 0 0 0-8.16 32.86c-10.45 86.59 29.11 165.66 136.45 273C286.45 522.2 406 511 411.19 510.42a133.45 133.45 0 0 0 32.94-8.28 128.29 128.29 0 0 0 32.27-18.28l.49.43 22.58-22.11c16.29-16.29 16.76-42.37 1.05-58.13z" fill="#2bbb94"/></svg>