<svg data-name="Layer 1" xmlns="http://www.w3.org/2000/svg" viewBox="0 0 500 500"><path d="M269.25 409.29h-22.44a2.61 2.61 0 0 1-2.58-2.23L238 365.73a113.71 113.71 0 0 1-20.36-5.45l-26 32.71a2.62 2.62 0 0 1-3.35.64l-19.46-11.23a2.61 2.61 0 0 1-1.13-3.22l15.3-38.93a117.1 117.1 0 0 1-14.89-14.9l-38.93 15.3a2.6 2.6 0 0 1-3.22-1.12l-11.22-19.44a2.64 2.64 0 0 1 .64-3.36l32.68-26a116.71 116.71 0 0 1-5.45-20.34l-41.33-6.22a2.61 2.61 0 0 1-2.22-2.58v-22.48a2.63 2.63 0 0 1 2.22-2.59l41.33-6.22a118.83 118.83 0 0 1 5.45-20.38l-32.68-26a2.62 2.62 0 0 1-.64-3.35L126 161.12a2.62 2.62 0 0 1 3.22-1.12l38.93 15.31a115.81 115.81 0 0 1 14.85-14.9l-15.3-38.94a2.62 2.62 0 0 1 1.13-3.22L188.27 107a2.63 2.63 0 0 1 3.35.63l26 32.69a116.49 116.49 0 0 1 20.38-5.41l6.21-41.32a2.6 2.6 0 0 1 2.58-2.22h22.44a2.6 2.6 0 0 1 2.58 2.22l6.19 41.32a116.21 116.21 0 0 1 20.37 5.45l26-32.7a2.62 2.62 0 0 1 3.35-.63l19.43 11.22a2.62 2.62 0 0 1 1.13 3.22l-15.31 38.94a117.25 117.25 0 0 1 15.03 14.9L386.87 160a2.59 2.59 0 0 1 3.21 1.12l11.24 19.45a2.61 2.61 0 0 1-.64 3.35L368 210a115.59 115.59 0 0 1 5.46 20.34l41.34 6.22a2.63 2.63 0 0 1 2.22 2.59v22.44a2.61 2.61 0 0 1-2.22 2.58l-41.34 6.22a116.22 116.22 0 0 1-5.46 20.3l32.7 26a2.63 2.63 0 0 1 .64 3.36l-11.24 19.44a2.58 2.58 0 0 1-3.21 1.12L348 325.35a117.25 117.25 0 0 1-14.91 14.9l15.31 38.93a2.63 2.63 0 0 1-1.13 3.23l-19.47 11.18a2.62 2.62 0 0 1-3.35-.64l-26-32.65a116.14 116.14 0 0 1-20.45 5.43l-6.21 41.33a2.61 2.61 0 0 1-2.54 2.23zm-20.19-5.23H267l6.15-41a2.61 2.61 0 0 1 2.19-2.19 110 110 0 0 0 23-6.12 2.61 2.61 0 0 1 3 .81l25.82 32.38 15.51-8.94-15.18-38.61a2.62 2.62 0 0 1 .79-3 111.45 111.45 0 0 0 16.83-16.81 2.6 2.6 0 0 1 3-.79L386.69 335l9-15.55-32.45-25.85a2.62 2.62 0 0 1-.81-3 110.65 110.65 0 0 0 6.15-22.95 2.61 2.61 0 0 1 2.2-2.19l41-6.17v-17.93l-41-6.17a2.62 2.62 0 0 1-2.2-2.19 110.9 110.9 0 0 0-6.15-23 2.63 2.63 0 0 1 .81-3l32.43-25.82-9-15.55-38.57 15.23a2.59 2.59 0 0 1-3-.78 111.06 111.06 0 0 0-16.83-16.82 2.61 2.61 0 0 1-.79-3l15.18-38.62-15.53-9-25.81 32.46a2.63 2.63 0 0 1-3 .81 110.75 110.75 0 0 0-23-6.15 2.63 2.63 0 0 1-2.19-2.2l-6.15-41h-17.92l-6.16 41a2.61 2.61 0 0 1-2.18 2.2 110.78 110.78 0 0 0-23 6.15 2.61 2.61 0 0 1-3-.81l-25.82-32.42-15.55 9 15.18 38.62a2.6 2.6 0 0 1-.8 3A110.93 110.93 0 0 0 171 180.08a2.59 2.59 0 0 1-3 .78l-38.6-15.18-9 15.55L152.82 207a2.61 2.61 0 0 1 .81 3 111.92 111.92 0 0 0-6.16 23 2.63 2.63 0 0 1-2.19 2.18l-41 6.17v17.95l41 6.17a2.62 2.62 0 0 1 2.19 2.18 111.72 111.72 0 0 0 6.16 23 2.63 2.63 0 0 1-.81 3l-32.42 25.77 9 15.55 38.6-15.18a2.59 2.59 0 0 1 3 .79 111.32 111.32 0 0 0 16.81 16.81 2.61 2.61 0 0 1 .8 3L173.39 379l15.54 9 25.83-32.44a2.59 2.59 0 0 1 3-.81 107.42 107.42 0 0 0 23 6.15 2.59 2.59 0 0 1 2.19 2.19z"/><path d="M269.25 412.29h-22.44a5.65 5.65 0 0 1-5.55-4.79l-5.88-39.2a116 116 0 0 1-16.71-4.47l-24.7 31a5.59 5.59 0 0 1-7.19 1.37L167.33 385a5.64 5.64 0 0 1-2.42-6.92l14.52-36.94a119.37 119.37 0 0 1-12.21-12.22l-36.93 14.53a5.62 5.62 0 0 1-6.91-2.41l-11.22-19.46a5.58 5.58 0 0 1 1.35-7.19l31-24.71a119.62 119.62 0 0 1-4.46-16.68l-39.2-5.9a5.65 5.65 0 0 1-4.78-5.55v-22.44a5.64 5.64 0 0 1 4.78-5.55l39.2-5.9a121.67 121.67 0 0 1 4.48-16.72l-31-24.67a5.59 5.59 0 0 1-1.37-7.2l11.22-19.45a5.65 5.65 0 0 1 6.92-2.41l36.93 14.52a120.39 120.39 0 0 1 12.21-12.22l-14.52-36.94a5.65 5.65 0 0 1 2.42-6.92l19.44-11.22a5.66 5.66 0 0 1 7.19 1.36l24.71 31a119.35 119.35 0 0 1 16.71-4.47l5.88-39.19a5.64 5.64 0 0 1 5.55-4.78h22.44a5.64 5.64 0 0 1 5.55 4.78l5.88 39.19a119.48 119.48 0 0 1 16.72 4.47l24.71-31a5.56 5.56 0 0 1 7.2-1.36l19.42 11.22a5.64 5.64 0 0 1 2.42 6.91l-14.53 36.94a120.58 120.58 0 0 1 12.23 12.22l36.92-14.52a5.61 5.61 0 0 1 6.91 2.41l11.24 19.45a5.6 5.6 0 0 1-1.36 7.2l-31 24.7a117.47 117.47 0 0 1 4.43 16.7l39.22 5.9a5.64 5.64 0 0 1 4.78 5.55v22.44a5.65 5.65 0 0 1-4.78 5.55L376 273a118.05 118.05 0 0 1-4.47 16.68l31 24.71a5.57 5.57 0 0 1 1.37 7.19L392.68 341a5.62 5.62 0 0 1-6.94 2.41l-36.89-14.52a119.66 119.66 0 0 1-12.23 12.23l14.53 36.94a5.58 5.58 0 0 1-2.43 6.91l-19.43 11.19a5.58 5.58 0 0 1-7.18-1.36l-24.7-31a117.68 117.68 0 0 1-16.73 4.46l-5.88 39.21a5.65 5.65 0 0 1-5.55 4.82zm-17.61-11.23h12.78l5.77-38.44a5.58 5.58 0 0 1 4.7-4.72 106.74 106.74 0 0 0 22.36-5.9 5.57 5.57 0 0 1 6.41 1.74l24.22 30.37 11.05-6.37-14.23-36.2a5.6 5.6 0 0 1 1.69-6.43 108.41 108.41 0 0 0 16.39-16.37 5.63 5.63 0 0 1 6.45-1.68l36.15 14.22 6.4-11.07-30.41-24.22a5.58 5.58 0 0 1-1.73-6.42 107.87 107.87 0 0 0 6-22.32 5.58 5.58 0 0 1 4.71-4.7l38.45-5.78v-12.83l-38.45-5.79a5.57 5.57 0 0 1-4.71-4.69 107.45 107.45 0 0 0-6-22.34 5.59 5.59 0 0 1 1.74-6.41l30.41-24.21-6.4-11.08-36.19 14.24a5.65 5.65 0 0 1-6.43-1.7 108.21 108.21 0 0 0-16.37-16.36 5.59 5.59 0 0 1-1.7-6.43L338.93 123l-11.06-6.39L303.66 147a5.6 5.6 0 0 1-6.4 1.74 109 109 0 0 0-22.38-6 5.57 5.57 0 0 1-4.69-4.71l-5.77-38.42h-12.78L245.87 138a5.58 5.58 0 0 1-4.68 4.71 107.66 107.66 0 0 0-22.36 6 5.62 5.62 0 0 1-6.42-1.74l-24.21-30.4-11.08 6.43 14.24 36.21a5.6 5.6 0 0 1-1.7 6.43A108.67 108.67 0 0 0 173.29 182a5.55 5.55 0 0 1-6.43 1.69l-36.18-14.23-6.39 11.07 30.39 24.18a5.58 5.58 0 0 1 1.74 6.41 110.05 110.05 0 0 0-6 22.39 5.57 5.57 0 0 1-4.71 4.68l-38.43 5.79v12.78l38.43 5.78a5.59 5.59 0 0 1 4.71 4.68 108.61 108.61 0 0 0 6 22.35 5.59 5.59 0 0 1-1.73 6.41l-30.4 24.22 6.39 11.07 36.2-14.27a5.62 5.62 0 0 1 6.42 1.7 108 108 0 0 0 16.35 16.35 5.61 5.61 0 0 1 1.71 6.44l-14.24 36.21 11.08 6.38 24.21-30.42a5.57 5.57 0 0 1 6.44-1.73 103.78 103.78 0 0 0 22.32 6 5.58 5.58 0 0 1 4.7 4.72z"/><path d="M258 328.17a77.85 77.85 0 1 1 77.85-77.84A77.93 77.93 0 0 1 258 328.17zm0-150.46a72.62 72.62 0 1 0 72.63 72.62A72.7 72.7 0 0 0 258 177.71z"/><path d="M258 331.17a80.85 80.85 0 1 1 80.85-80.84A80.93 80.93 0 0 1 258 331.17zm0-150.46a69.62 69.62 0 1 0 69.63 69.62A69.7 69.7 0 0 0 258 180.71z"/><path d="M258 201.32a7.82 7.82 0 1 1 7.81-7.81 7.82 7.82 0 0 1-7.81 7.81zm0-9.63a1.84 1.84 0 0 0-1.82 1.82 1.82 1.82 0 0 0 3.63 0 1.82 1.82 0 0 0-1.81-1.82zm28.39 17.24a7.71 7.71 0 0 1-3.84-1 7.83 7.83 0 0 1 1.88-14.36 7.83 7.83 0 0 1 8.79 11.43 7.9 7.9 0 0 1-6.83 3.93zm0-9.63a1.89 1.89 0 0 0-.47.06A1.83 1.83 0 1 0 288 202a1.8 1.8 0 0 0-.68-2.46 1.76 1.76 0 0 0-.89-.24zm20.86 30.44A7.82 7.82 0 1 1 314 218a7.8 7.8 0 0 1-6.75 11.71zm0-9.63a1.73 1.73 0 0 0-.88.23 1.86 1.86 0 0 0-.67 2.52 1.84 1.84 0 0 0 2.49.64 1.8 1.8 0 0 0 .66-2.47 1.87 1.87 0 0 0-1.64-.92zm7.6 38.04a7.82 7.82 0 1 1 7.81-7.82 7.83 7.83 0 0 1-7.81 7.82zm0-9.64a1.82 1.82 0 0 0 0 3.64 1.82 1.82 0 0 0 0-3.64zm-7.66 38.03a7.71 7.71 0 0 1-3.84-1 7.86 7.86 0 0 1-2.89-10.71 7.81 7.81 0 0 1 10.69-2.83 7.83 7.83 0 0 1 2.85 10.62 7.88 7.88 0 0 1-6.81 3.92zm0-9.64a2 2 0 0 0-.48.06 1.82 1.82 0 0 0-1.09.85 1.82 1.82 0 1 0 3.15 1.81 1.8 1.8 0 0 0-.67-2.47 1.83 1.83 0 0 0-.87-.25zm-20.74 30.43a7.82 7.82 0 1 1 6.76-11.71 7.8 7.8 0 0 1-2.86 10.67 7.78 7.78 0 0 1-3.9 1.04zm0-9.62a1.81 1.81 0 0 0-.9.24 1.82 1.82 0 1 0 2.69 2 1.78 1.78 0 0 0-.17-1.34 1.9 1.9 0 0 0-1.66-.9zM258 315a7.82 7.82 0 1 1 7.81-7.81A7.82 7.82 0 0 1 258 315zm0-9.63a1.82 1.82 0 1 0 1.81 1.82 1.79 1.79 0 0 0-1.81-1.86zm-28.39 1.96a7.78 7.78 0 0 1-3.88-1 7.8 7.8 0 0 1-2.87-10.68 7.82 7.82 0 1 1 6.75 11.71zm-.89-6.23a1.83 1.83 0 1 0 1.81-3.17 1.86 1.86 0 0 0-2.47.69 1.79 1.79 0 0 0-.19 1.37 1.86 1.86 0 0 0 .85 1.11zm-19.84-14.56a7.87 7.87 0 0 1-6.82-3.91 7.83 7.83 0 1 1 10.7 2.89 7.77 7.77 0 0 1-3.88 1.02zm-1.64-6.92a1.83 1.83 0 1 0 3.17-1.82 1.83 1.83 0 0 0-3.17 1.82zm-6.02-21.47a7.82 7.82 0 1 1 7.83-7.82 7.83 7.83 0 0 1-7.83 7.82zm0-9.64a1.82 1.82 0 1 0 1.83 1.82 1.81 1.81 0 0 0-1.83-1.82zm7.58-18.77a7.65 7.65 0 0 1-3.88-1.05 7.84 7.84 0 0 1-2.87-10.69 7.82 7.82 0 1 1 6.74 11.72zm-1.55-8.74a1.8 1.8 0 0 0 .68 2.47 1.82 1.82 0 1 0-.68-2.47zm22.41-12.07a7.77 7.77 0 1 1 3.91-1 7.94 7.94 0 0 1-3.91 1zm0-9.63a1.78 1.78 0 0 0-.89.24 1.78 1.78 0 0 0-.66 2.47 1.82 1.82 0 1 0 3.14-1.83 1.81 1.81 0 0 0-1.11-.84 1.76 1.76 0 0 0-.51-.04zM258 260.27a9.95 9.95 0 1 1 9.94-9.94 10 10 0 0 1-9.94 9.94zm0-14.66a4.72 4.72 0 1 0 4.72 4.72 4.73 4.73 0 0 0-4.72-4.72z"/><path d="M258 263.27a12.95 12.95 0 1 1 13-12.94 12.95 12.95 0 0 1-13 12.94zm0-14.66a1.72 1.72 0 1 0 1.72 1.72 1.72 1.72 0 0 0-1.72-1.72z"/><path d="M296.78 256.15h-.22l-31.44-2.59a2.61 2.61 0 0 1-2.39-2.81 2.57 2.57 0 0 1 2.82-2.39l31.45 2.57a2.61 2.61 0 0 1-.21 5.22zm-43.58-8.72a2.61 2.61 0 0 1-2-.89l-15.5-17.65a2.61 2.61 0 0 1 3.92-3.44l15.51 17.65a2.61 2.61 0 0 1-2 4.33z"/><path d="M296.78 259.15h-.54l-31.36-2.58a5.62 5.62 0 0 1-5.14-6.05 5.71 5.71 0 0 1 2-3.9 5.43 5.43 0 0 1 4.11-1.22l31.35 2.57a5.6 5.6 0 0 1 5.13 6.05 5.65 5.65 0 0 1-5.55 5.13zm-31.47-7.81zm-12.11-.9a5.59 5.59 0 0 1-4.22-1.92l-15.51-17.65a5.61 5.61 0 1 1 8.44-7.4l15.5 17.65a5.56 5.56 0 0 1 1.38 4.07 5.5 5.5 0 0 1-1.9 3.85 5.56 5.56 0 0 1-3.69 1.4zm.29-5.88zm-16.09-17.14z"/></svg>