<svg id="Layer_1" data-name="Layer 1" xmlns="http://www.w3.org/2000/svg" viewBox="0 0 500 500"><defs><style>.cls-1{fill:none}</style></defs><path class="cls-1" d="M384.24 314.89v1.48l-95.84 38.52-22.35-39.62 118.19-.38z"/><path d="M273.24 279.34a.66.66 0 0 1-.65-.65V263.4a.65.65 0 0 1 .65-.65h10.66v-43a.66.66 0 0 1 .28-.54 55.32 55.32 0 0 0 15-15.32.66.66 0 0 1 .77-.25L384.42 235a.65.65 0 0 1 .42.59l.05 1.22a.65.65 0 0 1-.42.63l-111 41.86a.66.66 0 0 1-.23.04zm.65-15.29v13.7l109.68-41.36v-.32L300 205a56.82 56.82 0 0 1-14.77 15v43.4a.65.65 0 0 1-.65.65z"/><path d="M273.24 264.05h-42.33a.65.65 0 0 1-.65-.65.68.68 0 0 1 .65-.69h42.33a.65.65 0 0 1 .65.65.68.68 0 0 1-.65.69z"/><path class="cls-1" d="M273.24 278.69l111-41.86 31.04 67.03-31.04 12.51v-1.48l-118.19.38-15.46-27.37-.3-.55 22.95-8.66z"/><path d="M251.82 423.88a.66.66 0 0 1-.36-.11.64.64 0 0 1-.29-.53l-1.23-107.92a.65.65 0 0 1 .64-.66.64.64 0 0 1 .65.64l1.22 107 131.13-51.91v-53l-94.95 38.16a.64.64 0 0 1-.8-.28l-22.36-39.62a.65.65 0 0 1 1.14-.64l22.07 39.12L384 315.76a.66.66 0 0 1 .89.61v54.44a.67.67 0 0 1-.41.61l-132.42 52.42a.67.67 0 0 1-.24.04z"/><path d="M251.82 423.88a.59.59 0 0 1-.23 0l-135.5-52.42a.66.66 0 0 1-.42-.61v-53.97a.65.65 0 0 1 .29-.54.64.64 0 0 1 .61-.07L210 354.08l23.4-39a.65.65 0 0 1 1.11.67l-23.69 39.49a.64.64 0 0 1-.8.27l-93-37.65v52.53l134.19 51.91-1.22-107a.65.65 0 0 1 .64-.66.64.64 0 0 1 .65.64l1.23 107.92a.67.67 0 0 1-.28.55.7.7 0 0 1-.41.13zm-1.53-135.16a1 1 0 0 1-.23 0L230 281a.65.65 0 0 1-.37-.84l.59-1.57V263.4a.65.65 0 0 1 .65-.65h42.33a.65.65 0 0 1 .65.65v15.29a.66.66 0 0 1-.42.61l-22.26 8.4a.65.65 0 0 1-.3.76l-.29.17a.63.63 0 0 1-.29.09zM231.11 280l18.57 7.1a.65.65 0 0 1 .38-.38l22.53-8.51v-14.16h-41v14.69a.62.62 0 0 1 0 .23zm-.2-1.3zm53.64-28.12a.65.65 0 0 1-.65-.65v-10.25h-63.66v10.25a.65.65 0 0 1-1.3 0V239a.65.65 0 0 1 .65-.65h65a.65.65 0 0 1 .65.65v10.9a.65.65 0 0 1-.69.68z"/><path d="M284.55 239.68h-29.9a.65.65 0 0 1-.61-.89l19.85-51.31-10.71 1.38a.62.62 0 0 1-.63-.3l-10.85-17.51-10.55 17.59a.68.68 0 0 1-.65.31l-10.27-1.45 19.88 51.29a.65.65 0 0 1-.61.89h-29.91a.65.65 0 0 1-.65-.65v-19a57.71 57.71 0 1 1 81.31-15.48 56.68 56.68 0 0 1-15.05 15.48v19a.65.65 0 0 1-.65.65zm-29-1.3h28.3v-18.65a.66.66 0 0 1 .28-.54 55.32 55.32 0 0 0 15-15.32A56.43 56.43 0 1 0 220 219.19a.64.64 0 0 1 .28.54v18.65h28.31l-19.94-51.45a.68.68 0 0 1 .1-.64.65.65 0 0 1 .6-.24l10.94 1.55 10.88-18.13a.66.66 0 0 1 .56-.31.61.61 0 0 1 .55.3l11.19 18.06 11.37-1.47a.66.66 0 0 1 .6.25.63.63 0 0 1 .09.63z"/><path d="M254.65 239.68h-5.15a.64.64 0 0 1-.6-.42l-20.29-52.33a.68.68 0 0 1 .1-.64.65.65 0 0 1 .6-.24l10.94 1.55 10.88-18.13a.66.66 0 0 1 .56-.31.61.61 0 0 1 .55.3l11.19 18.06 11.37-1.47a.66.66 0 0 1 .6.25.63.63 0 0 1 .09.63l-20.24 52.33a.64.64 0 0 1-.6.42zm-4.7-1.3h4.25l19.69-50.9-10.71 1.38a.62.62 0 0 1-.63-.3l-10.85-17.51-10.55 17.59a.68.68 0 0 1-.65.31l-10.27-1.45z"/><path class="cls-1" d="M210.22 354.89l-93.9-38.01v-1.11l117.59-.38-23.69 39.5z"/><path d="M230.27 281.07a.66.66 0 0 1-.23 0l-113.95-43.63a.63.63 0 0 1-.37-.38l-.55-1.43a.67.67 0 0 1 0-.5.65.65 0 0 1 .37-.34l87.85-32.36a.74.74 0 0 1 .82.27A56.36 56.36 0 0 0 220 219.19a.64.64 0 0 1 .28.54v43h10.67a.65.65 0 0 1 .65.65v15.34a.62.62 0 0 1 0 .23l-.64 1.68a.63.63 0 0 1-.34.36.6.6 0 0 1-.35.08zm-113.44-44.74l113.07 43.25.36-1v-14.53h-10.67a.65.65 0 0 1-.65-.65v-43.33a57.58 57.58 0 0 1-15.55-16.25l-86.77 32z"/><path class="cls-1" d="M116.32 315.77v1.11l-32.14-13.02 32.14-67.03 113.95 43.59 20.02 7.65-16.38 27.32-117.59.38z"/><path d="M251.82 427.73a4.51 4.51 0 0 1-1.62-.3L114.7 375a4.51 4.51 0 0 1-2.88-4.2v-53.92a4.5 4.5 0 0 1 9 0v50.85l131 50.67 127.94-50.65v-51.38a4.5 4.5 0 0 1 9 0v54.44a4.5 4.5 0 0 1-2.85 4.19l-132.43 52.42a4.52 4.52 0 0 1-1.66.31z"/><path d="M210.21 359.39a4.53 4.53 0 0 1-1.68-.33l-126-51a4.49 4.49 0 0 1-2.36-6.11l32.14-67a4.49 4.49 0 0 1 5.66-2.26l114 43.59 20 7.64a4.54 4.54 0 0 1 2.65 2.74 4.49 4.49 0 0 1-.4 3.78l-40.14 66.76a4.52 4.52 0 0 1-3.87 2.19zm-119.9-57.9l118 47.78 35.33-58.91-15-5.73-110.05-42.11z"/><path d="M288.4 359.39a4.51 4.51 0 0 1-3.92-2.29l-38.14-67.6a4.51 4.51 0 0 1 2.36-6.36l22.95-8.66 111-41.86a4.5 4.5 0 0 1 5.67 2.32l31.05 67A4.49 4.49 0 0 1 417 308l-31 12.51-95.84 38.52a4.53 4.53 0 0 1-1.76.36zm-31.62-69.68l33.6 59.53 92.18-37.05 26.65-10.73-27.3-58.94zm-141.14-49.77a4.5 4.5 0 0 1-1.39-8.78l87.77-32.32a4.5 4.5 0 0 1 3.11 8.45l-87.85 32.35-.17.06h-.13a4.48 4.48 0 0 1-1.34.24z"/><path d="M384.19 240.11a4.47 4.47 0 0 1-1.56-.28l-84.49-31.38a4.5 4.5 0 1 1 3.14-8.44l84.48 31.38a4.5 4.5 0 0 1-1.57 8.72z"/><path d="M284.55 267.9h-65a4.51 4.51 0 0 1-4.5-4.5V222a61.55 61.55 0 1 1 88.38-15.32A60.36 60.36 0 0 1 289.05 222v41.4a4.5 4.5 0 0 1-4.5 4.5zm-60.46-9h56v-39.17A4.52 4.52 0 0 1 282 216a51.58 51.58 0 0 0 14-14.25A52.59 52.59 0 1 0 222.15 216a4.52 4.52 0 0 1 1.94 3.71z"/><path d="M292.87 243.53h-38.22a4.5 4.5 0 0 1 0-9h38.22a4.5 4.5 0 0 1 0 9z"/><path d="M249.5 243.53h-38.27a4.5 4.5 0 0 1 0-9h38.27a4.5 4.5 0 0 1 0 9zm-18.59 39.71a4.51 4.51 0 0 1-4.5-4.5V263.4a4.53 4.53 0 0 1 4.5-4.54h42.33a4.51 4.51 0 0 1 4.5 4.5v15.33a4.5 4.5 0 0 1-9 .05v-10.88h-33.33v10.88a4.5 4.5 0 0 1-4.5 4.5zM249 109a4.49 4.49 0 0 1-4.5-4.5V86a4.5 4.5 0 1 1 9 0v18.46A4.5 4.5 0 0 1 249 109zm22.13 2.07a4.41 4.41 0 0 1-1.18-.16 4.49 4.49 0 0 1-3.17-5.51l4.81-17.82a4.5 4.5 0 1 1 8.69 2.34l-4.81 17.82a4.5 4.5 0 0 1-4.34 3.33zm20.87 7.78a4.51 4.51 0 0 1-3.89-6.75l9.21-16a4.5 4.5 0 0 1 7.8 4.49l-9.21 16a4.5 4.5 0 0 1-3.91 2.26zm18.11 12.92a4.51 4.51 0 0 1-3.19-7.68l13-13.08a4.5 4.5 0 0 1 6.38 6.34l-13 13.09a4.5 4.5 0 0 1-3.19 1.33zM189.72 136a4.48 4.48 0 0 1-3.18-1.32l-13-13.05a4.5 4.5 0 1 1 6.37-6.36l13 13a4.5 4.5 0 0 1-3.19 7.68zm17.17-14.07a4.5 4.5 0 0 1-3.91-2.26l-9.21-16a4.5 4.5 0 0 1 7.8-4.48l9.21 16a4.5 4.5 0 0 1-3.89 6.74zm20.22-9.29a4.51 4.51 0 0 1-4.35-3.34L218 91.47a4.5 4.5 0 1 1 8.69-2.32l4.77 17.85a4.51 4.51 0 0 1-3.19 5.51 4.27 4.27 0 0 1-1.16.13z"/><path d="M254.65 243.53h-5.15a4.48 4.48 0 0 1-4.19-2.88L225 188.32a4.5 4.5 0 0 1 4.83-6.08l8.41 1.19 9.57-15.94a4.51 4.51 0 0 1 7.69-.05l9.88 15.94 8.91-1.14a4.49 4.49 0 0 1 4.77 6.08l-20.23 52.33a4.52 4.52 0 0 1-4.18 2.88zm-18.46-51.3l15.88 41 15.93-41.1-4.28.55a4.5 4.5 0 0 1-4.4-2.09l-7.53-12.14-7.3 12.17a4.51 4.51 0 0 1-4.49 2.14zm15.63 235.5a4.5 4.5 0 0 1-4.5-4.45L245.79 290a4.51 4.51 0 0 1 4.45-4.55 4.5 4.5 0 0 1 4.5 4.45l1.53 133.26a4.49 4.49 0 0 1-4.45 4.55z"/></svg>